<?xml version="1.0" encoding="utf-8"?>
<!-- Generator: Adobe Illustrator 25.4.1, SVG Export Plug-In . SVG Version: 6.00 Build 0)  -->
<svg version="1.1" id="Warstwa_1" xmlns="http://www.w3.org/2000/svg" xmlns:xlink="http://www.w3.org/1999/xlink" x="0px" y="0px"
	 viewBox="0 0 1273.5 634.5" style="enable-background:new 0 0 1273.5 634.5;" xml:space="preserve">
<style type="text/css">
	.st0{fill:#F4F4F4;stroke:#FFFFFF;stroke-miterlimit:10;}
</style>
<g>
	<circle class="st0" cx="389.3" cy="7.3" r="7.3"/>
	<circle class="st0" cx="411.7" cy="7.3" r="7.3"/>
	<circle class="st0" cx="434.1" cy="7.3" r="7.3"/>
	<circle class="st0" cx="457" cy="7.3" r="7.3"/>
	<circle class="st0" cx="479.5" cy="7.3" r="7.3"/>
	<circle class="st0" cx="501.9" cy="7.3" r="7.3"/>
	<circle class="st0" cx="524.3" cy="7.3" r="7.3"/>
	<circle class="st0" cx="546.7" cy="7.3" r="7.3"/>
	<circle class="st0" cx="839.5" cy="7.3" r="7.3"/>
	<circle class="st0" cx="861.9" cy="7.3" r="7.3"/>
	<circle class="st0" cx="884.3" cy="7.3" r="7.3"/>
	<circle class="st0" cx="322" cy="30.1" r="7.3"/>
	<circle class="st0" cx="344.4" cy="30.1" r="7.3"/>
	<circle class="st0" cx="411.7" cy="30.1" r="7.3"/>
	<circle class="st0" cx="434.1" cy="30.1" r="7.3"/>
	<circle class="st0" cx="457" cy="30.1" r="7.3"/>
	<circle class="st0" cx="479.5" cy="30.1" r="7.3"/>
	<circle class="st0" cx="501.9" cy="30.1" r="7.3"/>
	<circle class="st0" cx="614" cy="30.1" r="7.3"/>
	<circle class="st0" cx="637.1" cy="30.1" r="7.3"/>
	<circle class="st0" cx="659.6" cy="30.1" r="7.3"/>
	<circle class="st0" cx="794.1" cy="30.1" r="7.3"/>
	<circle class="st0" cx="817" cy="30.1" r="7.3"/>
	<circle class="st0" cx="839.5" cy="30.1" r="7.3"/>
	<circle class="st0" cx="861.9" cy="30.1" r="7.3"/>
	<circle class="st0" cx="884.3" cy="30.1" r="7.3"/>
	<circle class="st0" cx="906.7" cy="30.1" r="7.3"/>
	<circle class="st0" cx="929.1" cy="30.1" r="7.3"/>
	<circle class="st0" cx="951.5" cy="30.1" r="7.3"/>
	<circle class="st0" cx="974" cy="30.1" r="7.3"/>
	<circle class="st0" cx="996.7" cy="30.1" r="7.3"/>
	<circle class="st0" cx="74.5" cy="53.1" r="7.3"/>
	<circle class="st0" cx="97.5" cy="53.1" r="7.3"/>
	<circle class="st0" cx="119.9" cy="53.1" r="7.3"/>
	<circle class="st0" cx="142.3" cy="53.1" r="7.3"/>
	<circle class="st0" cx="164.7" cy="53.1" r="7.3"/>
	<circle class="st0" cx="187.1" cy="53.1" r="7.3"/>
	<circle class="st0" cx="209.6" cy="53.1" r="7.3"/>
	<circle class="st0" cx="232" cy="53.1" r="7.3"/>
	<circle class="st0" cx="254.4" cy="53.1" r="7.3"/>
	<circle class="st0" cx="277.1" cy="53.1" r="7.3"/>
	<circle class="st0" cx="299.6" cy="53.1" r="7.3"/>
	<circle class="st0" cx="366.8" cy="53.1" r="7.3"/>
	<circle class="st0" cx="411.7" cy="53.1" r="7.3"/>
	<circle class="st0" cx="434.1" cy="53.1" r="7.3"/>
	<circle class="st0" cx="457" cy="53.1" r="7.3"/>
	<circle class="st0" cx="479.5" cy="53.1" r="7.3"/>
	<circle class="st0" cx="501.9" cy="53.1" r="7.3"/>
	<circle class="st0" cx="524.3" cy="53.1" r="7.3"/>
	<circle class="st0" cx="591.6" cy="53.1" r="7.3"/>
	<circle class="st0" cx="614" cy="53.1" r="7.3"/>
	<circle class="st0" cx="637.1" cy="53.1" r="7.3"/>
	<circle class="st0" cx="659.6" cy="53.1" r="7.3"/>
	<circle class="st0" cx="682" cy="53.1" r="7.3"/>
	<circle class="st0" cx="704.4" cy="53.1" r="7.3"/>
	<circle class="st0" cx="726.8" cy="53.1" r="7.3"/>
	<circle class="st0" cx="749.3" cy="53.1" r="7.3"/>
	<circle class="st0" cx="771.7" cy="53.1" r="7.3"/>
	<circle class="st0" cx="794.1" cy="53.1" r="7.3"/>
	<circle class="st0" cx="817" cy="53.1" r="7.3"/>
	<circle class="st0" cx="839.5" cy="53.1" r="7.3"/>
	<circle class="st0" cx="861.9" cy="53.1" r="7.3"/>
	<circle class="st0" cx="884.3" cy="53.1" r="7.3"/>
	<circle class="st0" cx="906.7" cy="53.1" r="7.3"/>
	<circle class="st0" cx="929.1" cy="53.1" r="7.3"/>
	<circle class="st0" cx="951.5" cy="53.1" r="7.3"/>
	<circle class="st0" cx="974" cy="53.1" r="7.3"/>
	<circle class="st0" cx="996.7" cy="53.1" r="7.3"/>
	<circle class="st0" cx="1019.1" cy="53.1" r="7.3"/>
	<circle class="st0" cx="1041.6" cy="53.1" r="7.3"/>
	<circle class="st0" cx="1064" cy="53.1" r="7.3"/>
	<circle class="st0" cx="1086.4" cy="53.1" r="7.3"/>
	<circle class="st0" cx="1108.8" cy="53.1" r="7.3"/>
	<circle class="st0" cx="1131.2" cy="53.1" r="7.3"/>
	<circle class="st0" cx="1153.7" cy="53.1" r="7.3"/>
	<circle class="st0" cx="1176.6" cy="53.1" r="7.3"/>
	<circle class="st0" cx="29.7" cy="76.2" r="7.3"/>
	<circle class="st0" cx="52.1" cy="76.2" r="7.3"/>
	<circle class="st0" cx="74.5" cy="76.2" r="7.3"/>
	<circle class="st0" cx="97.5" cy="76.2" r="7.3"/>
	<circle class="st0" cx="119.9" cy="76.2" r="7.3"/>
	<circle class="st0" cx="142.3" cy="76.2" r="7.3"/>
	<circle class="st0" cx="164.7" cy="76.2" r="7.3"/>
	<circle class="st0" cx="187.1" cy="76.2" r="7.3"/>
	<circle class="st0" cx="209.6" cy="76.2" r="7.3"/>
	<circle class="st0" cx="232" cy="76.2" r="7.3"/>
	<circle class="st0" cx="254.4" cy="76.2" r="7.3"/>
	<circle class="st0" cx="322" cy="76.2" r="7.3"/>
	<circle class="st0" cx="344.4" cy="76.2" r="7.3"/>
	<circle class="st0" cx="366.8" cy="76.2" r="7.3"/>
	<circle class="st0" cx="411.7" cy="76.2" r="7.3"/>
	<circle class="st0" cx="434.1" cy="76.2" r="7.3"/>
	<circle class="st0" cx="501.9" cy="76.2" r="7.3"/>
	<circle class="st0" cx="524.3" cy="76.2" r="7.3"/>
	<circle class="st0" cx="591.6" cy="76.2" r="7.3"/>
	<circle class="st0" cx="614" cy="76.2" r="7.3"/>
	<circle class="st0" cx="659.6" cy="76.2" r="7.3"/>
	<circle class="st0" cx="682" cy="76.2" r="7.3"/>
	<circle class="st0" cx="704.4" cy="76.2" r="7.3"/>
	<circle class="st0" cx="726.8" cy="76.2" r="7.3"/>
	<circle class="st0" cx="749.3" cy="76.2" r="7.3"/>
	<circle class="st0" cx="771.7" cy="76.2" r="7.3"/>
	<circle class="st0" cx="794.1" cy="76.2" r="7.3"/>
	<circle class="st0" cx="817" cy="76.2" r="7.3"/>
	<circle class="st0" cx="839.5" cy="76.2" r="7.3"/>
	<circle class="st0" cx="861.9" cy="76.2" r="7.3"/>
	<circle class="st0" cx="884.3" cy="76.2" r="7.3"/>
	<circle class="st0" cx="906.7" cy="76.2" r="7.3"/>
	<circle class="st0" cx="929.1" cy="76.2" r="7.3"/>
	<circle class="st0" cx="951.5" cy="76.2" r="7.3"/>
	<circle class="st0" cx="974" cy="76.2" r="7.3"/>
	<circle class="st0" cx="996.7" cy="76.2" r="7.3"/>
	<circle class="st0" cx="1019.1" cy="76.2" r="7.3"/>
	<circle class="st0" cx="1041.6" cy="76.2" r="7.3"/>
	<circle class="st0" cx="1064" cy="76.2" r="7.3"/>
	<circle class="st0" cx="1086.4" cy="76.2" r="7.3"/>
	<circle class="st0" cx="1108.8" cy="76.2" r="7.3"/>
	<circle class="st0" cx="1131.2" cy="76.2" r="7.3"/>
	<circle class="st0" cx="1153.7" cy="76.2" r="7.3"/>
	<circle class="st0" cx="1176.6" cy="76.2" r="7.3"/>
	<circle class="st0" cx="7.3" cy="99.1" r="7.3"/>
	<circle class="st0" cx="29.7" cy="99.1" r="7.3"/>
	<circle class="st0" cx="119.9" cy="99.1" r="7.3"/>
	<circle class="st0" cx="142.3" cy="99.1" r="7.3"/>
	<circle class="st0" cx="164.7" cy="99.1" r="7.3"/>
	<circle class="st0" cx="187.1" cy="99.1" r="7.3"/>
	<circle class="st0" cx="209.6" cy="99.1" r="7.3"/>
	<circle class="st0" cx="232" cy="99.1" r="7.3"/>
	<circle class="st0" cx="254.4" cy="99.1" r="7.3"/>
	<circle class="st0" cx="322" cy="99.1" r="7.3"/>
	<circle class="st0" cx="344.4" cy="99.1" r="7.3"/>
	<circle class="st0" cx="366.8" cy="99.1" r="7.3"/>
	<circle class="st0" cx="411.7" cy="99.1" r="7.3"/>
	<circle class="st0" cx="546.7" cy="99.1" r="7.3"/>
	<circle class="st0" cx="569.1" cy="99.1" r="7.3"/>
	<circle class="st0" cx="659.6" cy="99.1" r="7.3"/>
	<circle class="st0" cx="682" cy="99.1" r="7.3"/>
	<circle class="st0" cx="704.4" cy="99.1" r="7.3"/>
	<circle class="st0" cx="726.8" cy="99.1" r="7.3"/>
	<circle class="st0" cx="749.3" cy="99.1" r="7.3"/>
	<circle class="st0" cx="771.7" cy="99.1" r="7.3"/>
	<circle class="st0" cx="794.1" cy="99.1" r="7.3"/>
	<circle class="st0" cx="817" cy="99.1" r="7.3"/>
	<circle class="st0" cx="839.5" cy="99.1" r="7.3"/>
	<circle class="st0" cx="861.9" cy="99.1" r="7.3"/>
	<circle class="st0" cx="884.3" cy="99.1" r="7.3"/>
	<circle class="st0" cx="906.7" cy="99.1" r="7.3"/>
	<circle class="st0" cx="929.1" cy="99.1" r="7.3"/>
	<circle class="st0" cx="951.5" cy="99.1" r="7.3"/>
	<circle class="st0" cx="974" cy="99.1" r="7.3"/>
	<circle class="st0" cx="996.7" cy="99.1" r="7.3"/>
	<circle class="st0" cx="1019.1" cy="99.1" r="7.3"/>
	<circle class="st0" cx="1041.6" cy="99.1" r="7.3"/>
	<circle class="st0" cx="1131.2" cy="99.1" r="7.3"/>
	<circle class="st0" cx="1153.7" cy="99.1" r="7.3"/>
	<circle class="st0" cx="1176.6" cy="99.1" r="7.3"/>
	<circle class="st0" cx="97.5" cy="121.9" r="7.3"/>
	<circle class="st0" cx="119.9" cy="121.9" r="7.3"/>
	<circle class="st0" cx="142.3" cy="121.9" r="7.3"/>
	<circle class="st0" cx="164.7" cy="121.9" r="7.3"/>
	<circle class="st0" cx="187.1" cy="121.9" r="7.3"/>
	<circle class="st0" cx="209.6" cy="121.9" r="7.3"/>
	<circle class="st0" cx="232" cy="121.9" r="7.3"/>
	<circle class="st0" cx="254.4" cy="121.9" r="7.3"/>
	<circle class="st0" cx="277.1" cy="121.9" r="7.3"/>
	<circle class="st0" cx="299.6" cy="121.9" r="7.3"/>
	<circle class="st0" cx="322" cy="121.9" r="7.3"/>
	<circle class="st0" cx="344.4" cy="121.9" r="7.3"/>
	<circle class="st0" cx="366.8" cy="121.9" r="7.3"/>
	<circle class="st0" cx="546.7" cy="121.9" r="7.3"/>
	<circle class="st0" cx="569.1" cy="121.9" r="7.3"/>
	<circle class="st0" cx="591.6" cy="121.9" r="7.3"/>
	<circle class="st0" cx="614" cy="121.9" r="7.3"/>
	<circle class="st0" cx="637.1" cy="121.9" r="7.3"/>
	<circle class="st0" cx="659.6" cy="121.9" r="7.3"/>
	<circle class="st0" cx="682" cy="121.9" r="7.3"/>
	<circle class="st0" cx="704.4" cy="121.9" r="7.3"/>
	<circle class="st0" cx="726.8" cy="121.9" r="7.3"/>
	<circle class="st0" cx="749.3" cy="121.9" r="7.3"/>
	<circle class="st0" cx="771.7" cy="121.9" r="7.3"/>
	<circle class="st0" cx="794.1" cy="121.9" r="7.3"/>
	<circle class="st0" cx="817" cy="121.9" r="7.3"/>
	<circle class="st0" cx="839.5" cy="121.9" r="7.3"/>
	<circle class="st0" cx="861.9" cy="121.9" r="7.3"/>
	<circle class="st0" cx="884.3" cy="121.9" r="7.3"/>
	<circle class="st0" cx="906.7" cy="121.9" r="7.3"/>
	<circle class="st0" cx="929.1" cy="121.9" r="7.3"/>
	<circle class="st0" cx="951.5" cy="121.9" r="7.3"/>
	<circle class="st0" cx="974" cy="121.9" r="7.3"/>
	<circle class="st0" cx="996.7" cy="121.9" r="7.3"/>
	<circle class="st0" cx="1019.1" cy="121.9" r="7.3"/>
	<circle class="st0" cx="1041.6" cy="121.9" r="7.3"/>
	<circle class="st0" cx="1064" cy="121.9" r="7.3"/>
	<circle class="st0" cx="1086.4" cy="121.9" r="7.3"/>
	<circle class="st0" cx="1131.2" cy="121.9" r="7.3"/>
	<circle class="st0" cx="1153.7" cy="121.9" r="7.3"/>
	<circle class="st0" cx="97.5" cy="144.8" r="7.3"/>
	<circle class="st0" cx="119.9" cy="144.8" r="7.3"/>
	<circle class="st0" cx="142.3" cy="144.8" r="7.3"/>
	<circle class="st0" cx="164.7" cy="144.8" r="7.3"/>
	<circle class="st0" cx="187.1" cy="144.8" r="7.3"/>
	<circle class="st0" cx="209.6" cy="144.8" r="7.3"/>
	<circle class="st0" cx="232" cy="144.8" r="7.3"/>
	<circle class="st0" cx="254.4" cy="144.8" r="7.3"/>
	<circle class="st0" cx="277.1" cy="144.8" r="7.3"/>
	<circle class="st0" cx="299.6" cy="144.8" r="7.3"/>
	<circle class="st0" cx="322" cy="144.8" r="7.3"/>
	<circle class="st0" cx="569.1" cy="144.8" r="7.3"/>
	<circle class="st0" cx="591.6" cy="144.8" r="7.3"/>
	<circle class="st0" cx="614" cy="144.8" r="7.3"/>
	<circle class="st0" cx="637.1" cy="144.8" r="7.3"/>
	<circle class="st0" cx="659.6" cy="144.8" r="7.3"/>
	<circle class="st0" cx="682" cy="144.8" r="7.3"/>
	<circle class="st0" cx="704.4" cy="144.8" r="7.3"/>
	<circle class="st0" cx="726.8" cy="144.8" r="7.3"/>
	<circle class="st0" cx="749.3" cy="144.8" r="7.3"/>
	<circle class="st0" cx="771.7" cy="144.8" r="7.3"/>
	<circle class="st0" cx="794.1" cy="144.8" r="7.3"/>
	<circle class="st0" cx="817" cy="144.8" r="7.3"/>
	<circle class="st0" cx="839.5" cy="144.8" r="7.3"/>
	<circle class="st0" cx="861.9" cy="144.8" r="7.3"/>
	<circle class="st0" cx="884.3" cy="144.8" r="7.3"/>
	<circle class="st0" cx="906.7" cy="144.8" r="7.3"/>
	<circle class="st0" cx="929.1" cy="144.8" r="7.3"/>
	<circle class="st0" cx="951.5" cy="144.8" r="7.3"/>
	<circle class="st0" cx="974" cy="144.8" r="7.3"/>
	<circle class="st0" cx="996.7" cy="144.8" r="7.3"/>
	<circle class="st0" cx="1019.1" cy="144.8" r="7.3"/>
	<circle class="st0" cx="1041.6" cy="144.8" r="7.3"/>
	<circle class="st0" cx="1064" cy="144.8" r="7.3"/>
	<circle class="st0" cx="1086.4" cy="144.8" r="7.3"/>
	<circle class="st0" cx="1108.8" cy="144.8" r="7.3"/>
	<circle class="st0" cx="74.5" cy="167.9" r="7.3"/>
	<circle class="st0" cx="97.5" cy="167.9" r="7.3"/>
	<circle class="st0" cx="119.9" cy="167.9" r="7.3"/>
	<circle class="st0" cx="142.3" cy="167.9" r="7.3"/>
	<circle class="st0" cx="164.7" cy="167.9" r="7.3"/>
	<circle class="st0" cx="187.1" cy="167.9" r="7.3"/>
	<circle class="st0" cx="209.6" cy="167.9" r="7.3"/>
	<circle class="st0" cx="232" cy="167.9" r="7.3"/>
	<circle class="st0" cx="254.4" cy="167.9" r="7.3"/>
	<circle class="st0" cx="277.1" cy="167.9" r="7.3"/>
	<circle class="st0" cx="299.6" cy="167.9" r="7.3"/>
	<circle class="st0" cx="546.7" cy="167.9" r="7.3"/>
	<circle class="st0" cx="569.1" cy="167.9" r="7.3"/>
	<circle class="st0" cx="637.1" cy="167.9" r="7.3"/>
	<circle class="st0" cx="659.6" cy="167.9" r="7.3"/>
	<circle class="st0" cx="682" cy="167.9" r="7.3"/>
	<circle class="st0" cx="704.4" cy="167.9" r="7.3"/>
	<circle class="st0" cx="726.8" cy="167.9" r="7.3"/>
	<circle class="st0" cx="749.3" cy="167.9" r="7.3"/>
	<circle class="st0" cx="771.7" cy="167.9" r="7.3"/>
	<circle class="st0" cx="794.1" cy="167.9" r="7.3"/>
	<circle class="st0" cx="817" cy="167.9" r="7.3"/>
	<circle class="st0" cx="839.5" cy="167.9" r="7.3"/>
	<circle class="st0" cx="861.9" cy="167.9" r="7.3"/>
	<circle class="st0" cx="884.3" cy="167.9" r="7.3"/>
	<circle class="st0" cx="906.7" cy="167.9" r="7.3"/>
	<circle class="st0" cx="929.1" cy="167.9" r="7.3"/>
	<circle class="st0" cx="951.5" cy="167.9" r="7.3"/>
	<circle class="st0" cx="974" cy="167.9" r="7.3"/>
	<circle class="st0" cx="996.7" cy="167.9" r="7.3"/>
	<circle class="st0" cx="1019.1" cy="167.9" r="7.3"/>
	<circle class="st0" cx="1041.6" cy="167.9" r="7.3"/>
	<circle class="st0" cx="1064" cy="167.9" r="7.3"/>
	<circle class="st0" cx="1108.8" cy="167.9" r="7.3"/>
	<circle class="st0" cx="1131.2" cy="167.9" r="7.3"/>
	<circle class="st0" cx="74.5" cy="190.9" r="7.3"/>
	<circle class="st0" cx="97.5" cy="190.9" r="7.3"/>
	<circle class="st0" cx="119.9" cy="190.9" r="7.3"/>
	<circle class="st0" cx="142.3" cy="190.9" r="7.3"/>
	<circle class="st0" cx="164.7" cy="190.9" r="7.3"/>
	<circle class="st0" cx="187.1" cy="190.9" r="7.3"/>
	<circle class="st0" cx="209.6" cy="190.9" r="7.3"/>
	<circle class="st0" cx="232" cy="190.9" r="7.3"/>
	<circle class="st0" cx="254.4" cy="190.9" r="7.3"/>
	<circle class="st0" cx="277.1" cy="190.9" r="7.3"/>
	<circle class="st0" cx="546.7" cy="190.9" r="7.3"/>
	<circle class="st0" cx="569.1" cy="190.9" r="7.3"/>
	<circle class="st0" cx="591.6" cy="190.9" r="7.3"/>
	<circle class="st0" cx="614" cy="190.9" r="7.3"/>
	<circle class="st0" cx="682" cy="190.9" r="7.3"/>
	<circle class="st0" cx="704.4" cy="190.9" r="7.3"/>
	<circle class="st0" cx="726.8" cy="190.9" r="7.3"/>
	<circle class="st0" cx="749.3" cy="190.9" r="7.3"/>
	<circle class="st0" cx="771.7" cy="190.9" r="7.3"/>
	<circle class="st0" cx="794.1" cy="190.9" r="7.3"/>
	<circle class="st0" cx="817" cy="190.9" r="7.3"/>
	<circle class="st0" cx="839.5" cy="190.9" r="7.3"/>
	<circle class="st0" cx="861.9" cy="190.9" r="7.3"/>
	<circle class="st0" cx="884.3" cy="190.9" r="7.3"/>
	<circle class="st0" cx="906.7" cy="190.9" r="7.3"/>
	<circle class="st0" cx="929.1" cy="190.9" r="7.3"/>
	<circle class="st0" cx="951.5" cy="190.9" r="7.3"/>
	<circle class="st0" cx="974" cy="190.9" r="7.3"/>
	<circle class="st0" cx="996.7" cy="190.9" r="7.3"/>
	<circle class="st0" cx="1019.1" cy="190.9" r="7.3"/>
	<circle class="st0" cx="1041.6" cy="190.9" r="7.3"/>
	<circle class="st0" cx="1064" cy="190.9" r="7.3"/>
	<circle class="st0" cx="1108.8" cy="190.9" r="7.3"/>
	<circle class="st0" cx="1131.2" cy="190.9" r="7.3"/>
	<circle class="st0" cx="74.5" cy="213.8" r="7.3"/>
	<circle class="st0" cx="97.5" cy="213.8" r="7.3"/>
	<circle class="st0" cx="119.9" cy="213.8" r="7.3"/>
	<circle class="st0" cx="142.3" cy="213.8" r="7.3"/>
	<circle class="st0" cx="164.7" cy="213.8" r="7.3"/>
	<circle class="st0" cx="187.1" cy="213.8" r="7.3"/>
	<circle class="st0" cx="209.6" cy="213.8" r="7.3"/>
	<circle class="st0" cx="232" cy="213.8" r="7.3"/>
	<circle class="st0" cx="254.4" cy="213.8" r="7.3"/>
	<circle class="st0" cx="524.3" cy="213.8" r="7.3"/>
	<circle class="st0" cx="546.7" cy="213.8" r="7.3"/>
	<circle class="st0" cx="569.1" cy="213.8" r="7.3"/>
	<circle class="st0" cx="591.6" cy="213.8" r="7.3"/>
	<circle class="st0" cx="614" cy="213.8" r="7.3"/>
	<circle class="st0" cx="659.6" cy="213.8" r="7.3"/>
	<circle class="st0" cx="682" cy="213.8" r="7.3"/>
	<circle class="st0" cx="726.8" cy="213.8" r="7.3"/>
	<circle class="st0" cx="749.3" cy="213.8" r="7.3"/>
	<circle class="st0" cx="771.7" cy="213.8" r="7.3"/>
	<circle class="st0" cx="794.1" cy="213.8" r="7.3"/>
	<circle class="st0" cx="817" cy="213.8" r="7.3"/>
	<circle class="st0" cx="839.5" cy="213.8" r="7.3"/>
	<circle class="st0" cx="861.9" cy="213.8" r="7.3"/>
	<circle class="st0" cx="884.3" cy="213.8" r="7.3"/>
	<circle class="st0" cx="906.7" cy="213.8" r="7.3"/>
	<circle class="st0" cx="929.1" cy="213.8" r="7.3"/>
	<circle class="st0" cx="951.5" cy="213.8" r="7.3"/>
	<circle class="st0" cx="974" cy="213.8" r="7.3"/>
	<circle class="st0" cx="996.7" cy="213.8" r="7.3"/>
	<circle class="st0" cx="1019.1" cy="213.8" r="7.3"/>
	<circle class="st0" cx="1041.6" cy="213.8" r="7.3"/>
	<circle class="st0" cx="1064" cy="213.8" r="7.3"/>
	<circle class="st0" cx="1086.4" cy="213.8" r="7.3"/>
	<circle class="st0" cx="1108.8" cy="213.8" r="7.3"/>
	<circle class="st0" cx="1131.2" cy="213.8" r="7.3"/>
	<circle class="st0" cx="97.5" cy="236.7" r="7.3"/>
	<circle class="st0" cx="119.9" cy="236.7" r="7.3"/>
	<circle class="st0" cx="142.3" cy="236.7" r="7.3"/>
	<circle class="st0" cx="164.7" cy="236.7" r="7.3"/>
	<circle class="st0" cx="232" cy="236.7" r="7.3"/>
	<circle class="st0" cx="254.4" cy="236.7" r="7.3"/>
	<circle class="st0" cx="524.3" cy="236.7" r="7.3"/>
	<circle class="st0" cx="546.7" cy="236.7" r="7.3"/>
	<circle class="st0" cx="569.1" cy="236.7" r="7.3"/>
	<circle class="st0" cx="591.6" cy="236.7" r="7.3"/>
	<circle class="st0" cx="614" cy="236.7" r="7.3"/>
	<circle class="st0" cx="637.1" cy="236.7" r="7.3"/>
	<circle class="st0" cx="659.6" cy="236.7" r="7.3"/>
	<circle class="st0" cx="682" cy="236.7" r="7.3"/>
	<circle class="st0" cx="726.8" cy="236.7" r="7.3"/>
	<circle class="st0" cx="749.3" cy="236.7" r="7.3"/>
	<circle class="st0" cx="771.7" cy="236.7" r="7.3"/>
	<circle class="st0" cx="794.1" cy="236.7" r="7.3"/>
	<circle class="st0" cx="817" cy="236.7" r="7.3"/>
	<circle class="st0" cx="839.5" cy="236.7" r="7.3"/>
	<circle class="st0" cx="861.9" cy="236.7" r="7.3"/>
	<circle class="st0" cx="884.3" cy="236.7" r="7.3"/>
	<circle class="st0" cx="906.7" cy="236.7" r="7.3"/>
	<circle class="st0" cx="929.1" cy="236.7" r="7.3"/>
	<circle class="st0" cx="951.5" cy="236.7" r="7.3"/>
	<circle class="st0" cx="974" cy="236.7" r="7.3"/>
	<circle class="st0" cx="996.7" cy="236.7" r="7.3"/>
	<circle class="st0" cx="1019.1" cy="236.7" r="7.3"/>
	<circle class="st0" cx="1041.6" cy="236.7" r="7.3"/>
	<circle class="st0" cx="119.9" cy="259.8" r="7.3"/>
	<circle class="st0" cx="142.3" cy="259.8" r="7.3"/>
	<circle class="st0" cx="164.7" cy="259.8" r="7.3"/>
	<circle class="st0" cx="209.6" cy="259.8" r="7.3"/>
	<circle class="st0" cx="232" cy="259.8" r="7.3"/>
	<circle class="st0" cx="254.4" cy="259.8" r="7.3"/>
	<circle class="st0" cx="501.9" cy="259.8" r="7.3"/>
	<circle class="st0" cx="524.3" cy="259.8" r="7.3"/>
	<circle class="st0" cx="546.7" cy="259.8" r="7.3"/>
	<circle class="st0" cx="569.1" cy="259.8" r="7.3"/>
	<circle class="st0" cx="591.6" cy="259.8" r="7.3"/>
	<circle class="st0" cx="614" cy="259.8" r="7.3"/>
	<circle class="st0" cx="637.1" cy="259.8" r="7.3"/>
	<circle class="st0" cx="659.6" cy="259.8" r="7.3"/>
	<circle class="st0" cx="682" cy="259.8" r="7.3"/>
	<circle class="st0" cx="704.4" cy="259.8" r="7.3"/>
	<circle class="st0" cx="726.8" cy="259.8" r="7.3"/>
	<circle class="st0" cx="749.3" cy="259.8" r="7.3"/>
	<circle class="st0" cx="771.7" cy="259.8" r="7.3"/>
	<circle class="st0" cx="794.1" cy="259.8" r="7.3"/>
	<circle class="st0" cx="817" cy="259.8" r="7.3"/>
	<circle class="st0" cx="839.5" cy="259.8" r="7.3"/>
	<circle class="st0" cx="861.9" cy="259.8" r="7.3"/>
	<circle class="st0" cx="884.3" cy="259.8" r="7.3"/>
	<circle class="st0" cx="906.7" cy="259.8" r="7.3"/>
	<circle class="st0" cx="929.1" cy="259.8" r="7.3"/>
	<circle class="st0" cx="951.5" cy="259.8" r="7.3"/>
	<circle class="st0" cx="974" cy="259.8" r="7.3"/>
	<circle class="st0" cx="996.7" cy="259.8" r="7.3"/>
	<circle class="st0" cx="1019.1" cy="259.8" r="7.3"/>
	<circle class="st0" cx="1041.6" cy="259.8" r="7.3"/>
	<circle class="st0" cx="1064" cy="259.8" r="7.3"/>
	<circle class="st0" cx="142.3" cy="282.8" r="7.3"/>
	<circle class="st0" cx="164.7" cy="282.8" r="7.3"/>
	<circle class="st0" cx="187.1" cy="282.8" r="7.3"/>
	<circle class="st0" cx="209.6" cy="282.8" r="7.3"/>
	<circle class="st0" cx="277.1" cy="282.8" r="7.3"/>
	<circle class="st0" cx="501.9" cy="282.8" r="7.3"/>
	<circle class="st0" cx="524.3" cy="282.8" r="7.3"/>
	<circle class="st0" cx="546.7" cy="282.8" r="7.3"/>
	<circle class="st0" cx="569.1" cy="282.8" r="7.3"/>
	<circle class="st0" cx="591.6" cy="282.8" r="7.3"/>
	<circle class="st0" cx="614" cy="282.8" r="7.3"/>
	<circle class="st0" cx="637.1" cy="282.8" r="7.3"/>
	<circle class="st0" cx="659.6" cy="282.8" r="7.3"/>
	<circle class="st0" cx="682" cy="282.8" r="7.3"/>
	<circle class="st0" cx="704.4" cy="282.8" r="7.3"/>
	<circle class="st0" cx="749.3" cy="282.8" r="7.3"/>
	<circle class="st0" cx="771.7" cy="282.8" r="7.3"/>
	<circle class="st0" cx="794.1" cy="282.8" r="7.3"/>
	<circle class="st0" cx="861.9" cy="282.8" r="7.3"/>
	<circle class="st0" cx="884.3" cy="282.8" r="7.3"/>
	<circle class="st0" cx="906.7" cy="282.8" r="7.3"/>
	<circle class="st0" cx="951.5" cy="282.8" r="7.3"/>
	<circle class="st0" cx="974" cy="282.8" r="7.3"/>
	<circle class="st0" cx="996.7" cy="282.8" r="7.3"/>
	<circle class="st0" cx="1019.1" cy="282.8" r="7.3"/>
	<circle class="st0" cx="1064" cy="282.8" r="7.3"/>
	<circle class="st0" cx="1086.4" cy="282.8" r="7.3"/>
	<circle class="st0" cx="187.1" cy="305.7" r="7.3"/>
	<circle class="st0" cx="209.6" cy="305.7" r="7.3"/>
	<circle class="st0" cx="277.1" cy="305.7" r="7.3"/>
	<circle class="st0" cx="299.6" cy="305.7" r="7.3"/>
	<circle class="st0" cx="501.9" cy="305.7" r="7.3"/>
	<circle class="st0" cx="524.3" cy="305.7" r="7.3"/>
	<circle class="st0" cx="546.7" cy="305.7" r="7.3"/>
	<circle class="st0" cx="569.1" cy="305.7" r="7.3"/>
	<circle class="st0" cx="591.6" cy="305.7" r="7.3"/>
	<circle class="st0" cx="614" cy="305.7" r="7.3"/>
	<circle class="st0" cx="637.1" cy="305.7" r="7.3"/>
	<circle class="st0" cx="659.6" cy="305.7" r="7.3"/>
	<circle class="st0" cx="682" cy="305.7" r="7.3"/>
	<circle class="st0" cx="704.4" cy="305.7" r="7.3"/>
	<circle class="st0" cx="726.8" cy="305.7" r="7.3"/>
	<circle class="st0" cx="861.9" cy="305.7" r="7.3"/>
	<circle class="st0" cx="884.3" cy="305.7" r="7.3"/>
	<circle class="st0" cx="906.7" cy="305.7" r="7.3"/>
	<circle class="st0" cx="974" cy="305.7" r="7.3"/>
	<circle class="st0" cx="996.7" cy="305.7" r="7.3"/>
	<circle class="st0" cx="1019.1" cy="305.7" r="7.3"/>
	<circle class="st0" cx="1064" cy="305.7" r="7.3"/>
	<circle class="st0" cx="1086.4" cy="305.7" r="7.3"/>
	<circle class="st0" cx="187.1" cy="328.6" r="7.3"/>
	<circle class="st0" cx="209.6" cy="328.6" r="7.3"/>
	<circle class="st0" cx="232" cy="328.6" r="7.3"/>
	<circle class="st0" cx="254.4" cy="328.6" r="7.3"/>
	<circle class="st0" cx="277.1" cy="328.6" r="7.3"/>
	<circle class="st0" cx="299.6" cy="328.6" r="7.3"/>
	<circle class="st0" cx="322" cy="328.6" r="7.3"/>
	<circle class="st0" cx="524.3" cy="328.6" r="7.3"/>
	<circle class="st0" cx="546.7" cy="328.6" r="7.3"/>
	<circle class="st0" cx="569.1" cy="328.6" r="7.3"/>
	<circle class="st0" cx="591.6" cy="328.6" r="7.3"/>
	<circle class="st0" cx="614" cy="328.6" r="7.3"/>
	<circle class="st0" cx="637.1" cy="328.6" r="7.3"/>
	<circle class="st0" cx="659.6" cy="328.6" r="7.3"/>
	<circle class="st0" cx="682" cy="328.6" r="7.3"/>
	<circle class="st0" cx="704.4" cy="328.6" r="7.3"/>
	<circle class="st0" cx="726.8" cy="328.6" r="7.3"/>
	<circle class="st0" cx="749.3" cy="328.6" r="7.3"/>
	<circle class="st0" cx="771.7" cy="328.6" r="7.3"/>
	<circle class="st0" cx="884.3" cy="328.6" r="7.3"/>
	<circle class="st0" cx="974" cy="328.6" r="7.3"/>
	<circle class="st0" cx="996.7" cy="328.6" r="7.3"/>
	<circle class="st0" cx="1064" cy="328.6" r="7.3"/>
	<circle class="st0" cx="1086.4" cy="328.6" r="7.3"/>
	<circle class="st0" cx="232" cy="351.7" r="7.3"/>
	<circle class="st0" cx="254.4" cy="351.7" r="7.3"/>
	<circle class="st0" cx="277.1" cy="351.7" r="7.3"/>
	<circle class="st0" cx="299.6" cy="351.7" r="7.3"/>
	<circle class="st0" cx="322" cy="351.7" r="7.3"/>
	<circle class="st0" cx="344.4" cy="351.7" r="7.3"/>
	<circle class="st0" cx="614" cy="351.7" r="7.3"/>
	<circle class="st0" cx="637.1" cy="351.7" r="7.3"/>
	<circle class="st0" cx="659.6" cy="351.7" r="7.3"/>
	<circle class="st0" cx="682" cy="351.7" r="7.3"/>
	<circle class="st0" cx="704.4" cy="351.7" r="7.3"/>
	<circle class="st0" cx="726.8" cy="351.7" r="7.3"/>
	<circle class="st0" cx="749.3" cy="351.7" r="7.3"/>
	<circle class="st0" cx="974" cy="351.7" r="7.3"/>
	<circle class="st0" cx="996.7" cy="351.7" r="7.3"/>
	<circle class="st0" cx="1041.6" cy="351.7" r="7.3"/>
	<circle class="st0" cx="1064" cy="351.7" r="7.3"/>
	<circle class="st0" cx="1086.4" cy="351.7" r="7.3"/>
	<circle class="st0" cx="232" cy="374.7" r="7.3"/>
	<circle class="st0" cx="254.4" cy="374.7" r="7.3"/>
	<circle class="st0" cx="277.1" cy="374.7" r="7.3"/>
	<circle class="st0" cx="299.6" cy="374.7" r="7.3"/>
	<circle class="st0" cx="322" cy="374.7" r="7.3"/>
	<circle class="st0" cx="344.4" cy="374.7" r="7.3"/>
	<circle class="st0" cx="366.8" cy="374.7" r="7.3"/>
	<circle class="st0" cx="389.3" cy="374.7" r="7.3"/>
	<circle class="st0" cx="614" cy="374.7" r="7.3"/>
	<circle class="st0" cx="637.1" cy="374.7" r="7.3"/>
	<circle class="st0" cx="659.6" cy="374.7" r="7.3"/>
	<circle class="st0" cx="682" cy="374.7" r="7.3"/>
	<circle class="st0" cx="704.4" cy="374.7" r="7.3"/>
	<circle class="st0" cx="726.8" cy="374.7" r="7.3"/>
	<circle class="st0" cx="974" cy="374.7" r="7.3"/>
	<circle class="st0" cx="996.7" cy="374.7" r="7.3"/>
	<circle class="st0" cx="1041.6" cy="374.7" r="7.3"/>
	<circle class="st0" cx="1064" cy="374.7" r="7.3"/>
	<circle class="st0" cx="1086.4" cy="374.7" r="7.3"/>
	<circle class="st0" cx="1131.2" cy="374.7" r="7.3"/>
	<circle class="st0" cx="1153.7" cy="374.7" r="7.3"/>
	<circle class="st0" cx="1176.6" cy="374.7" r="7.3"/>
	<circle class="st0" cx="232" cy="397.5" r="7.3"/>
	<circle class="st0" cx="254.4" cy="397.5" r="7.3"/>
	<circle class="st0" cx="277.1" cy="397.5" r="7.3"/>
	<circle class="st0" cx="299.6" cy="397.5" r="7.3"/>
	<circle class="st0" cx="322" cy="397.5" r="7.3"/>
	<circle class="st0" cx="344.4" cy="397.5" r="7.3"/>
	<circle class="st0" cx="366.8" cy="397.5" r="7.3"/>
	<circle class="st0" cx="389.3" cy="397.5" r="7.3"/>
	<circle class="st0" cx="411.7" cy="397.5" r="7.3"/>
	<circle class="st0" cx="637.1" cy="397.5" r="7.3"/>
	<circle class="st0" cx="659.6" cy="397.5" r="7.3"/>
	<circle class="st0" cx="682" cy="397.5" r="7.3"/>
	<circle class="st0" cx="704.4" cy="397.5" r="7.3"/>
	<circle class="st0" cx="726.8" cy="397.5" r="7.3"/>
	<circle class="st0" cx="996.7" cy="397.5" r="7.3"/>
	<circle class="st0" cx="1019.1" cy="397.5" r="7.3"/>
	<circle class="st0" cx="1041.6" cy="397.5" r="7.3"/>
	<circle class="st0" cx="1064" cy="397.5" r="7.3"/>
	<circle class="st0" cx="1153.7" cy="397.5" r="7.3"/>
	<circle class="st0" cx="1176.6" cy="397.5" r="7.3"/>
	<circle class="st0" cx="1199" cy="397.5" r="7.3"/>
	<circle class="st0" cx="232" cy="420.5" r="7.3"/>
	<circle class="st0" cx="254.4" cy="420.5" r="7.3"/>
	<circle class="st0" cx="277.1" cy="420.5" r="7.3"/>
	<circle class="st0" cx="299.6" cy="420.5" r="7.3"/>
	<circle class="st0" cx="322" cy="420.5" r="7.3"/>
	<circle class="st0" cx="344.4" cy="420.5" r="7.3"/>
	<circle class="st0" cx="366.8" cy="420.5" r="7.3"/>
	<circle class="st0" cx="389.3" cy="420.5" r="7.3"/>
	<circle class="st0" cx="637.1" cy="420.5" r="7.3"/>
	<circle class="st0" cx="659.6" cy="420.5" r="7.3"/>
	<circle class="st0" cx="682" cy="420.5" r="7.3"/>
	<circle class="st0" cx="704.4" cy="420.5" r="7.3"/>
	<circle class="st0" cx="726.8" cy="420.5" r="7.3"/>
	<circle class="st0" cx="771.7" cy="420.5" r="7.3"/>
	<circle class="st0" cx="1108.8" cy="420.5" r="7.3"/>
	<circle class="st0" cx="1131.2" cy="420.5" r="7.3"/>
	<circle class="st0" cx="1199" cy="420.5" r="7.3"/>
	<circle class="st0" cx="254.4" cy="443.6" r="7.3"/>
	<circle class="st0" cx="277.1" cy="443.6" r="7.3"/>
	<circle class="st0" cx="299.6" cy="443.6" r="7.3"/>
	<circle class="st0" cx="322" cy="443.6" r="7.3"/>
	<circle class="st0" cx="344.4" cy="443.6" r="7.3"/>
	<circle class="st0" cx="366.8" cy="443.6" r="7.3"/>
	<circle class="st0" cx="389.3" cy="443.6" r="7.3"/>
	<circle class="st0" cx="614" cy="443.6" r="7.3"/>
	<circle class="st0" cx="637.1" cy="443.6" r="7.3"/>
	<circle class="st0" cx="659.6" cy="443.6" r="7.3"/>
	<circle class="st0" cx="682" cy="443.6" r="7.3"/>
	<circle class="st0" cx="704.4" cy="443.6" r="7.3"/>
	<circle class="st0" cx="726.8" cy="443.6" r="7.3"/>
	<circle class="st0" cx="749.3" cy="443.6" r="7.3"/>
	<circle class="st0" cx="771.7" cy="443.6" r="7.3"/>
	<circle class="st0" cx="1086.4" cy="443.6" r="7.3"/>
	<circle class="st0" cx="1108.8" cy="443.6" r="7.3"/>
	<circle class="st0" cx="1131.2" cy="443.6" r="7.3"/>
	<circle class="st0" cx="1153.7" cy="443.6" r="7.3"/>
	<circle class="st0" cx="1176.6" cy="443.6" r="7.3"/>
	<circle class="st0" cx="277.1" cy="466.5" r="7.3"/>
	<circle class="st0" cx="299.6" cy="466.5" r="7.3"/>
	<circle class="st0" cx="322" cy="466.5" r="7.3"/>
	<circle class="st0" cx="344.4" cy="466.5" r="7.3"/>
	<circle class="st0" cx="366.8" cy="466.5" r="7.3"/>
	<circle class="st0" cx="389.3" cy="466.5" r="7.3"/>
	<circle class="st0" cx="637.1" cy="466.5" r="7.3"/>
	<circle class="st0" cx="659.6" cy="466.5" r="7.3"/>
	<circle class="st0" cx="682" cy="466.5" r="7.3"/>
	<circle class="st0" cx="704.4" cy="466.5" r="7.3"/>
	<circle class="st0" cx="749.3" cy="466.5" r="7.3"/>
	<circle class="st0" cx="771.7" cy="466.5" r="7.3"/>
	<circle class="st0" cx="1041.6" cy="466.5" r="7.3"/>
	<circle class="st0" cx="1064" cy="466.5" r="7.3"/>
	<circle class="st0" cx="1086.4" cy="466.5" r="7.3"/>
	<circle class="st0" cx="1108.8" cy="466.5" r="7.3"/>
	<circle class="st0" cx="1131.2" cy="466.5" r="7.3"/>
	<circle class="st0" cx="1153.7" cy="466.5" r="7.3"/>
	<circle class="st0" cx="1176.6" cy="466.5" r="7.3"/>
	<circle class="st0" cx="277.1" cy="489.3" r="7.3"/>
	<circle class="st0" cx="299.6" cy="489.3" r="7.3"/>
	<circle class="st0" cx="322" cy="489.3" r="7.3"/>
	<circle class="st0" cx="344.4" cy="489.3" r="7.3"/>
	<circle class="st0" cx="366.8" cy="489.3" r="7.3"/>
	<circle class="st0" cx="637.1" cy="489.3" r="7.3"/>
	<circle class="st0" cx="659.6" cy="489.3" r="7.3"/>
	<circle class="st0" cx="682" cy="489.3" r="7.3"/>
	<circle class="st0" cx="704.4" cy="489.3" r="7.3"/>
	<circle class="st0" cx="749.3" cy="489.3" r="7.3"/>
	<circle class="st0" cx="1041.6" cy="489.3" r="7.3"/>
	<circle class="st0" cx="1064" cy="489.3" r="7.3"/>
	<circle class="st0" cx="1086.4" cy="489.3" r="7.3"/>
	<circle class="st0" cx="1108.8" cy="489.3" r="7.3"/>
	<circle class="st0" cx="1131.2" cy="489.3" r="7.3"/>
	<circle class="st0" cx="1153.7" cy="489.3" r="7.3"/>
	<circle class="st0" cx="1176.6" cy="489.3" r="7.3"/>
	<circle class="st0" cx="1199" cy="489.3" r="7.3"/>
	<circle class="st0" cx="277.1" cy="512.2" r="7.3"/>
	<circle class="st0" cx="299.6" cy="512.2" r="7.3"/>
	<circle class="st0" cx="322" cy="512.2" r="7.3"/>
	<circle class="st0" cx="344.4" cy="512.2" r="7.3"/>
	<circle class="st0" cx="366.8" cy="512.2" r="7.3"/>
	<circle class="st0" cx="637.1" cy="512.2" r="7.3"/>
	<circle class="st0" cx="659.6" cy="512.2" r="7.3"/>
	<circle class="st0" cx="682" cy="512.2" r="7.3"/>
	<circle class="st0" cx="1019.1" cy="512.2" r="7.3"/>
	<circle class="st0" cx="1041.6" cy="512.2" r="7.3"/>
	<circle class="st0" cx="1064" cy="512.2" r="7.3"/>
	<circle class="st0" cx="1086.4" cy="512.2" r="7.3"/>
	<circle class="st0" cx="1108.8" cy="512.2" r="7.3"/>
	<circle class="st0" cx="1131.2" cy="512.2" r="7.3"/>
	<circle class="st0" cx="1153.7" cy="512.2" r="7.3"/>
	<circle class="st0" cx="1176.6" cy="512.2" r="7.3"/>
	<circle class="st0" cx="277.1" cy="535.3" r="7.3"/>
	<circle class="st0" cx="299.6" cy="535.3" r="7.3"/>
	<circle class="st0" cx="322" cy="535.3" r="7.3"/>
	<circle class="st0" cx="344.4" cy="535.3" r="7.3"/>
	<circle class="st0" cx="637.1" cy="535.3" r="7.3"/>
	<circle class="st0" cx="659.6" cy="535.3" r="7.3"/>
	<circle class="st0" cx="1019.1" cy="535.3" r="7.3"/>
	<circle class="st0" cx="1041.6" cy="535.3" r="7.3"/>
	<circle class="st0" cx="1064" cy="535.3" r="7.3"/>
	<circle class="st0" cx="1086.4" cy="535.3" r="7.3"/>
	<circle class="st0" cx="1108.8" cy="535.3" r="7.3"/>
	<circle class="st0" cx="1131.2" cy="535.3" r="7.3"/>
	<circle class="st0" cx="1153.7" cy="535.3" r="7.3"/>
	<circle class="st0" cx="1176.6" cy="535.3" r="7.3"/>
	<circle class="st0" cx="1243.9" cy="535.3" r="7.3"/>
	<circle class="st0" cx="1266.3" cy="535.3" r="7.3"/>
	<circle class="st0" cx="277.1" cy="558.3" r="7.3"/>
	<circle class="st0" cx="299.6" cy="558.3" r="7.3"/>
	<circle class="st0" cx="322" cy="558.3" r="7.3"/>
	<circle class="st0" cx="1131.2" cy="558.3" r="7.3"/>
	<circle class="st0" cx="1153.7" cy="558.3" r="7.3"/>
	<circle class="st0" cx="1221.4" cy="558.3" r="7.3"/>
	<circle class="st0" cx="1243.9" cy="558.3" r="7.3"/>
	<circle class="st0" cx="1266.3" cy="558.3" r="7.3"/>
	<circle class="st0" cx="299.6" cy="581.2" r="7.3"/>
	<circle class="st0" cx="322" cy="581.2" r="7.3"/>
	<circle class="st0" cx="1199" cy="581.2" r="7.3"/>
	<circle class="st0" cx="1221.4" cy="581.2" r="7.3"/>
	<circle class="st0" cx="299.6" cy="604.1" r="7.3"/>
	<circle class="st0" cx="322" cy="604.1" r="7.3"/>
	<circle class="st0" cx="322" cy="627.2" r="7.3"/>
</g>
</svg>
