<?xml version="1.0" encoding="utf-8"?>
<!-- Generator: Adobe Illustrator 25.4.1, SVG Export Plug-In . SVG Version: 6.00 Build 0)  -->
<svg version="1.1" id="Warstwa_1" xmlns="http://www.w3.org/2000/svg" xmlns:xlink="http://www.w3.org/1999/xlink" x="0px" y="0px"
	 viewBox="0 0 101.9 61.9" style="enable-background:new 0 0 101.9 61.9;" xml:space="preserve">
<style type="text/css">
	.st0{fill:#92D35E;}
</style>
<path class="st0" d="M100.3,27L74.9,1.6c-2.1-2.1-5.6-2.1-7.8,0c-2.1,2.1-2.1,5.6,0,7.8L82.7,25H6c-3.3,0-6,2.7-6,6s2.7,6,6,6h76.7
	L67.1,52.5c-2.1,2.1-2.1,5.6,0,7.8c2.1,2.1,5.6,2.1,7.8,0l25.4-25.4c1.1-1.1,1.6-2.5,1.6-3.9C101.9,29.5,101.4,28.1,100.3,27z"/>
</svg>
