<?xml version="1.0" encoding="utf-8"?>
<!-- Generator: Adobe Illustrator 25.4.1, SVG Export Plug-In . SVG Version: 6.00 Build 0)  -->
<svg version="1.1" id="Warstwa_1" xmlns="http://www.w3.org/2000/svg" xmlns:xlink="http://www.w3.org/1999/xlink" x="0px" y="0px"
	 viewBox="0 0 55.1 78.1" style="enable-background:new 0 0 55.1 78.1;" xml:space="preserve">
<style type="text/css">
	.st0{fill:#4B4B4B;}
	.st1{fill:#92D35E;}
</style>
<path class="st0" d="M48.9,10C48,9,47,8,46,7c-5.9-5.2-13.7-7.7-21.6-6.9C9.4,1.8-1.5,15.3,0.2,30.3c0.8,7.2,4.3,13.7,9.9,18.3
	c1.7,1.4,2.6,3.5,2.6,5.7v11c0,7.1,5.8,12.8,12.9,12.8h4c7.1,0,12.9-5.7,12.9-12.8v-11c0-2.3,1-4.4,2.7-5.9
	C56.8,38.8,58.4,21.6,48.9,10z M29.5,73.5h-4c-2.1,0-4.2-0.8-5.8-2.3h15.5C33.7,72.6,31.7,73.5,29.5,73.5z M37.9,65.3
	c0,0.4-0.1,0.9-0.1,1.3H17.4c-0.1-0.4-0.1-0.9-0.1-1.3v-1h20.7V65.3z M42.3,44.9c-2.8,2.3-4.4,5.8-4.4,9.4v5.4h-8V45.9
	c0-0.7-0.3-1.4-0.9-1.8l-10-7.7c-0.4-0.4-0.6-1-0.6-1.6v-0.3c0-1.3,1.1-2.4,2.5-2.4c0.6,0,1.1,0.4,1.5,0.8c1.9,2.9,5.9,3.7,8.8,1.7
	c0.7-0.5,1.3-1,1.7-1.7c0.4-0.5,0.9-0.8,1.6-0.8H35c0.5,0,0.9,0.2,1.2,0.5c1.7,2-1.4,5.1-1.4,5.1l0,0L30.5,42l3.2,3.3l5.7-5.6
	c0,0,0.1-0.1,0.2-0.3c0,0,0.1-0.1,0.1-0.1c0.6-0.8,1.9-2.9,1.6-5.4c0-3.5-2.8-6.3-6.3-6.3h-1c-2.1,0-3.8,1.2-5,2.9
	c-0.5,0.8-1.6,1-2.4,0.5c-0.2-0.1-0.4-0.3-0.5-0.5c-0.8-1.2-2-2.2-3.4-2.6c-4.7-1.3-9,2.2-9,6.7v0.3c0,1.9,0.7,3.6,2.1,4.9
	c0.1,0.1,0.1,0.1,0.2,0.2l9.2,7.1v12.6h-8v-5.4c0.1-3.6-1.5-7-4.3-9.3c-5.9-4.8-9-12.3-8.3-19.9C5.8,14.4,14.2,5.9,24.9,4.7
	c0.9-0.1,1.8-0.1,2.7-0.1c12.6-0.1,22.8,10,22.9,22.6C50.6,34,47.5,40.5,42.3,44.9z"/>
</svg>
