<?xml version="1.0" encoding="utf-8"?>
<!-- Generator: Adobe Illustrator 25.4.1, SVG Export Plug-In . SVG Version: 6.00 Build 0)  -->
<svg version="1.1" id="Warstwa_1" xmlns="http://www.w3.org/2000/svg" xmlns:xlink="http://www.w3.org/1999/xlink" x="0px" y="0px"
	 viewBox="0 0 41.9 44.7" style="enable-background:new 0 0 41.9 44.7;" xml:space="preserve">
<style type="text/css">
	.st0{fill:#92D35E;}
	.st1{fill:#4B4B4B;}
</style>
<g>
	<circle class="st0" cx="15.9" cy="23.6" r="15.9"/>
	<g>
		<path class="st1" d="M32.2,3.1C30.3,1.2,27.6,0,24.7,0c-2.9,0-5.6,1.2-7.5,3.1C15.2,5.1,14,7.7,14,10.7c0,2.8,1.1,6,3,8.4l0,0
			c2.1,2.7,4.8,4.2,7.6,4.2c2.8,0,5.5-1.5,7.6-4.2l0,0c1.9-2.4,3-5.6,3-8.4C35.3,7.7,34.1,5.1,32.2,3.1z M16.1,9.5
			c0.6-4.2,4.2-7.4,8.5-7.4c4.1,0,7.6,2.9,8.4,6.8l0.1,0.4l-0.4-0.2c-3-1.1-4.6-3.2-4.7-3.3l0,0l0,0l-0.8-1l-0.8,1
			c-3,3.5-7.5,4-9.8,4l-0.2,0l-0.3,0L16.1,9.5z M30.7,17.9L30.7,17.9L30.7,17.9C30.7,17.9,30.7,17.9,30.7,17.9
			c-1.7,2.2-3.8,3.4-6,3.4c-2.2,0-4.3-1.2-6-3.4c0,0,0,0,0,0l0,0c0,0,0,0,0,0c-1.3-1.7-2.2-3.8-2.5-5.8l0-0.3l0.3,0
			c0.1,0,0.2,0,0.3,0c2.5,0,6.9-0.5,10.3-3.7L27.2,8l0.2,0.2c1.1,1,3,2.5,5.7,3.3l0.2,0.1l0,0.2C33,13.8,32.1,16,30.7,17.9z"/>
		<path class="st1" d="M40.3,32.6c-0.5-2.7-2.5-4.9-5.2-5.6l-6.5-1.9h-7.8L14.2,27c-2.7,0.8-4.7,2.9-5.2,5.6l-1.6,8
			c0,0.2-0.1,0.4-0.1,0.7c0,0.8,0.3,1.5,0.8,2.1c0.7,0.8,1.6,1.2,2.6,1.2h7.6H31h7.6c1,0,2-0.5,2.6-1.2c0.5-0.6,0.8-1.4,0.8-2.1
			c0-0.2,0-0.4-0.1-0.7l0,0L40.3,32.6z M26.8,27.2l-1,2.4l-0.1,0.2h-2.3l-1.1-2.6H26.8z M10.8,42.7c-0.5,0-0.9-0.3-1-0.5
			c-0.1-0.1-0.3-0.4-0.3-0.8c0-0.1,0-0.2,0-0.3v0l1.6-8c0.4-2,1.8-3.5,3.7-4.1l0,0l0,0l0,0l5.5-1.6l1.4,3.5l-2.6,11.8H10.8z
			 M21.5,42.7h-0.3l2.4-10.8h2l2.4,10.8H21.5z M39.6,42.2L39.6,42.2c-0.1,0.2-0.5,0.5-1,0.5h-8.3l-2.6-11.8l1.4-3.5l5.5,1.6l0,0l0,0
			l0,0c1.9,0.5,3.4,2.1,3.7,4.1v0l1.6,8l0,0c0,0.1,0,0.2,0,0.3C39.9,41.8,39.7,42,39.6,42.2z"/>
	</g>
</g>
</svg>
