<?xml version="1.0" encoding="utf-8"?>
<!-- Generator: Adobe Illustrator 25.4.1, SVG Export Plug-In . SVG Version: 6.00 Build 0)  -->
<svg version="1.1" id="Warstwa_1" xmlns="http://www.w3.org/2000/svg" xmlns:xlink="http://www.w3.org/1999/xlink" x="0px" y="0px"
	 viewBox="0 0 50 43.6" style="enable-background:new 0 0 50 43.6;" xml:space="preserve">
<style type="text/css">
	.st0{fill:#92D35E;}
	.st1{fill:#4B4B4B;}
</style>
<g>
	<circle class="st0" cx="15.9" cy="22.1" r="15.9"/>
	<g>
		<path class="st1" d="M6.4,38.7c0,1.3,0.5,2.6,1.4,3.4c0.9,0.9,2.1,1.4,3.4,1.4h33.9c1.3,0,2.6-0.5,3.4-1.4
			c0.9-0.9,1.4-2.1,1.4-3.4V4.9c0-1.3-0.5-2.6-1.4-3.4C47.7,0.5,46.4,0,45.1,0H11.2C9.9,0,8.7,0.5,7.8,1.4C6.9,2.3,6.4,3.5,6.4,4.9
			V38.7z M8.6,4.9c0-1.5,1.2-2.7,2.7-2.7h33.9c1.5,0,2.7,1.2,2.7,2.7v10.1v0.1H8.6V4.9z M8.6,17.3h39.2v21.5h-0.1l0.1,0
			c0,1.5-1.2,2.7-2.7,2.7H11.2c-1.5,0-2.7-1.2-2.7-2.7V17.3z"/>
		<path class="st1" d="M14.1,8.7c0,0.7,0.6,1.3,1.3,1.3c0.7,0,1.3-0.6,1.3-1.3c0-0.7-0.6-1.3-1.3-1.3C14.7,7.4,14.1,8,14.1,8.7z"/>
		<path class="st1" d="M19,8.7c0,0.7,0.6,1.3,1.3,1.3c0.7,0,1.3-0.6,1.3-1.3c0-0.7-0.6-1.3-1.3-1.3C19.6,7.4,19,8,19,8.7z"/>
		<path class="st1" d="M23.9,8.7c0,0.7,0.6,1.3,1.3,1.3c0.7,0,1.3-0.6,1.3-1.3c0-0.7-0.6-1.3-1.3-1.3C24.5,7.4,23.9,8,23.9,8.7z"/>
		<path class="st1" d="M27.2,31.4l-0.7-0.7l-0.1-0.1l-0.1,0l-0.1,0L26,30.7l0,0c-0.1,0.1-0.2,0.2-0.4,0.3c-0.1,0.1-0.3,0.1-0.4,0.2
			c-0.1,0-0.3,0.1-0.4,0.1c-0.2,0-0.3,0-0.5,0c-0.3,0-0.6-0.1-0.9-0.2c-0.3-0.1-0.6-0.3-0.8-0.6c-0.2-0.2-0.4-0.6-0.5-0.9
			c-0.1-0.4-0.2-0.8-0.2-1.2c0-0.4,0.1-0.8,0.2-1.2c0.1-0.4,0.3-0.7,0.5-0.9c0.2-0.3,0.5-0.4,0.8-0.6c0.3-0.1,0.7-0.2,1-0.2
			c0.2,0,0.4,0,0.6,0.1c0.2,0,0.3,0.1,0.4,0.1c0.1,0,0.2,0.1,0.3,0.2l0,0l0,0l0.2,0.1l0.2,0.1l0.2,0c0.1,0,0.1,0,0.2,0l0.1-0.1
			l0.6-0.8c-0.1-0.1-0.3-0.3-0.5-0.4c-0.2-0.1-0.4-0.3-0.7-0.4c-0.2-0.1-0.5-0.2-0.8-0.2c-0.3-0.1-0.6-0.1-0.9-0.1
			c-0.7,0-1.3,0.1-1.8,0.3c-0.5,0.2-1,0.5-1.4,0.9c-0.4,0.4-0.7,0.8-0.9,1.4c-0.2,0.5-0.3,1.1-0.3,1.7c0,0.6,0.1,1.2,0.3,1.7
			c0.2,0.5,0.5,1,0.8,1.4c0.4,0.4,0.8,0.7,1.3,0.9c0.5,0.2,1.1,0.3,1.7,0.3c0.7,0,1.3-0.1,1.8-0.3C26.5,32.1,26.9,31.8,27.2,31.4z"
			/>
		<path class="st1" d="M34.7,24.1c-0.1,0-0.3,0-0.3,0.1c-0.1,0.1-0.2,0.2-0.2,0.2l0,0l-1.7,4.6l0,0c-0.1,0.2-0.1,0.4-0.2,0.7
			c-0.1,0.2-0.1,0.5-0.2,0.7L32,31l-0.1-0.5c-0.1-0.3-0.1-0.5-0.2-0.7c-0.1-0.2-0.2-0.5-0.2-0.7l0,0l-1.7-4.6c0-0.1-0.1-0.2-0.2-0.3
			c-0.1-0.1-0.2-0.1-0.4-0.1h-1.4l3.4,8.4h1.7l3.4-8.4H34.7z"/>
	</g>
</g>
</svg>
