<?xml version="1.0" encoding="utf-8"?>
<!-- Generator: Adobe Illustrator 25.4.1, SVG Export Plug-In . SVG Version: 6.00 Build 0)  -->
<svg version="1.1" id="Warstwa_1" xmlns="http://www.w3.org/2000/svg" xmlns:xlink="http://www.w3.org/1999/xlink" x="0px" y="0px"
	 viewBox="0 0 31.5 22.5" style="enable-background:new 0 0 31.5 22.5;" xml:space="preserve">
<style type="text/css">
	.st0{fill:#F37474;}
</style>
<g>
	<g>
		<path class="st0" d="M8.2,15.7c-0.6,0.8-1.5,1.2-2.8,1.2c-1.3,0-2.5-0.6-3.6-1.8C0.6,13.9,0,12.5,0,10.9c0-1.6,0.6-3,1.7-4.2
			c1.1-1.2,2.4-1.8,3.7-1.8c0.5,0,1,0.1,1.4,0.3c0.4,0.2,0.7,0.4,0.9,0.5C8,5.9,8.1,6.1,8.2,6.2c0-0.4,0.2-0.8,0.5-1S9.4,4.9,10,4.9
			s1.1,0,1.3,0.1c0.3,0.1,0.5,0.3,0.6,0.5c0.1,0.2,0.2,0.4,0.2,0.6c0,0.2,0,0.4,0,0.8v9.7c0,1.8-0.6,3.2-1.9,4.3
			C9,22,7.6,22.5,6.1,22.5c-1.2,0-2.3-0.3-3.4-0.9c-1.1-0.6-1.6-1.1-1.6-1.6c0-0.6,0.2-1.1,0.7-1.6c0.3-0.3,0.5-0.6,0.7-0.7
			c0.2-0.1,0.4-0.2,0.6-0.2c0.2,0,0.4,0.1,0.7,0.3c0.7,0.6,1.6,0.9,2.4,0.9c0.6,0,1.1-0.2,1.4-0.7c0.4-0.5,0.6-1,0.6-1.7V15.7z
			 M4,10.9c0,0.5,0.2,1,0.6,1.4s0.9,0.6,1.4,0.6s1-0.2,1.4-0.6C7.8,11.8,8,11.4,8,10.9c0-0.5-0.2-0.9-0.5-1.4C7.1,9.1,6.6,8.9,6,8.9
			S4.9,9.1,4.6,9.5S4,10.4,4,10.9z"/>
		<path class="st0" d="M15.2,6.4c1.3-1.2,2.8-1.8,4.5-1.8c1.7,0,3.2,0.6,4.5,1.8c1.3,1.2,1.9,2.7,1.9,4.6c0,1.3-0.3,2.4-1,3.4
			c-0.7,1-1.5,1.7-2.4,2.2c-1,0.5-2,0.7-3,0.7s-2-0.3-3-0.8c-1-0.5-1.8-1.3-2.4-2.2s-1-2.1-1-3.4C13.2,9.2,13.9,7.7,15.2,6.4z
			 M18.1,12.7c0.5,0.4,1,0.6,1.5,0.6c0.5,0,1-0.2,1.5-0.6c0.5-0.4,0.8-1,0.8-1.7c0-0.8-0.2-1.3-0.7-1.7c-0.5-0.4-1-0.6-1.6-0.6
			s-1.1,0.2-1.6,0.6c-0.5,0.4-0.7,1-0.7,1.7S17.6,12.4,18.1,12.7z"/>
		<path class="st0" d="M27.3,13.7c0.2-0.3,0.4-0.5,0.7-0.6c0.3-0.1,0.8-0.2,1.5-0.2s1.2,0.1,1.5,0.4c0.3,0.3,0.5,0.8,0.5,1.4v0.4
			c0,0.4,0,0.7,0,0.8c0,0.2-0.1,0.4-0.2,0.6c-0.2,0.5-0.8,0.7-1.8,0.7s-1.6-0.2-1.9-0.5s-0.5-0.9-0.5-1.8
			C27.1,14.4,27.2,14,27.3,13.7z M30.5,10.9c-0.3,0.1-0.7,0.1-1.2,0.1c-0.5,0-0.9,0-1.2-0.1c-0.3-0.1-0.5-0.2-0.6-0.4
			c-0.1-0.2-0.2-0.4-0.2-0.5c0-0.2,0-0.4,0-0.7V1.8c0-0.3,0-0.6,0-0.7c0-0.2,0.1-0.3,0.2-0.5c0.1-0.2,0.3-0.3,0.6-0.4
			C28.4,0,28.8,0,29.3,0c0.5,0,0.9,0,1.2,0.1c0.3,0.1,0.5,0.2,0.6,0.4s0.2,0.4,0.2,0.6c0,0.2,0,0.4,0,0.7v7.4c0,0.3,0,0.6,0,0.7
			c0,0.2-0.1,0.3-0.2,0.5C31,10.7,30.8,10.9,30.5,10.9z"/>
	</g>
</g>
</svg>
