<?xml version="1.0" encoding="utf-8"?>
<!-- Generator: Adobe Illustrator 25.4.1, SVG Export Plug-In . SVG Version: 6.00 Build 0)  -->
<svg version="1.1" id="Warstwa_1" xmlns="http://www.w3.org/2000/svg" xmlns:xlink="http://www.w3.org/1999/xlink" x="0px" y="0px"
	 viewBox="0 0 85.2 85.2" style="enable-background:new 0 0 85.2 85.2;" xml:space="preserve">
<style type="text/css">
	.st0{fill:#4B4B4B;}
	.st1{fill:#92D35E;}
</style>
<g>
	<path class="st0" d="M24.7,70.8l46.1-46.1L60.5,14.4L14.4,60.5L24.7,70.8z M40.3,61.4L26.2,75.5L25.5,76L3.1,85
		c-1.8,0.7-3.6-1.1-2.9-2.9l9-22.4l0.5-0.8l14.1-14.1L0.7,21.8c-0.9-0.9-0.9-2.3,0-3.2L18.6,0.7c0.9-0.9,2.3-0.9,3.2,0l23.1,23.1
		L66.6,2c2.6-2.6,6.9-2.6,9.5,0l7.1,7.1c2.6,2.6,2.6,6.9,0,9.5L61.4,40.3l23.1,23.1c0.9,0.9,0.9,2.3,0,3.2L66.6,84.5
		c-0.9,0.9-2.3,0.9-3.2,0L40.3,61.4z M43.5,58.3L65,79.7L79.7,65l-5.8-5.8L71,62.1c-2.1,2.1-5.3-1.1-3.2-3.2l2.9-2.9L65,50.2
		l-7.4,7.4c-2.1,2.1-5.3-1.1-3.2-3.2l7.4-7.4l-3.6-3.6L43.5,58.3L43.5,58.3z M26.9,41.6l14.8-14.8l-3.6-3.6l-2.9,2.9
		c-2.1,2.1-5.3-1.1-3.2-3.2l2.9-2.9l-5.8-5.8l-7.4,7.4c-2.1,2.1-5.3-1.1-3.2-3.2l7.4-7.4l-5.8-5.8L5.4,20.2L26.9,41.6L26.9,41.6z
		 M20.7,73.1L12,64.5L6.3,78.9L20.7,73.1L20.7,73.1z M63.7,11.2l10.3,10.3l6.1-6.1c0.9-0.9,0.9-2.3,0-3.2l-7.1-7.1
		c-0.9-0.9-2.3-0.9-3.2,0L63.7,11.2L63.7,11.2z"/>
</g>
</svg>
