<?xml version="1.0" encoding="utf-8"?>
<!-- Generator: Adobe Illustrator 25.4.1, SVG Export Plug-In . SVG Version: 6.00 Build 0)  -->
<svg version="1.1" id="Warstwa_1" xmlns="http://www.w3.org/2000/svg" xmlns:xlink="http://www.w3.org/1999/xlink" x="0px" y="0px"
	 viewBox="0 0 83.3 69.3" style="enable-background:new 0 0 83.3 69.3;" xml:space="preserve">
<style type="text/css">
	.st0{fill:#92D35E;}
	.st1{fill:#4B4B4B;}
</style>
<g>
	<path class="st1" d="M65.3,35.4C65.4,35.4,65.4,35.4,65.3,35.4c0.1-0.1,0.1-0.2,0.2-0.2C65.6,35.1,65.6,35.1,65.3,35.4z"/>
	<path class="st1" d="M68.8,39.5c2-2.2,3.2-5,3.2-8c0,0,0,0,0,0c0,0,0,0,0,0s0,0,0,0c0,0,0,0,0,0c0-3-1.2-5.8-3.2-8
		c-1.4-1.5-3.2-2.5-5.1-3.1c0-1,0-1.9,0-2.9c0-2.6,0-5.1,0-7.7c0-1.5,0-3,0-4.5c0-0.2,0-0.4,0-0.6c0-0.1,0-0.1,0-0.2
		c-0.1-2-1.4-3.6-3.2-4.3c-1.3-0.5-3-0.3-4.1,0.5C56,1,55.6,1.3,55.2,1.6c-2.1,1.5-4.1,3-6.2,4.5c-2.7,2-5.4,3.9-8.1,5.9
		c-2,1.5-4,2.9-6.1,4.4c-0.2,0.1-0.3,0.2-0.5,0.3c-1.5,0-3,0-4.5,0c-3.8,0-7.5,0-11.3,0c-3.3,0-6.6,0-9.9,0c-0.8,0-1.5,0-2.3,0
		c-2.9,0-5.8,2-6.3,5C0,22.7,0,23.8,0,25c0,1.7,0,3.4,0,5.1c0,3.2,0,6.4,0,9.6c0,0.6,0,1.3,0.2,1.9c0.4,2,1.9,3.6,3.7,4.3
		c1.1,0.5,2.2,0.5,3.4,0.5c0.6,0,1.2,0,1.8,0c0.1,0.8,0.3,1.5,0.4,2.3c0.5,2.9,0.9,5.8,1.4,8.7c0.4,2.4,0.8,4.7,1.2,7.1
		c0.1,0.5,0.1,1,0.3,1.5c0.7,1.9,2.3,3.2,4.4,3.3c0.3,0,0.6,0,0.9,0c2.5,0,5,0,7.5,0c0.1,0,0.1,0,0.2,0c0.2,0,0.4,0,0.6-0.1
		c1.1-0.1,2.2-0.6,3-1.5c0.9-1,1.4-2.3,1.3-3.6c0-0.5-0.1-1-0.2-1.4c-0.2-1.4-0.5-2.9-0.7-4.3c-0.7-4-1.3-8.1-2-12.1
		c0,0,0.1,0,0.1,0c2.3,0,4.7,0,7,0c0.7,0.5,1.4,1,2,1.5c2.4,1.7,4.8,3.5,7.2,5.2c2.6,1.9,5.3,3.8,7.9,5.7c1.5,1.1,3.1,2.2,4.6,3.3
		c1.9,1.3,4.5,1.1,6.1-0.5c1-1,1.4-2.3,1.4-3.6c0-1.3,0-2.6,0-3.9c0-2.4,0-4.9,0-7.3c0-1.4,0-2.7,0-4.1C65.6,42.1,67.4,41,68.8,39.5
		z M63.9,26.3c0.1,0.1,0.2,0.1,0.2,0.2c0.2,0.2,0.4,0.4,0.6,0.6c0.2,0.2,0.4,0.4,0.5,0.6c0,0,0-0.1-0.1-0.1c0,0,0.1,0.1,0.1,0.1
		c0,0,0,0,0,0c0,0.1,0.1,0.1,0.1,0.2c0,0,0,0,0,0c0.2,0.4,0.5,0.8,0.7,1.2c0.2,0.6,0.4,1.3,0.5,1.9c0,0.2,0,0.4,0,0.6
		c0,0.3,0,0.6-0.1,0.9c-0.1,0.6-0.3,1.1-0.5,1.7c-0.2,0.4-0.4,0.8-0.6,1.1c0,0,0,0,0,0c0,0.1-0.1,0.1-0.1,0.2c0,0,0,0,0,0
		c0,0.1-0.1,0.1-0.1,0.2c0,0,0.1-0.1,0.1-0.1c-0.2,0.2-0.3,0.4-0.5,0.6c-0.2,0.2-0.4,0.4-0.6,0.5c-0.1,0.1-0.1,0.1-0.2,0.2
		c-0.1,0.1-0.2,0.1-0.3,0.2c0-3.2,0-6.5,0-9.7c0-0.3,0-0.7,0-1C63.8,26.2,63.8,26.2,63.9,26.3z M17.3,64c-0.1-0.6-0.2-1.3-0.3-1.9
		c-0.3-1.7-0.5-3.3-0.8-5c-0.6-3.6-1.2-7.2-1.8-10.8c0.5,0,0.9,0,1.4,0c2,0,4.1,0,6.1,0c0.3,1.7,0.5,3.3,0.8,5
		c0.6,3.7,1.2,7.3,1.8,11c0.1,0.6,0.2,1.1,0.3,1.7c-2.3,0-4.6,0-6.9,0C17.7,64,17.5,64,17.3,64z M25.4,41c-5.2,0-10.4,0-15.6,0
		c-0.8,0-1.7,0-2.5,0c-0.3,0-0.7,0-1,0c-0.1,0-0.1,0-0.2,0c-0.1-0.1-0.2-0.1-0.3-0.2c0,0-0.1,0-0.1-0.1c0,0-0.1-0.1-0.1-0.1
		c0-0.1-0.1-0.1-0.1-0.2c0-0.1-0.1-0.2-0.1-0.4c0-0.5,0-1.1,0-1.6c0-1.4,0-2.7,0-4.1c0-3.1,0-6.2,0-9.3c0-0.7,0-1.4,0-2.1
		c0-0.1,0-0.2,0.1-0.2c0.1-0.1,0.1-0.2,0.2-0.3c0,0,0-0.1,0.1-0.1c0,0,0.1-0.1,0.1-0.1c0.1,0,0.1-0.1,0.2-0.1C6.1,22,6.2,22,6.3,22
		c0.9-0.1,1.8,0,2.7,0c2.3,0,4.6,0,6.8,0c5.2,0,10.5,0,15.7,0c0.3,0,0.7,0,1,0c0,1.9,0,3.7,0,5.6c0,3.9,0,7.8,0,11.7
		c0,0.6,0,1.2,0,1.8C30.2,41,27.8,41,25.4,41z M51.6,52.3c-4.1-2.9-8.1-5.9-12.2-8.8c-0.5-0.4-1-0.7-1.5-1.1c0-2.3,0-4.6,0-6.9
		c0-4.4,0-8.8,0-13.1c0-0.6,0-1.1,0-1.7c2.1-1.5,4.3-3.1,6.4-4.6c4-2.9,8.1-5.8,12.1-8.8c0.7-0.5,1.3-0.9,2-1.4c0,1.4,0,2.9,0,4.3
		c0,4.1,0,8.2,0,12.3c0,0,0,0.1,0,0.1c0,2,0,4.1,0,6.1c0,3.2,0,6.4,0,9.7c0,0.7,0,1.5,0,2.2c0,0,0,0.1,0,0.1c0,3.7,0,7.5,0,11.2
		c0,1.8,0,3.6,0,5.4c-0.5-0.4-1-0.7-1.4-1.1C55.1,54.8,53.4,53.6,51.6,52.3z"/>
	<path class="st1" d="M65.5,27.8c0-0.1-0.1-0.1-0.1-0.2c0,0,0,0,0,0C65.6,27.9,65.6,27.9,65.5,27.8z"/>
	<path class="st1" d="M78.8,17.7c-2.3-3.1-5.3-5.6-8.9-7.2c-0.7-0.3-1.3-0.5-2-0.3c-0.6,0.2-1.3,0.6-1.6,1.2c-0.6,1.2-0.4,3,1,3.6
		c1.2,0.5,2.3,1.2,3.4,1.9c0.2,0.2,0.5,0.3,0.7,0.5c0,0-0.1-0.1-0.1-0.1c0,0,0,0,0.1,0c0.1,0.1,0.3,0.2,0.4,0.3
		c0.5,0.4,0.9,0.8,1.4,1.3c0.4,0.4,0.8,0.9,1.2,1.4c0.1,0.1,0.2,0.3,0.3,0.4c-0.1-0.2-0.2-0.2-0.2-0.3c0.1,0.1,0.2,0.2,0.2,0.3
		c0.2,0.2,0.3,0.5,0.5,0.7c0.7,1,1.2,2.1,1.7,3.2c0.6,1.4,1,2.9,1.2,4.4c0.2,1.6,0.2,3.2,0,4.8c-0.2,1.5-0.6,3-1.2,4.4
		c-0.5,1.1-1,2.2-1.7,3.2c-0.2,0.2-0.3,0.5-0.5,0.7c-0.1,0.2-0.5,0.7,0,0c-0.1,0.1-0.2,0.3-0.3,0.4c-0.4,0.5-0.8,0.9-1.2,1.4
		c-0.4,0.4-0.9,0.9-1.4,1.3c-0.1,0.1-0.3,0.2-0.4,0.3c0,0,0,0,0,0c0,0,0.1,0,0.1-0.1c0,0-0.1,0.1-0.1,0.1c-0.1,0-0.1,0.1-0.2,0.1
		c-0.1,0.1-0.3,0.2-0.4,0.3c-1.1,0.7-2.2,1.4-3.4,1.9c-0.6,0.3-1.1,1-1.2,1.6c-0.2,0.6-0.1,1.5,0.3,2s0.9,1.1,1.6,1.2
		c0.7,0.2,1.4,0,2-0.3c6.2-2.8,10.9-8.4,12.7-15C84.4,30.8,83,23.3,78.8,17.7z"/>
	<path class="st1" d="M71.2,45.5c-0.4,0.3-0.3,0.2-0.2,0.2C71.1,45.6,71.1,45.6,71.2,45.5C71.2,45.5,71.2,45.5,71.2,45.5z"/>
	<path class="st1" d="M74.3,20.6C74.3,20.5,74.2,20.5,74.3,20.6L74.3,20.6z"/>
	<path class="st1" d="M71.2,17.5C71,17.3,70.7,17.1,71.2,17.5L71.2,17.5z"/>
</g>
</svg>
