<?xml version="1.0" encoding="utf-8"?>
<!-- Generator: Adobe Illustrator 25.4.1, SVG Export Plug-In . SVG Version: 6.00 Build 0)  -->
<svg version="1.1" id="Warstwa_1" xmlns="http://www.w3.org/2000/svg" xmlns:xlink="http://www.w3.org/1999/xlink" x="0px" y="0px"
	 viewBox="0 0 79.2 80.9" style="enable-background:new 0 0 79.2 80.9;" xml:space="preserve">
<style type="text/css">
	.st0{fill:#4B4B4B;}
	.st1{fill:#92D35E;}
</style>
<g>
	<path class="st0" d="M63.8,20.6H74c2.9,0,5.2-2.3,5.2-5.2V5.2C79.2,2.3,76.9,0,74,0H63.8c-2.9,0-5.2,2.3-5.2,5.2v2.6h-3.4
		c-6,0-10.7,4.9-10.7,10.7v19.3h-9.3c-1.2-8.6-8.5-15.3-17.5-15.3C7.9,22.7,0,30.7,0,40.5s7.9,17.7,17.7,17.7
		c8.9,0,16.3-6.6,17.5-15.3h9.3v19.3c0,6,4.9,10.7,10.7,10.7h3.4v2.6c0,2.9,2.3,5.2,5.2,5.2H74c2.9,0,5.2-2.3,5.2-5.2V65.4
		c0-2.9-2.3-5.2-5.2-5.2H63.8c-2.9,0-5.2,2.3-5.2,5.2v2.6h-3.4c-3.2,0-5.9-2.6-5.9-5.9V42.9h9.3v2.6c0,2.9,2.3,5.2,5.2,5.2H74
		c2.9,0,5.2-2.3,5.2-5.2V35.4c0-2.9-2.3-5.2-5.2-5.2H63.8c-2.9,0-5.2,2.3-5.2,5.2V38h-9.3V18.7c0-3.2,2.6-5.9,5.9-5.9h3.4v2.6
		C58.6,18.3,60.9,20.6,63.8,20.6z M17.7,53.3c-7.1,0-12.9-5.8-12.9-12.9s5.8-12.9,12.9-12.9s12.9,5.8,12.9,12.9S24.8,53.3,17.7,53.3
		z M63.8,65.2H74c0.2,0,0.3,0.2,0.3,0.3L74,76.1l-10.6-0.3L63.8,65.2z M63.8,35H74c0.2,0,0.3,0.2,0.3,0.3L74,45.9l-10.6-0.3L63.8,35
		z M63.8,4.9H74c0.2,0,0.3,0.2,0.3,0.3L74,15.8l-10.6-0.3L63.8,4.9z"/>
	<path class="st0" d="M21,36l-5,5.4l-1.8-2c-0.9-1-2.5-1-3.4-0.1c-1,0.9-1,2.5-0.1,3.4l3.6,3.8c0.4,0.5,1.1,0.8,1.8,0.8
		c0.7,0,1.3-0.3,1.8-0.8l6.8-7.3c0.9-1,0.9-2.6-0.1-3.4C23.4,34.9,21.9,35,21,36z"/>
</g>
</svg>
