<?xml version="1.0" encoding="utf-8"?>
<!-- Generator: Adobe Illustrator 25.4.1, SVG Export Plug-In . SVG Version: 6.00 Build 0)  -->
<svg version="1.1" id="Warstwa_1" xmlns="http://www.w3.org/2000/svg" xmlns:xlink="http://www.w3.org/1999/xlink" x="0px" y="0px"
	 viewBox="0 0 28.8 40.6" style="enable-background:new 0 0 28.8 40.6;" xml:space="preserve">
<style type="text/css">
	.st0{fill:#92D35E;}
</style>
<path class="st0" d="M28.8,14.4C28.8,6.4,22.3,0,14.4,0C6.5,0,0.1,6.4,0,14.2c0,0.1,0,0.4,0,0.8c0,1.3,0.3,4.1,2.1,8.1
	c1.8,4,5.2,9.2,11.4,15.3l2.2,2.2V28.7C23,28,28.8,21.9,28.8,14.4z M14.4,26.1h-1.3v8.1C8.5,29.3,5.9,25.1,4.5,22
	c-1.7-3.7-1.9-6-1.9-7c0-0.2,0-0.3,0-0.4l0-0.1l0,0l0-0.1v-0.1c0-3.2,1.3-6.2,3.4-8.3c2.1-2.1,5.1-3.4,8.3-3.4
	c3.2,0,6.2,1.3,8.3,3.4c2.1,2.1,3.4,5.1,3.4,8.3c0,3.2-1.3,6.2-3.4,8.3C20.6,24.8,17.6,26.1,14.4,26.1z"/>
</svg>
