<?xml version="1.0" encoding="utf-8"?>
<!-- Generator: Adobe Illustrator 25.4.1, SVG Export Plug-In . SVG Version: 6.00 Build 0)  -->
<svg version="1.1" id="Warstwa_1" xmlns="http://www.w3.org/2000/svg" xmlns:xlink="http://www.w3.org/1999/xlink" x="0px" y="0px"
	 viewBox="0 0 44.8 48" style="enable-background:new 0 0 44.8 48;" xml:space="preserve">
<style type="text/css">
	.st0{fill:#92D35E;}
	.st1{fill:#4B4B4B;}
</style>
<g>
	<circle class="st0" cx="15.9" cy="26.7" r="15.9"/>
	<g>
		<path class="st1" d="M43.8,5h-9V4c0-0.6-0.4-1-1-1h-3.1c-0.6-2.1-2.7-3.4-4.9-2.9c-1.4,0.4-2.5,1.5-2.9,2.9h-3.1c-0.6,0-1,0.4-1,1
			v1h-9c-0.6,0-1,0.4-1,1v41c0,0.6,0.4,1,1,1h34c0.6,0,1-0.4,1-1V6C44.8,5.4,44.3,5,43.8,5z M20.8,5h3c0.6,0,1-0.4,1-1
			c0-1.1,0.9-2,2-2s2,0.9,2,2c0,0.6,0.4,1,1,1h3v2h-12V5z M42.8,46h-32V7h8v1c0,0.6,0.4,1,1,1h14c0.6,0,1-0.4,1-1V7h8V46z"/>
		<path class="st1" d="M20.8,35h-6c-0.6,0-1,0.4-1,1v6c0,0.6,0.4,1,1,1h6c0.6,0,1-0.4,1-1v-6C21.8,35.4,21.3,35,20.8,35z M19.8,41
			h-4v-4h4V41z"/>
		<path class="st1" d="M20.8,24h-6c-0.6,0-1,0.4-1,1v6c0,0.6,0.4,1,1,1h6c0.6,0,1-0.4,1-1v-6C21.8,24.4,21.3,24,20.8,24z M19.8,30
			h-4v-4h4V30z"/>
		<path class="st1" d="M38.8,18h-13c-0.6,0-1,0.4-1,1s0.4,1,1,1h13c0.6,0,1-0.4,1-1S39.3,18,38.8,18z"/>
		<path class="st1" d="M25.8,14c-0.6,0-1,0.4-1,1s0.4,1,1,1h13c0.6,0,1-0.4,1-1s-0.4-1-1-1H25.8z"/>
		<path class="st1" d="M38.8,29h-13c-0.6,0-1,0.4-1,1s0.4,1,1,1h13c0.6,0,1-0.4,1-1S39.3,29,38.8,29z"/>
		<path class="st1" d="M38.8,25h-13c-0.6,0-1,0.4-1,1s0.4,1,1,1h13c0.6,0,1-0.4,1-1S39.3,25,38.8,25z"/>
		<path class="st1" d="M38.8,40h-13c-0.6,0-1,0.4-1,1s0.4,1,1,1h13c0.6,0,1-0.4,1-1S39.3,40,38.8,40z"/>
		<path class="st1" d="M38.8,36h-13c-0.6,0-1,0.4-1,1s0.4,1,1,1h13c0.6,0,1-0.4,1-1S39.3,36,38.8,36z"/>
		<path class="st1" d="M20.1,14.3l-3.3,3.3l-1.3-1.3c-0.4-0.4-1-0.4-1.4,0s-0.4,1,0,1.4c3.3,3.3,2,3.4,7.4-2c0.4-0.4,0.4-1,0-1.4
			C21.1,13.9,20.4,13.9,20.1,14.3z"/>
	</g>
</g>
</svg>
