<?xml version="1.0" encoding="utf-8"?>
<!-- Generator: Adobe Illustrator 25.4.1, SVG Export Plug-In . SVG Version: 6.00 Build 0)  -->
<svg version="1.1" id="Warstwa_1" xmlns="http://www.w3.org/2000/svg" xmlns:xlink="http://www.w3.org/1999/xlink" x="0px" y="0px"
	 viewBox="0 0 20.8 26.6" style="enable-background:new 0 0 20.8 26.6;" xml:space="preserve">
<style type="text/css">
	.st0{fill:#22718E;}
</style>
<g>
	<path class="st0" d="M15,14.1c0.7-0.5,1.3-1.1,1.8-1.7c0.5-0.6,0.9-1.4,1.1-2.2c0.3-0.8,0.4-1.6,0.4-2.5c0-1.1-0.2-2.2-0.6-3.1
		c-0.4-0.9-1-1.7-1.8-2.4c-0.8-0.7-1.9-1.2-3.2-1.6C11.5,0.2,9.9,0,8.1,0H0v26.6h4.9V16.2c0,0,4.7,0,7.5-1
		C13.4,15,14.3,14.6,15,14.1z M10.5,12.3C9.8,12.5,9,12.7,8,12.7H4.9V3.8h3.2c1.8,0,3.2,0.4,4.1,1.1c0.9,0.7,1.3,1.8,1.3,3.1
		c0,0.7-0.1,1.3-0.3,1.9c-0.2,0.6-0.6,1.1-1,1.5C11.7,11.8,11.2,12.1,10.5,12.3z"/>
	<path class="st0" d="M15.1,18c-1.6,1.1-3.7,1.1-4.7,1.2l4.1,6.5c0.2,0.3,0.5,0.6,0.8,0.7c0.3,0.2,0.7,0.3,1.1,0.3h4.5L15.1,18z"/>
</g>
</svg>
