<svg width="20" height="20" viewBox="0 0 20 20" fill="none" xmlns="http://www.w3.org/2000/svg">
<path d="M10 13.75C12.0711 13.75 13.75 12.0711 13.75 10C13.75 7.92893 12.0711 6.25 10 6.25C7.92893 6.25 6.25 7.92893 6.25 10C6.25 12.0711 7.92893 13.75 10 13.75Z" stroke="white" stroke-width="1.5" stroke-linecap="round" stroke-linejoin="round"/>
<path d="M15.8335 2.08333H4.16683C3.01624 2.08333 2.0835 3.01607 2.0835 4.16666V15.8333C2.0835 16.9839 3.01624 17.9167 4.16683 17.9167H15.8335C16.9841 17.9167 17.9168 16.9839 17.9168 15.8333V4.16666C17.9168 3.01607 16.9841 2.08333 15.8335 2.08333Z" stroke="white" stroke-width="1.5" stroke-linecap="round" stroke-linejoin="round"/>
<path d="M14.7917 5.62501C15.0218 5.62501 15.2083 5.43846 15.2083 5.20834C15.2083 4.97822 15.0218 4.79167 14.7917 4.79167C14.5615 4.79167 14.375 4.97822 14.375 5.20834C14.375 5.43846 14.5615 5.62501 14.7917 5.62501Z" stroke="white" stroke-width="1.5" stroke-linecap="round" stroke-linejoin="round"/>
<path d="M14.7915 5.83333C15.1367 5.83333 15.4165 5.55351 15.4165 5.20833C15.4165 4.86315 15.1367 4.58333 14.7915 4.58333C14.4463 4.58333 14.1665 4.86315 14.1665 5.20833C14.1665 5.55351 14.4463 5.83333 14.7915 5.83333Z" stroke="white" stroke-width="1.5" stroke-linecap="round" stroke-linejoin="round"/>
<path d="M14.7917 5.46876C14.9355 5.46876 15.0521 5.35216 15.0521 5.20834C15.0521 5.06451 14.9355 4.94792 14.7917 4.94792C14.6478 4.94792 14.5312 5.06451 14.5312 5.20834C14.5312 5.35216 14.6478 5.46876 14.7917 5.46876Z" stroke="white" stroke-width="1.5" stroke-linecap="round" stroke-linejoin="round"/>
<path d="M14.7917 5.3125C14.8492 5.3125 14.8958 5.26587 14.8958 5.20834C14.8958 5.15081 14.8492 5.10417 14.7917 5.10417C14.7341 5.10417 14.6875 5.15081 14.6875 5.20834C14.6875 5.26587 14.7341 5.3125 14.7917 5.3125Z" stroke="white" stroke-width="1.5" stroke-linecap="round" stroke-linejoin="round"/>
</svg>
