<svg width="20" height="20" viewBox="0 0 20 20" fill="none" xmlns="http://www.w3.org/2000/svg">
<path d="M18 5.54067C17.4007 5.80624 16.765 5.98052 16.114 6.05771C16.8 5.64744 17.3133 5.00158 17.5581 4.24068C16.9134 4.62316 16.2081 4.89255 15.4726 5.03717C14.9777 4.50996 14.3227 4.1607 13.6091 4.04349C12.8955 3.92627 12.1632 4.04765 11.5256 4.38882C10.888 4.72998 10.3807 5.2719 10.0823 5.9306C9.78391 6.5893 9.71106 7.32802 9.87505 8.03232C8.56894 7.96737 7.29112 7.62833 6.12461 7.03723C4.95811 6.44613 3.92903 5.6162 3.10425 4.60137C2.68492 5.32494 2.55716 6.18115 2.747 6.99561C2.93683 7.81008 3.42999 8.52156 4.12603 8.98516C3.60461 8.96874 3.0947 8.82776 2.63892 8.57399C2.63892 8.58753 2.63892 8.60107 2.63892 8.61584C2.63893 9.37388 2.90114 10.1086 3.38108 10.6953C3.86103 11.2821 4.52915 11.6847 5.27214 11.835C4.79045 11.9662 4.28519 11.9855 3.79488 11.8917C4.00449 12.544 4.41279 13.1145 4.96264 13.5233C5.51249 13.9321 6.17638 14.1587 6.86143 14.1716C5.48279 15.2461 3.73562 15.7328 2 15.5257C3.50129 16.4913 5.24882 17.0041 7.03378 17.003C13.0733 17.003 16.375 12 16.375 7.66054C16.375 7.51774 16.3717 7.37617 16.3652 7.23583C17.0064 6.7723 17.56 6.19828 18 5.54067Z" fill="white"/>
</svg>
