<svg width="24" height="18" viewBox="0 0 24 18" fill="none" xmlns="http://www.w3.org/2000/svg">
<path d="M23.4986 3.22346C23.2226 2.1908 22.4094 1.37766 21.3768 1.10166C19.505 0.600098 12 0.600098 12 0.600098C12 0.600098 4.49498 0.600098 2.62317 1.10166C1.5907 1.37766 0.777375 2.1908 0.501422 3.22346C0 5.09508 0 9.00024 0 9.00024C0 9.00024 0 12.9053 0.501422 14.7767C0.777375 15.8094 1.5907 16.6228 2.62317 16.8987C4.49498 17.4001 12 17.4001 12 17.4001C12 17.4001 19.505 17.4001 21.3768 16.8987C22.4094 16.6228 23.2226 15.8094 23.4986 14.7767C24 12.9053 24 9.00024 24 9.00024C24 9.00024 24 5.09508 23.4986 3.22346V3.22346ZM9.59986 12.6003V5.40014L15.8351 9.00024L9.59986 12.6003Z" fill="white"/>
</svg>
