<svg width="244" height="55" viewBox="0 0 244 55" fill="none" xmlns="http://www.w3.org/2000/svg">
<path fill-rule="evenodd" clip-rule="evenodd" d="M54.7605 49.6478L57.9406 42.6639C58.2681 41.9623 58.5799 41.2297 59.7645 41.2297C59.7645 41.2297 59.3125 41.947 58.985 42.6639L54.2461 53.0771L49.5069 42.6639C49.1794 41.947 48.7273 41.2297 48.7273 41.2297C50.8944 41.2297 51.2372 41.9623 51.5647 42.6639L54.7605 49.6478Z" fill="white"/>
<path fill-rule="evenodd" clip-rule="evenodd" d="M63.3493 52.2978H61.4788V42.9443C61.4788 42.1651 61.4788 41.2292 63.5052 41.2292C63.5052 41.2292 63.3493 42.1651 63.3493 42.9443V52.2978Z" fill="white"/>
<path fill-rule="evenodd" clip-rule="evenodd" d="M69.5693 42.1493C68.0729 42.1493 67.3556 42.9442 67.3556 43.8177C67.3556 44.2537 67.5738 44.6592 67.9946 44.8621L71.892 46.7636C73.0613 47.3402 73.607 48.2918 73.607 49.2421C73.607 50.8012 72.1568 52.3756 69.5537 52.3756C68.3064 52.3756 67.2154 52.3134 65.7656 52.2977L66.5917 51.1287C67.5272 51.3469 68.6495 51.4872 69.538 51.4872C71.2683 51.4872 72.0792 50.614 72.0792 49.8035C72.0792 49.3518 71.8297 48.915 71.331 48.6816L67.5115 46.7945C66.4672 46.2806 65.9211 45.2828 65.9211 44.2694C65.9211 42.7886 67.0904 41.3079 69.5693 41.3079C70.676 41.3079 71.7983 41.3701 73.077 41.3858C73.077 41.4943 73.0613 42.4298 71.939 42.4298C71.0035 42.2739 70.2709 42.1493 69.5693 42.1493Z" fill="white"/>
<path fill-rule="evenodd" clip-rule="evenodd" d="M77.4257 46.3739H82.4924V42.9443C82.4924 42.1651 82.4924 41.2292 84.5185 41.2292C84.5185 41.2292 84.363 42.1651 84.363 42.9443V50.7551C84.363 51.5339 84.5185 52.4541 84.5185 52.4541C82.4924 52.4541 82.4924 51.5186 82.4924 50.7395V47.3098H77.4257V50.7395C77.4257 51.5186 77.4257 52.4541 75.3992 52.4541C75.3992 52.4541 75.5551 51.5339 75.5551 50.7551V42.9443C75.5551 42.1651 75.3992 41.2292 75.3992 41.2292C77.4257 41.2292 77.4257 42.1651 77.4257 42.9443V46.3739Z" fill="white"/>
<path fill-rule="evenodd" clip-rule="evenodd" d="M94.4487 40.6057L98.6265 49.3356L100.949 42.7258C101.199 41.9933 101.511 41.2294 102.602 41.2294C102.602 41.2294 102.227 41.9776 101.963 42.7258L98.3457 53.0771L93.9966 43.8951L89.8653 53.0771L86.2484 42.7258C85.9836 41.9776 85.6095 41.2294 85.6095 41.2294C87.6829 41.2294 87.9321 41.9933 88.1973 42.7258L90.5203 49.3513L94.4487 40.6057Z" fill="white"/>
<path fill-rule="evenodd" clip-rule="evenodd" d="M105.298 47.3092H108.291L106.795 44.0363L105.298 47.3092ZM108.712 48.2451H104.877L103.615 51.0202C103.287 51.7214 102.976 52.4535 101.791 52.4535C101.791 52.4535 102.243 51.7367 102.57 51.0202L107.309 40.6062L112.048 51.0202C112.376 51.7367 112.828 52.4535 112.828 52.4535C110.661 52.4535 110.318 51.7214 109.991 51.0202L108.712 48.2451Z" fill="white"/>
<path fill-rule="evenodd" clip-rule="evenodd" d="M124.316 49.6478L127.496 42.6639C127.824 41.9623 128.136 41.2297 129.32 41.2297C129.32 41.2297 128.868 41.947 128.541 42.6639L123.802 53.0771L119.063 42.6639C118.736 41.947 118.284 41.2297 118.284 41.2297C120.45 41.2297 120.793 41.9623 121.121 42.6639L124.316 49.6478Z" fill="white"/>
<path fill-rule="evenodd" clip-rule="evenodd" d="M132.906 52.2978H131.035V42.9443C131.035 42.1651 131.035 41.2292 133.061 41.2292C133.061 41.2292 132.906 42.1651 132.906 42.9443V52.2978Z" fill="white"/>
<path fill-rule="evenodd" clip-rule="evenodd" d="M137.738 42.196V51.4876C138.408 51.5033 139.001 51.5339 139.593 51.5339C141.994 51.5339 143.023 49.5074 143.023 46.8412C143.023 44.2072 141.807 42.1494 139.593 42.1494C138.923 42.1494 138.33 42.196 137.738 42.196ZM139.577 41.3071C142.805 41.3071 144.972 43.739 144.972 46.8412C144.972 49.9438 142.805 52.3757 139.577 52.3757C138.112 52.3757 136.912 52.2977 135.711 52.2977C135.711 52.2977 135.868 51.4563 135.868 50.7394V42.9442C135.868 42.165 135.711 41.3859 135.711 41.3859C137.006 41.3702 138.284 41.3071 139.577 41.3071Z" fill="white"/>
<path fill-rule="evenodd" clip-rule="evenodd" d="M151.675 46.0933C151.363 46.5144 151.254 47.341 151.254 47.855V52.2981H149.383V47.855C149.383 47.341 149.274 46.764 148.962 46.3432L146.421 42.9755C145.969 42.3675 144.8 41.2295 144.8 41.2295C147.372 41.2295 147.886 41.9158 148.401 42.6014L150.739 45.6883L153.093 42.5395C153.576 41.8845 154.075 41.2295 155.603 41.2295C155.603 41.2295 154.668 42.1187 154.215 42.7259L151.675 46.0933Z" fill="white"/>
<path fill-rule="evenodd" clip-rule="evenodd" d="M158.331 47.3092H161.324L159.827 44.0363L158.331 47.3092ZM161.745 48.2451H157.91L156.647 51.0202C156.32 51.7214 156.008 52.4535 154.823 52.4535C154.823 52.4535 155.275 51.7367 155.603 51.0202L160.342 40.6062L165.08 51.0202C165.408 51.7367 165.861 52.4535 165.861 52.4535C163.693 52.4535 163.35 51.7214 163.024 51.0202L161.745 48.2451Z" fill="white"/>
<path fill-rule="evenodd" clip-rule="evenodd" d="M168.978 42.165V46.639C169.586 46.67 170.256 46.6857 170.693 46.6857C171.831 46.6857 172.782 45.8442 172.782 44.3317C172.782 42.8662 171.831 42.1337 170.693 42.1337C170.131 42.1337 169.571 42.165 168.978 42.165ZM174.683 44.3317C174.683 46.1874 173 47.4182 171.005 47.4182C170.334 47.4182 169.648 47.3716 168.978 47.3716V50.7394C168.978 51.5185 168.978 52.454 166.952 52.454C166.952 52.454 167.108 51.5185 167.108 50.7394V42.9442C167.108 42.165 166.952 41.3858 166.952 41.3858H169.212C169.555 41.3858 169.82 41.3858 170.1 41.3702C170.381 41.3702 170.677 41.3545 171.005 41.3545C173 41.3545 174.683 42.4612 174.683 44.3317Z" fill="white"/>
<path fill-rule="evenodd" clip-rule="evenodd" d="M178.347 51.3624H182.556C183.647 51.3624 183.647 52.2983 183.647 52.2983H176.32C176.32 52.2983 176.476 51.5336 176.476 50.7545V42.9448C176.476 42.1648 176.32 41.3853 176.32 41.3853H183.647C183.647 41.3853 183.647 42.3207 182.556 42.3207H178.347V46.3744H182.244V47.3091H178.347V51.3624Z" fill="white"/>
<path fill-rule="evenodd" clip-rule="evenodd" d="M187.544 51.3624H191.753C192.844 51.3624 192.844 52.2983 192.844 52.2983H185.517C185.517 52.2983 185.674 51.5336 185.674 50.7545V42.9448C185.674 42.1648 185.517 41.3853 185.517 41.3853H192.844C192.844 41.3853 192.844 42.3207 191.753 42.3207H187.544V46.3744H191.442V47.3091H187.544V51.3624Z" fill="white"/>
<path fill-rule="evenodd" clip-rule="evenodd" d="M193.623 41.3855H204.068C204.068 41.4478 204.053 42.3523 203.289 42.3523C202.307 42.337 201.792 42.2904 200.654 42.2904H199.859V52.2978H197.832V42.2904H197.037C195.9 42.2904 195.385 42.337 194.403 42.3523C193.639 42.3523 193.623 41.4478 193.623 41.3855Z" fill="white"/>
<path fill-rule="evenodd" clip-rule="evenodd" d="M207.185 46.3739H212.252V42.9443C212.252 42.1651 212.252 41.2292 214.278 41.2292C214.278 41.2292 214.123 42.1651 214.123 42.9443V50.7551C214.123 51.5339 214.278 52.4541 214.278 52.4541C212.252 52.4541 212.252 51.5186 212.252 50.7395V47.3098H207.185V50.7395C207.185 51.5186 207.185 52.4541 205.159 52.4541C205.159 52.4541 205.315 51.5339 205.315 50.7551V42.9443C205.315 42.1651 205.159 41.2292 205.159 41.2292C207.185 41.2292 207.185 42.1651 207.185 42.9443V46.3739Z" fill="white"/>
<path fill-rule="evenodd" clip-rule="evenodd" d="M218.877 47.3092H221.871L220.374 44.0363L218.877 47.3092ZM222.291 48.2451H218.456L217.194 51.0202C216.866 51.7214 216.554 52.4535 215.37 52.4535C215.37 52.4535 215.822 51.7367 216.149 51.0202L220.888 40.6062L225.627 51.0202C225.954 51.7367 226.407 52.4535 226.407 52.4535C224.24 52.4535 223.897 51.7214 223.57 51.0202L222.291 48.2451Z" fill="white"/>
<path fill-rule="evenodd" clip-rule="evenodd" d="M234.871 53.0771L230.693 44.3472L228.37 50.957C228.121 51.6899 227.81 52.4534 226.718 52.4534C226.718 52.4534 227.092 51.7052 227.357 50.957L230.974 40.6057L235.323 49.7881L239.455 40.6057L243.071 50.957C243.336 51.7052 243.71 52.4534 243.71 52.4534C241.637 52.4534 241.388 51.6899 241.123 50.957L238.8 44.3323L234.871 53.0771Z" fill="white"/>
<path fill-rule="evenodd" clip-rule="evenodd" d="M59.7379 21.8729L63.9961 12.5194L68.2766 21.8729H59.7379ZM65.5293 0.963135L51.406 31.9974C50.7569 33.4194 49.4971 35.5567 48.7273 36.8271L49.083 36.8263C51.9584 36.8263 53.2871 35.4744 54.1834 33.9145C54.4717 33.4135 54.715 32.8905 54.9508 32.3844L55.0249 32.2257L58.5215 24.5445H69.4992L73.017 32.232C74.0218 34.3854 75.1606 36.8263 81.9753 36.8263L82.3357 36.8318C82.3357 36.8318 80.6281 34.1339 79.6523 31.9974L65.5293 0.963135Z" fill="white"/>
<path fill-rule="evenodd" clip-rule="evenodd" d="M123 0.962891L110.688 28.3271L97.7263 0.962891L86.948 31.8113C86.1579 34.0414 84.7715 36.8263 84.7715 36.8263H85.0434C88.8472 36.8263 89.8383 33.9161 90.4917 31.9954L96.9687 13.5635L109.357 39.449L120.984 13.5632L127.478 32.0824C128.281 34.3059 129.192 36.8263 135.682 36.8263H135.944C135.944 36.8263 134.568 34.0414 133.778 31.8113L123 0.962891Z" fill="white"/>
<path fill-rule="evenodd" clip-rule="evenodd" d="M171.355 7.53705V36.7286H178.041V7.53705C178.041 5.28847 178.494 2.54513 178.498 2.51771L178.605 1.87134H177.95C171.355 1.87134 171.355 5.14588 171.355 7.53705Z" fill="white"/>
<path fill-rule="evenodd" clip-rule="evenodd" d="M212.244 5.31152C214.516 5.31152 215.122 3.15226 215.122 1.87598H182.904H182.885C182.885 3.15226 183.491 5.31152 185.771 5.31152C186.975 5.29233 187.953 5.25707 188.9 5.22338C190.299 5.17285 191.621 5.12584 193.614 5.12584H195.428V36.7003H202.578V5.12584H204.392C206.385 5.12584 207.707 5.17285 209.107 5.22338C210.053 5.25707 211.031 5.29233 212.244 5.31152Z" fill="white"/>
<path fill-rule="evenodd" clip-rule="evenodd" d="M163.224 33.0722L154.348 21.1927C159.737 20.2631 164.041 16.3434 163.726 10.6022C163.428 5.17505 158.529 1.87622 152.582 1.87622C148.169 1.87622 144.081 2.0623 140.039 2.0623C140.039 2.0623 140.503 4.38491 140.503 6.70792L140.32 31.7246C140.32 34.048 139.856 36.8352 139.856 36.8352C145.896 36.8352 145.896 34.048 145.896 31.7246L146.078 4.52398C148.541 4.52398 150.074 4.42448 151.653 4.43153C155.175 4.44642 157.942 6.95237 158.339 10.695C158.778 14.8271 157.341 17.9009 154.339 19.2587C152.134 20.1566 147.343 20.0261 147.343 20.0261L157.149 33.203C158.543 35.061 160.437 36.8352 166.522 36.8352C166.522 36.8352 164.85 35.2557 163.224 33.0722Z" fill="white"/>
<path fill-rule="evenodd" clip-rule="evenodd" d="M221.071 21.8729L225.33 12.5194L229.611 21.8729H221.071ZM240.986 31.9974L226.863 0.963135L212.74 31.9974C212.09 33.4194 210.831 35.5567 210.061 36.8271L210.417 36.8263C213.292 36.8263 214.621 35.4744 215.517 33.9145C215.806 33.4135 216.049 32.8905 216.284 32.3844L216.359 32.2257L219.855 24.5445H230.833L234.351 32.232C235.356 34.3854 236.494 36.8263 243.309 36.8263L243.67 36.8318C243.67 36.8318 241.962 34.1339 240.986 31.9974Z" fill="white"/>
<path fill-rule="evenodd" clip-rule="evenodd" d="M27.8394 27.2698L27.173 27.4896C27.3787 27.6102 27.6525 27.7054 28.0611 27.7054C28.0842 27.7054 28.1081 27.7054 28.1336 27.7047C28.2002 27.705 28.255 27.7113 28.3016 27.7231H37.7652C37.8687 27.461 37.9646 27.195 38.0544 26.9263H28.6569C28.4109 27.0583 28.1402 27.1746 27.8394 27.2698Z" fill="white"/>
<path fill-rule="evenodd" clip-rule="evenodd" d="M17.3177 27.7047C17.3467 27.7054 17.3706 27.7054 17.3937 27.7054C17.8027 27.7054 18.0765 27.6102 18.2818 27.4896L17.6142 27.2694C17.3142 27.1742 17.0439 27.0579 16.7978 26.9263H7.34167C7.43138 27.195 7.52736 27.461 7.63078 27.7231H17.1528C17.1982 27.7113 17.2523 27.705 17.3177 27.7047Z" fill="white"/>
<path fill-rule="evenodd" clip-rule="evenodd" d="M28.3516 28.431C27.9834 28.6641 27.2305 28.896 26.4826 28.9023L26.4615 28.9027C26.3945 28.9027 26.331 28.8909 26.2735 28.8682C26.0419 29.0045 25.5131 29.1588 25.0387 29.2133H37.089C37.2241 28.9516 37.3522 28.686 37.4729 28.4165H28.3693C28.363 28.4216 28.3555 28.4279 28.3516 28.431Z" fill="white"/>
<path fill-rule="evenodd" clip-rule="evenodd" d="M19.1817 28.8682C19.1245 28.8909 19.0615 28.9027 18.9956 28.9027L18.9717 28.9023C18.2247 28.896 17.4718 28.6641 17.1141 28.4384C17.1075 28.4333 17.0977 28.4251 17.0871 28.4165H7.92316C8.0442 28.686 8.17191 28.9516 8.30706 29.2133H20.4165C19.9421 29.1588 19.4132 29.0045 19.1817 28.8682Z" fill="white"/>
<path fill-rule="evenodd" clip-rule="evenodd" d="M22.6974 4.10687C32.4278 4.10687 40.3425 12.0584 40.3425 21.8316C40.3425 31.6039 32.4278 39.555 22.6974 39.555C12.9682 39.555 5.05351 31.6039 5.05351 21.8316C5.05351 12.0584 12.9682 4.10687 22.6974 4.10687ZM4.70526 21.83C4.28923 21.9389 3.96409 22.1681 3.73805 22.514C2.92911 23.7503 3.52338 26.259 4.00091 28.2753C4.17171 28.9965 4.33271 29.6777 4.3997 30.1842C4.41145 30.2735 4.42399 30.366 4.43731 30.4596C4.52427 31.0841 4.6226 31.7923 4.48588 32.2326L4.44357 32.3705L4.58382 32.4026C5.03392 32.5045 5.59803 32.944 6.09514 33.3311C6.16957 33.3894 6.24322 33.4466 6.31491 33.5015C6.72036 33.8125 7.22962 34.2928 7.76904 34.8013C9.24237 36.1915 11.0683 37.9128 12.5279 37.9128C12.5616 37.9128 12.5949 37.9121 12.6278 37.9105C13.0458 37.8866 13.4105 37.715 13.7156 37.402C13.602 37.8169 13.6381 38.2129 13.8237 38.5815C14.4905 39.9001 16.9608 40.6405 18.9457 41.2352C19.656 41.4483 20.3266 41.6492 20.799 41.8447C20.8825 41.8792 20.9687 41.9141 21.0564 41.9501C21.6405 42.1871 22.3029 42.4554 22.6159 42.7939L22.7139 42.8997L22.8118 42.7943C23.126 42.4554 23.7884 42.1871 24.3725 41.9501C24.4602 41.9144 24.5472 41.8792 24.6306 41.8447C25.1023 41.6492 25.7733 41.4483 26.4832 41.2352C28.4681 40.6405 30.9388 39.9001 31.6051 38.5815C31.794 38.2086 31.8273 37.8067 31.709 37.3863C32.0114 37.6915 32.3726 37.8584 32.7847 37.8815C32.818 37.8831 32.8513 37.8842 32.885 37.8842C34.3442 37.8842 36.1701 36.1626 37.6438 34.7727C38.1832 34.2638 38.6925 33.7835 39.0979 33.4725C39.1696 33.4176 39.2429 33.3601 39.3185 33.3017C39.8156 32.915 40.3793 32.4759 40.8287 32.3737L40.9693 32.3419L40.9266 32.2044C40.7903 31.7641 40.8886 31.057 40.9752 30.4334C40.9885 30.3386 41.0014 30.2461 41.0132 30.1556C41.0798 29.6487 41.2408 28.9679 41.4116 28.2463C41.8891 26.2304 42.4834 23.7217 41.6744 22.4854C41.4453 22.1348 41.1146 21.9048 40.6908 21.7975C41.1068 21.6882 41.4319 21.459 41.658 21.1135C42.4665 19.8768 41.8726 17.3673 41.3951 15.3509C41.2243 14.6294 41.0629 13.9481 40.9963 13.4416C40.9846 13.3519 40.9716 13.2591 40.9587 13.1646C40.8721 12.5406 40.7734 11.8335 40.9101 11.3936L40.9528 11.2557L40.8122 11.2236C40.3625 11.1217 39.7996 10.683 39.3024 10.2956C39.2272 10.2372 39.1536 10.1796 39.0815 10.1244C38.676 9.81372 38.1664 9.33305 37.6269 8.82458C36.1532 7.43508 34.3277 5.713 32.8685 5.713C32.8348 5.713 32.8011 5.71418 32.7682 5.71574C32.3506 5.73925 31.9855 5.91083 31.6808 6.22383C31.794 5.80898 31.7583 5.41293 31.5718 5.0443C30.9055 3.72532 28.4348 2.98533 26.4499 2.39028C25.74 2.17795 25.0694 1.9766 24.5973 1.78112C24.5135 1.74665 24.4273 1.71139 24.3392 1.67574C23.7551 1.43874 23.0927 1.1704 22.7789 0.83194L22.681 0.726562L22.583 0.83194C22.2696 1.1704 21.6076 1.43913 21.0235 1.67574C20.9358 1.71178 20.8492 1.74665 20.7657 1.78112C20.2937 1.9766 19.623 2.17795 18.9128 2.39028C16.9279 2.98533 14.4576 3.72532 13.7912 5.0443C13.6024 5.41763 13.5687 5.81916 13.687 6.2395C13.3846 5.93433 13.0238 5.76745 12.6113 5.74473C11.1352 5.65816 9.26 7.43156 7.75259 8.85318C7.21316 9.36204 6.7039 9.84231 6.29806 10.1534C6.22638 10.2082 6.15312 10.2658 6.07751 10.3242C5.5804 10.7116 5.01708 11.1499 4.56775 11.2522L4.42712 11.2843L4.46943 11.4218C4.60615 11.8625 4.50743 12.57 4.42046 13.1944C4.40753 13.2884 4.395 13.3809 4.38325 13.4702C4.31626 13.9767 4.15486 14.6583 3.98446 15.3799C3.50693 17.3963 2.91305 19.9058 3.7216 21.1421C3.95038 21.4923 4.28179 21.7223 4.70526 21.83Z" fill="white"/>
<path fill-rule="evenodd" clip-rule="evenodd" d="M16.2682 36.6641H29.1281C29.6738 36.4271 30.2042 36.1611 30.717 35.8677H14.6793C15.192 36.1611 15.7225 36.4271 16.2682 36.6641Z" fill="white"/>
<path fill-rule="evenodd" clip-rule="evenodd" d="M22.698 37.9979C24.2622 37.9979 25.7751 37.7742 27.2069 37.3582H18.1891C19.6209 37.7742 21.1338 37.9979 22.698 37.9979Z" fill="white"/>
<path fill-rule="evenodd" clip-rule="evenodd" d="M26.6148 21.8383C26.5067 21.7435 26.1756 21.6428 25.7753 21.6428C25.5947 21.6428 25.4208 21.6628 25.2586 21.7028C24.6526 21.8516 24.1547 22.4819 24.1601 22.7988C24.349 23.0327 24.5758 23.2787 24.7998 23.4926C25.286 23.9564 25.7247 24.4253 25.7553 25.0603C25.7694 25.3526 25.7247 25.6272 25.6186 25.8998C25.3988 26.4667 24.8919 26.7957 24.4203 26.9846C25.7898 26.9242 26.7832 26.6112 27.3054 26.0734C27.6486 25.7196 27.8041 25.2558 27.7669 24.6949C27.7414 24.3043 27.457 23.9204 27.1812 23.5478C26.7926 23.0229 26.3907 22.4804 26.6277 21.8504C26.6246 21.8473 26.6203 21.843 26.6148 21.8383Z" fill="white"/>
<path fill-rule="evenodd" clip-rule="evenodd" d="M28.4762 22.1919C28.2615 22.1919 27.941 22.2142 27.6359 22.3216C27.2755 22.4477 27.0561 22.5817 26.9672 22.7294C27.0777 22.9503 27.2418 23.1712 27.4008 23.3863C27.6993 23.7898 28.008 24.2066 28.039 24.6767C28.0813 25.3184 27.9003 25.8523 27.5011 26.2636C27.0177 26.7619 26.2225 27.0773 25.1311 27.2038C25.2098 27.2058 25.2874 27.2065 25.3646 27.2065C26.9821 27.2065 28.2893 26.8407 29.0454 26.1763C29.5166 25.7622 29.7415 25.2631 29.7129 24.6928C29.6937 24.3073 29.479 24.0076 29.2718 23.7173C28.987 23.3193 28.6654 22.8696 29.0262 22.255C28.9314 22.2244 28.7343 22.1919 28.4762 22.1919Z" fill="white"/>
<path fill-rule="evenodd" clip-rule="evenodd" d="M25.3646 25.8015C25.4574 25.5617 25.495 25.3302 25.4829 25.0736C25.457 24.5389 25.0563 24.1138 24.6117 23.69C24.4573 23.5427 23.6731 22.7729 23.4032 22.1089L23.3605 22.0032C23.1689 21.5284 23.0357 21.2369 22.7278 21.2354C22.4195 21.2369 22.2722 21.5523 22.081 22.0271C22.063 22.0443 21.5479 23.0193 20.7903 23.7409C20.3656 24.146 19.997 24.56 19.9723 25.0736C19.9602 25.3302 19.9978 25.5617 20.0906 25.8015C20.4142 26.6347 21.6266 27.0076 22.6847 27.0072H22.7705C23.8286 27.0076 25.041 26.6347 25.3646 25.8015Z" fill="white"/>
<path fill-rule="evenodd" clip-rule="evenodd" d="M17.6882 24.6946C17.651 25.256 17.8065 25.7198 18.1497 26.0735C18.6715 26.6114 19.6653 26.9244 21.0348 26.9843C20.5632 26.7955 20.0563 26.4668 19.8365 25.9C19.7303 25.6269 19.6857 25.3527 19.6998 25.0605C19.7299 24.4255 20.1691 23.9566 20.6552 23.4924C20.8793 23.2789 21.1061 23.0329 21.2949 22.7986C21.3004 22.4817 20.8025 21.8518 20.1965 21.7025C20.0343 21.6629 19.8604 21.6426 19.6798 21.6426C19.2794 21.6426 18.9484 21.7433 18.8403 21.8381C18.8348 21.8431 18.8305 21.8471 18.8274 21.8506C19.0644 22.4801 18.6624 23.0227 18.2738 23.5476C17.9981 23.9201 17.7137 24.3044 17.6882 24.6946Z" fill="white"/>
<path fill-rule="evenodd" clip-rule="evenodd" d="M15.7422 24.6925C15.7136 25.2629 15.9384 25.762 16.4097 26.176C17.1657 26.8404 18.4734 27.2063 20.0909 27.2063C20.1676 27.2063 20.2456 27.2055 20.3239 27.2036C19.2329 27.077 18.4373 26.7617 17.9539 26.2634C17.5547 25.8521 17.3738 25.3181 17.4161 24.6764C17.447 24.2064 17.7557 23.7896 18.0542 23.3861C18.2133 23.1714 18.3774 22.9501 18.4879 22.7291C18.3989 22.5814 18.18 22.4475 17.8192 22.3213C17.514 22.214 17.1939 22.1917 16.9789 22.1917C16.7207 22.1917 16.5237 22.2242 16.4293 22.2547C16.7897 22.8694 16.4681 23.3191 16.1837 23.7171C15.976 24.0074 15.7618 24.307 15.7422 24.6925Z" fill="white"/>
<path fill-rule="evenodd" clip-rule="evenodd" d="M19.5008 27.8864C19.5599 27.8484 19.6097 27.8166 19.6582 27.783C19.7613 27.712 19.8232 27.6447 19.8835 27.5792C19.9137 27.5459 19.9462 27.5123 19.9822 27.479C19.6712 27.4754 19.3621 27.4574 19.0624 27.4253H19.0616C19.0299 27.43 19.0142 27.4417 19.0033 27.4508C18.9637 27.4809 18.9273 27.5119 18.8885 27.5448C18.6319 27.7622 18.2178 28.1136 17.3846 28.1136L17.3564 28.1132C17.638 28.2711 18.2922 28.4881 18.979 28.4943H18.9801C19.0499 28.4943 19.0557 28.4693 19.0585 28.4485C19.053 28.4062 19.0542 28.3674 19.062 28.331C19.1039 28.1398 19.2877 28.0223 19.5008 27.8864Z" fill="white"/>
<path fill-rule="evenodd" clip-rule="evenodd" d="M20.5337 28.8464C20.7065 28.8464 20.8612 28.8264 20.9807 28.788C21.0669 28.7606 21.126 28.7254 21.1538 28.685C21.1225 28.649 21.0966 28.6153 21.0739 28.58C20.8831 28.285 20.7809 27.8099 21.1217 27.442C21.1252 27.4381 21.1288 27.4346 21.1323 27.4307C21.0273 27.4397 20.9231 27.4475 20.8193 27.4538C20.31 27.518 20.2101 27.6265 20.084 27.764C20.017 27.8369 19.941 27.9192 19.8133 28.0073C19.7624 28.0426 19.7107 28.0759 19.6601 28.108C19.4995 28.2106 19.3463 28.3085 19.3287 28.3892C19.3232 28.4143 19.3326 28.4457 19.3577 28.4848C19.4838 28.6807 20.0225 28.8464 20.5337 28.8464Z" fill="white"/>
<path fill-rule="evenodd" clip-rule="evenodd" d="M22.7286 27.3008H22.7266H22.7113C21.9694 27.3008 21.5279 27.4046 21.3218 27.6271C21.0876 27.8802 21.1589 28.2088 21.303 28.4321C21.3348 28.4807 21.3712 28.5234 21.4143 28.563L21.446 28.5896C21.5561 28.6785 21.6889 28.7279 21.8291 28.7796C22.1398 28.8948 22.4888 29.0244 22.7274 29.5674C22.9664 29.0244 23.3154 28.8948 23.626 28.7796C23.7663 28.7279 23.8991 28.6785 24.0092 28.5896L24.0409 28.563C24.084 28.5234 24.1204 28.4807 24.1522 28.4321C24.2963 28.2088 24.3676 27.8802 24.1333 27.6271C23.9273 27.4046 23.4858 27.3008 22.7439 27.3008H22.7286Z" fill="white"/>
<path fill-rule="evenodd" clip-rule="evenodd" d="M24.3011 28.685C24.3289 28.7254 24.3881 28.7606 24.4742 28.788C24.5937 28.8264 24.7485 28.8464 24.9212 28.8464C25.4324 28.8464 25.9711 28.6811 26.0972 28.4848C26.1223 28.4457 26.1317 28.4147 26.1262 28.3892C26.1086 28.3085 25.9554 28.2106 25.7948 28.1084C25.7443 28.0759 25.6925 28.0426 25.6416 28.0073C25.5139 27.9192 25.4379 27.8369 25.3709 27.764C25.2448 27.6265 25.1449 27.518 24.6356 27.4538C24.5318 27.4475 24.428 27.4401 24.3226 27.4307C24.3262 27.4346 24.3301 27.4381 24.3332 27.442C24.674 27.8099 24.5718 28.285 24.381 28.5804C24.3583 28.6153 24.3324 28.649 24.3011 28.685Z" fill="white"/>
<path fill-rule="evenodd" clip-rule="evenodd" d="M26.4752 28.4943H26.4764C27.1627 28.4881 27.8173 28.2711 28.099 28.1136L28.0704 28.114C27.2375 28.114 26.8235 27.7626 26.5669 27.5448C26.5281 27.5119 26.4917 27.4813 26.4521 27.4508C26.4407 27.4421 26.4255 27.43 26.3937 27.4257L26.3929 27.4253C26.0929 27.4574 25.7842 27.4758 25.4731 27.4794C25.5092 27.5123 25.5417 27.5463 25.5719 27.5792C25.6318 27.6447 25.6941 27.712 25.7967 27.783C25.8457 27.8166 25.8954 27.8488 25.9546 27.8864C26.1673 28.0227 26.3514 28.1398 26.3929 28.331C26.4012 28.3678 26.4023 28.4062 26.3969 28.4485C26.3996 28.4697 26.4051 28.4943 26.4752 28.4943Z" fill="white"/>
<path fill-rule="evenodd" clip-rule="evenodd" d="M19.3093 33.6916C19.3912 33.726 20.5154 34.0527 20.7254 34.0817C21.0886 34.1315 21.4768 34.1201 21.7655 33.869C21.7866 33.8506 21.8062 33.8318 21.8242 33.8126C21.8795 33.7539 21.9206 33.6908 21.9465 33.6254C22.0957 33.2485 21.7357 32.7839 20.6008 32.5093C19.2039 32.1712 17.0795 32.1223 15.5913 32.5575C14.7471 32.8043 14.3981 33.1572 14.4059 33.509C14.4078 33.6038 14.4361 33.6986 14.4874 33.7915V33.7919C14.5814 33.9603 14.7522 34.1217 14.9841 34.2627C15.0946 34.3297 15.2203 34.3908 15.359 34.4464C15.3598 34.4464 15.3602 34.4468 15.3606 34.4472C15.6034 34.5444 15.8855 34.6243 16.1907 34.6881C17.0266 34.8629 18.0381 34.9161 18.9038 34.8672C20.1621 34.7955 20.0696 34.412 19.7978 34.249C19.7394 34.2141 19.4225 34.048 19.2004 33.8796C19.037 33.7554 19.1436 33.6222 19.3093 33.6916Z" fill="white"/>
<path fill-rule="evenodd" clip-rule="evenodd" d="M20.2573 34.3018C20.2667 34.3264 20.2737 34.3519 20.2792 34.3774C20.2945 34.4483 20.2941 34.5219 20.2761 34.5952C20.1754 35.0049 19.6203 35.1287 19.1314 35.1738H31.8214C32.188 34.9227 32.5437 34.6571 32.8877 34.3774H20.5613C20.4798 34.359 20.376 34.3331 20.2573 34.3018Z" fill="white"/>
<path fill-rule="evenodd" clip-rule="evenodd" d="M16.1247 35.0038C15.7972 34.9357 15.5053 34.8511 15.257 34.7527L15.2437 34.7492L15.2272 34.741C15.074 34.6791 14.9358 34.6109 14.8167 34.5384C14.7324 34.4871 14.6572 34.4331 14.5871 34.3774H12.5085C12.8525 34.6571 13.2082 34.9227 13.5749 35.1738H17.3833C16.9348 35.1405 16.5047 35.0834 16.1247 35.0038Z" fill="white"/>
<path fill-rule="evenodd" clip-rule="evenodd" d="M25.3128 30.6765C25.2603 30.5276 25.2795 30.3561 25.3637 30.2295C25.4142 30.1531 25.4879 30.0889 25.5886 30.0321C25.6763 29.9831 25.7844 29.942 25.9055 29.9067H8.68701C8.8441 30.1774 9.00902 30.443 9.18099 30.7035H25.3234C25.3194 30.6941 25.3155 30.6847 25.3128 30.6765Z" fill="white"/>
<path fill-rule="evenodd" clip-rule="evenodd" d="M31.3589 30.1628C32.0064 30.3273 32.4977 30.5067 32.8389 30.7034H36.2153C36.3873 30.4429 36.5522 30.1777 36.7093 29.907H30.0399C30.5112 29.9755 30.9613 30.0617 31.3589 30.1628Z" fill="white"/>
<path fill-rule="evenodd" clip-rule="evenodd" d="M33.4197 31.5223C33.3993 31.6869 33.3081 31.849 33.1482 32.005L33.095 32.0535C33.0413 32.1009 32.9786 32.1472 32.9116 32.1938H35.105C35.3216 31.9348 35.5304 31.6692 35.7314 31.397H33.4205C33.424 31.4385 33.4248 31.48 33.4197 31.5223Z" fill="white"/>
<path fill-rule="evenodd" clip-rule="evenodd" d="M15.7028 32.1936C16.3969 32.0154 17.2294 31.9206 18.1288 31.9206C19.0361 31.9206 19.9371 32.0177 20.6685 32.1936H23.7585C23.6899 32.0166 23.7017 31.863 23.7252 31.7643C23.7585 31.6225 23.8321 31.4995 23.9265 31.3972H9.66492C9.86549 31.6691 10.0743 31.9347 10.2913 32.1936H15.7028Z" fill="white"/>
<path fill-rule="evenodd" clip-rule="evenodd" d="M14.0832 33.5154C14.0793 33.3282 14.1345 33.106 14.3269 32.8875H10.907C11.1651 33.1621 11.4327 33.4277 11.7093 33.6839H14.1051C14.093 33.6278 14.0844 33.5718 14.0832 33.5154Z" fill="white"/>
<path fill-rule="evenodd" clip-rule="evenodd" d="M30.3245 33.1315L30.2148 33.1527C29.2464 33.3477 28.2428 33.4512 27.3144 33.4512C26.3832 33.4512 25.1982 33.3442 24.4351 32.8875H22.0623C22.1199 32.9525 22.1712 33.0199 22.208 33.0908C22.3064 33.2808 22.326 33.4888 22.2668 33.6839H33.6868C33.9633 33.4277 34.2309 33.1621 34.489 32.8875H31.3034C31.0006 32.9764 30.6731 33.0586 30.3245 33.1315Z" fill="white"/>
<path fill-rule="evenodd" clip-rule="evenodd" d="M26.9539 31.4476C26.7929 31.4476 26.5888 31.4163 26.3726 31.3834C26.1411 31.3481 25.8786 31.3082 25.6103 31.2945C25.5437 31.2909 25.4755 31.2894 25.4069 31.2894C25.0814 31.2894 24.7821 31.327 24.5439 31.3842C24.2145 31.4633 23.7052 31.8923 24.2885 32.3808C24.7696 32.8669 25.8441 33.1345 27.3147 33.1345C28.2239 33.1345 29.2052 33.0334 30.1552 32.8418L30.2598 32.8219C31.4754 32.5672 32.4559 32.1939 32.8817 31.8206L32.9279 31.7783C33.0345 31.6741 33.0948 31.5749 33.1062 31.4833C33.1261 31.3227 32.9883 30.9023 31.2811 30.4687C30.2641 30.2105 28.8965 30.0487 27.7115 30.0464H27.6453C26.579 30.0499 25.9883 30.1706 25.7431 30.3077C25.6866 30.3394 25.6483 30.3719 25.6271 30.4044C25.6036 30.4397 25.5883 30.5043 25.6103 30.569C25.7787 30.9756 26.4525 31.0727 27.0679 31.0727C27.4138 31.09 27.3989 31.2361 27.3347 31.3133C27.2348 31.4335 27.0695 31.4476 26.9539 31.4476Z" fill="white"/>
<path fill-rule="evenodd" clip-rule="evenodd" d="M20.6288 13.433L20.6527 13.4044C21.3887 12.5328 22.2392 11.4038 22.2843 10.4018C22.2835 10.3054 22.2827 10.2063 22.2811 10.1056C22.2745 9.64531 22.2678 9.16934 22.3485 8.85556C22.4206 8.57351 22.5299 8.5406 22.6055 8.5406C22.6184 8.5406 22.6306 8.54178 22.6407 8.54295C22.6968 8.5504 22.7301 8.62404 22.7398 8.76194C22.7465 8.85204 22.7344 9.09961 22.7218 9.36717C22.6936 9.96026 22.6552 10.7727 22.7391 11.128C22.8339 11.5292 23.0176 11.9287 23.1954 12.315C23.4281 12.8203 23.6479 13.2979 23.664 13.7445C23.6926 14.544 23.3032 14.609 23.0188 14.6564C22.8891 14.678 22.7273 14.7046 22.7273 14.8613C22.7273 14.9224 22.7739 14.9871 22.8601 14.9871C22.893 14.9871 22.9298 14.9776 22.9886 14.9628C23.0783 14.94 23.2142 14.9056 23.3686 14.9056C23.4606 14.9056 23.5488 14.9181 23.6307 14.9424C23.8767 15.0153 24.0674 15.1927 24.1411 15.4168C24.2089 15.6226 24.2124 15.9693 23.8465 16.4527C23.7717 16.5514 23.6036 16.6842 23.2268 16.7563C23.1151 16.7767 23.1049 16.846 23.1085 16.886C23.1136 16.9381 23.1567 16.9906 23.2424 16.9906C23.2793 16.9898 23.3153 16.989 23.3506 16.989C23.9158 16.989 24.3428 17.11 24.5524 17.3294C24.6464 17.4281 24.6911 17.5433 24.6852 17.6726C24.6739 17.9221 24.3295 18.0169 24.0992 18.0804C23.9394 18.1242 23.834 18.1528 23.8257 18.2637L23.8234 18.3178L23.9017 18.3922H23.9507C23.982 18.3922 24.0169 18.3828 24.087 18.3632C24.2422 18.3205 24.3738 18.2982 24.4674 18.2982C24.5093 18.2982 24.5434 18.3025 24.57 18.3111C24.6453 18.3358 24.6554 18.371 24.6562 18.3957C24.6617 18.5223 24.4619 18.7455 24.0103 18.9367L23.9954 18.9445L23.995 18.9434C23.7729 19.0354 23.2855 19.0946 22.7536 19.0946C21.9262 19.0946 20.961 18.9395 20.796 18.599C20.7549 18.5136 20.771 18.411 20.8434 18.2931C20.8599 18.3154 20.885 18.3377 20.9226 18.3558C21.4667 18.646 22.1965 18.6891 22.5832 18.6891C22.8499 18.6891 23.0419 18.6688 23.1249 18.6515C23.2311 18.6292 23.3909 18.5959 23.378 18.4658C23.3698 18.3867 23.3067 18.3468 23.1915 18.3468C23.1739 18.3468 23.1535 18.3475 23.1308 18.3491C23.0497 18.3546 22.9259 18.3616 22.7857 18.3616C22.2635 18.3616 21.7476 18.2606 21.1658 18.0459C20.8775 17.9593 20.3122 17.6177 20.192 17.5221C19.765 17.1825 19.5241 16.6051 19.5241 15.9109C19.4806 14.792 20.2848 13.84 20.6288 13.433ZM23.2052 19.6975C23.1163 19.7096 23.0262 19.7182 22.9373 19.7229C22.8762 19.7261 22.8135 19.7276 22.7492 19.7276C22.5965 19.7276 22.4457 19.7174 22.3007 19.6979C21.7574 19.6234 21.4326 19.4248 21.4326 19.276C21.4326 19.2646 21.4342 19.2532 21.4377 19.2419C21.8483 19.3273 22.2956 19.3457 22.6023 19.3457C23.1935 19.3457 23.736 19.2811 24.0314 19.1765C24.0592 19.2105 24.0733 19.2438 24.0733 19.276C24.0733 19.4248 23.7486 19.6234 23.2052 19.6975ZM22.7532 20.2749C22.5244 20.2749 22.3242 20.1499 22.3242 20.0073C22.3242 19.983 22.3297 19.9588 22.3411 19.9356C22.4077 19.9431 22.4762 19.949 22.5459 19.9529C22.6137 19.9564 22.6819 19.9588 22.7571 19.9588C22.8954 19.9584 23.0321 19.9505 23.1649 19.9356C23.1759 19.9592 23.1817 19.9838 23.1817 20.0073C23.1817 20.1499 22.9816 20.2749 22.7532 20.2749ZM19.0755 16.1221C19.0791 16.1585 19.0873 16.2298 19.1022 16.3293C19.1092 16.3759 19.1178 16.4288 19.128 16.4876C19.137 16.5377 19.1468 16.5918 19.1586 16.6501C15.8711 18.0506 13.5602 21.3138 13.5602 25.1066C13.5602 25.6115 13.6037 26.1255 13.6899 26.6367H16.3326C16.266 26.587 16.201 26.536 16.1402 26.4828C15.5785 25.9892 15.3 25.3632 15.3348 24.6718C15.3599 24.1672 15.6208 23.8021 15.8511 23.4801C16.1543 23.0566 16.3208 22.8235 16.0399 22.4024C15.9624 22.2853 15.9679 22.1384 16.054 22.0271C16.2186 21.8148 16.6957 21.7831 16.9652 21.7831C17.317 21.7831 17.6774 21.8387 17.9544 21.9359C18.1694 22.0115 18.3453 22.0922 18.4864 22.1803C18.4813 22.1074 18.464 22.0365 18.4346 21.9668L18.4315 21.9586L18.4178 21.9092L18.4166 21.8986C18.401 21.7604 18.4546 21.6334 18.5718 21.5312C18.7778 21.3506 19.2119 21.2343 19.6768 21.2343C19.8919 21.2343 20.0995 21.2585 20.2942 21.3063C20.838 21.4399 21.29 21.8462 21.5251 22.243C21.5885 22.1388 21.6383 22.0424 21.6739 21.9554L21.7162 21.8505C21.86 21.4936 22.023 21.0889 22.3606 20.9146C22.4727 20.8594 22.5894 20.8312 22.7093 20.8288L22.7152 20.8276L22.7312 20.8288C22.8582 20.8292 22.9788 20.8574 23.0924 20.9134C23.432 21.0885 23.595 21.4932 23.7392 21.8505L23.7815 21.9554C23.8171 22.0424 23.8665 22.1388 23.9299 22.2434C24.165 21.8462 24.6171 21.4399 25.1612 21.3063C25.3559 21.2585 25.5631 21.2343 25.7782 21.2343C26.2436 21.2343 26.6776 21.3506 26.8837 21.5312C27.0004 21.633 27.0541 21.7604 27.0388 21.8986L27.0376 21.9092L27.0239 21.959L27.0204 21.9668C26.9914 22.0365 26.9741 22.1074 26.9691 22.1803C27.1101 22.0922 27.286 22.0115 27.501 21.9359C27.778 21.8387 28.1384 21.7831 28.4898 21.7831C28.7597 21.7831 29.2368 21.8148 29.4014 22.0271C29.4875 22.1384 29.493 22.2853 29.4155 22.4024C29.1342 22.8235 29.3011 23.0566 29.6035 23.4797C29.8342 23.8021 30.0955 24.1668 30.1206 24.6718C30.1555 25.3632 29.8765 25.9892 29.3148 26.4828C29.2541 26.536 29.1894 26.587 29.1224 26.6367H31.8043C31.8905 26.1255 31.9339 25.6115 31.9339 25.1066C31.9339 21.2676 29.5659 17.973 26.2146 16.6016C26.1448 16.573 26.0735 16.5475 26.003 16.5205C26.0132 16.4844 26.0261 16.45 26.0355 16.4131C26.0818 16.2055 26.1119 15.9642 26.117 15.9242C26.1554 15.4724 26.097 15.0184 25.9447 14.5973L25.7911 14.2455C25.6603 13.992 25.4965 13.7656 25.3038 13.5717C25.2548 13.5227 25.2066 13.4773 25.1584 13.4315L25.1518 13.4252L24.9563 13.2407C24.905 13.1933 24.8537 13.1467 24.8031 13.1008C24.1156 12.476 23.6193 12.0247 23.7776 10.9498C23.9605 9.95478 23.6397 8.91785 23.2307 8.65577C23.2029 8.63775 23.1739 8.626 23.1449 8.61503C23.1269 8.46147 23.112 8.36941 23.0995 8.36785C22.9882 8.16297 22.8084 8.10499 22.6932 8.08893C22.6642 8.0858 22.6364 8.08423 22.609 8.08423C22.4096 8.08423 22.0527 8.17002 21.9058 8.74235C21.8103 9.11568 21.8173 9.62259 21.8244 10.1134C21.8259 10.2122 21.8271 10.3097 21.8279 10.3869C21.7903 11.2264 21.0131 12.2559 20.4325 12.9559L20.2433 13.1819C20.0419 13.4205 19.7822 13.7448 19.5519 14.1483L19.3721 14.5005C19.1523 14.9847 19.0497 15.4634 19.0673 15.9152C19.0673 15.9799 19.0708 16.0465 19.0755 16.1221Z" fill="white"/>
<path fill-rule="evenodd" clip-rule="evenodd" d="M28.1785 44.9087L27.9834 45.7376L28.6662 45.6064L28.1785 44.9087Z" fill="white"/>
<path fill-rule="evenodd" clip-rule="evenodd" d="M15.0102 44.7516C15.1053 44.7203 15.1692 44.6455 15.2021 44.5276C15.2346 44.412 15.2162 44.3141 15.1484 44.2396C15.0779 44.164 14.9631 44.1029 14.8033 44.0579L14.7211 44.0352L14.533 44.7054L14.6353 44.734C14.7876 44.7763 14.9126 44.7826 15.0102 44.7516Z" fill="white"/>
<path fill-rule="evenodd" clip-rule="evenodd" d="M22.4304 45.4194L22.0731 46.1919L22.7685 46.2006L22.4304 45.4194Z" fill="white"/>
<path fill-rule="evenodd" clip-rule="evenodd" d="M32.1854 43.8308L32.1157 44.6797L32.771 44.4486L32.1854 43.8308Z" fill="white"/>
<path fill-rule="evenodd" clip-rule="evenodd" d="M26.168 46.4902C26.4591 46.4538 26.6749 46.3625 26.8163 46.2188C26.9577 46.0746 27.0141 45.8803 26.984 45.6382C26.9542 45.4028 26.8516 45.2312 26.6784 45.1242C26.5057 45.0177 26.2761 44.9817 25.9929 45.0177L25.8848 45.031L26.0704 46.5028L26.168 46.4902Z" fill="white"/>
<path fill-rule="evenodd" clip-rule="evenodd" d="M39.8477 39.1118L39.8156 39.9599L40.4506 39.7092L39.8477 39.1118Z" fill="white"/>
<path fill-rule="evenodd" clip-rule="evenodd" d="M18.461 45.0933L18.0003 45.8098L18.6874 45.914L18.461 45.0933Z" fill="white"/>
<path fill-rule="evenodd" clip-rule="evenodd" d="M8.02021 39.9949L7.44318 40.6177L8.08876 40.841L8.02021 39.9949Z" fill="white"/>
<path fill-rule="evenodd" clip-rule="evenodd" d="M2.96266 37.4107L2.90116 39.0705L4.15393 37.9803L3.63997 39.9656L3.41668 39.8591L3.75945 38.622L2.67277 39.5488L2.71312 38.1221L1.96373 39.1653L1.74043 39.0584L2.96266 37.4107ZM2.20817 34.7218C2.2164 34.6819 2.24303 34.5608 2.53018 34.5592C3.8523 34.6493 4.30279 35.8908 4.43559 37.0268C2.9513 36.1951 2.11611 35.141 2.20817 34.7218ZM5.43766 38.5001L5.56929 40.7001L5.3268 40.6061L5.29703 40.0781L4.47555 39.7584L4.09674 40.1282L3.857 40.0342L5.43766 38.5001ZM6.11929 39.0826L6.19372 38.8758L7.27452 39.2664L7.20009 39.4724L6.77114 39.3173L6.19293 40.9187L5.96768 40.8372L6.54589 39.2362L6.11929 39.0826ZM8.40625 41.6928L8.16063 41.6082L8.11088 41.0809L7.27726 40.7926L6.91256 41.1757L6.66929 41.0919L8.19197 39.4987L8.40625 41.6928ZM3.22081 43.1536C3.16715 43.0282 3.10682 42.9013 3.04022 42.7987C2.86864 42.5339 2.65828 42.4876 2.51138 42.497C1.9414 42.5296 1.32206 43.4251 1.00162 44.0283C0.942071 43.6437 0.934628 42.7807 1.00514 42.4806C1.12619 41.9635 1.37181 41.4875 1.60959 41.0272C1.74514 40.7648 1.88459 40.4937 2.00212 40.214C2.52234 40.5618 3.08253 40.8541 3.70814 41.1075C3.4872 41.7492 3.27762 42.43 3.22081 43.1536ZM11.3948 42.537L11.4779 44.748L11.2342 44.6449L11.2162 44.1141L10.3892 43.7643L9.99671 44.1208L9.75501 44.0189L11.3948 42.537ZM10.8719 40.3574C10.9251 40.2077 11.007 40.1638 11.1617 40.1638C11.2178 40.1638 11.284 40.1701 11.3615 40.1787C11.4187 40.185 11.4767 40.1913 11.5339 40.1936C11.5257 40.3405 11.4716 40.5199 11.4191 40.6946C11.3882 40.7981 11.3564 40.9034 11.3333 41.0057C11.3094 40.9865 11.2859 40.9673 11.2624 40.9489C10.9714 40.7158 10.8002 40.5595 10.8719 40.3574ZM12.6731 43.0427L12.8074 44.7025L13.9423 43.4834L13.6591 45.5158L13.4213 45.4331L13.6203 44.1647L12.6335 45.2028L12.5054 43.7776L11.8727 44.8957L11.6354 44.813L12.6731 43.0427ZM14.544 43.7631L14.906 43.8646C15.1128 43.9226 15.2629 44.0127 15.3573 44.1369C15.4493 44.2606 15.4728 44.4075 15.4258 44.574C15.3902 44.7021 15.3208 44.8044 15.2162 44.8812C15.1105 44.9599 14.9808 44.9901 14.8276 44.9705L15.1963 45.9424L14.9115 45.8625L14.5816 44.9258L14.4794 44.8968L14.26 45.6799L14.0253 45.6141L14.544 43.7631ZM15.9511 44.1435L16.1881 44.2003L15.7353 46.0681L15.4983 46.0109L15.9511 44.1435ZM16.433 44.2626L17.5788 44.5012L17.5341 44.7155L17.0793 44.6207L16.7334 46.2887L16.4949 46.2389L16.8408 44.5713L16.3883 44.4773L16.433 44.2626ZM19.1638 46.6957L18.9025 46.6557L18.7544 46.1461L17.8671 46.0113L17.5741 46.4544L17.3148 46.4152L18.5401 44.574L19.1638 46.6957ZM19.6343 44.7221C19.856 44.9991 20.0785 45.2702 20.3041 45.5342C20.5294 45.8006 20.7519 46.072 20.974 46.3482L21.0904 44.9336L21.3336 44.9536L21.1695 46.9476L19.8297 45.3215L19.7118 46.749L19.4689 46.729L19.6343 44.7221ZM22.4368 44.8945L23.3483 46.9084L23.0839 46.9053L22.8669 46.4211L21.969 46.4101L21.7402 46.8888L21.4782 46.8857L22.4368 44.8945ZM24.3128 45.6C24.5725 45.8327 24.8303 46.0709 25.0884 46.3141L25.0073 44.896L25.2506 44.8823L25.365 46.8802L23.8133 45.4547L23.8952 46.8853L23.6519 46.899L23.5368 44.8886C23.7945 45.1319 24.0527 45.3697 24.3128 45.6ZM26.0145 44.7942C26.3467 44.7523 26.6225 44.8052 26.8419 44.9493C27.062 45.0966 27.1889 45.3168 27.2262 45.6102C27.2634 45.9063 27.1921 46.1512 27.0154 46.3459C26.8383 46.5398 26.579 46.6596 26.2417 46.702L25.8555 46.7501L25.6153 44.8447L26.0145 44.7942ZM28.0797 44.3927L29.376 46.1845L29.1159 46.2342L28.8064 45.8029L27.925 45.9721L27.7965 46.4873L27.5391 46.5366L28.0797 44.3927ZM30.4584 45.4002L30.7118 43.7526L31.6203 45.5945L31.3774 45.6603L30.8286 44.4976L30.5959 45.9118L29.6886 44.804L29.7932 46.0854L29.5503 46.1508L29.414 44.1016L30.4584 45.4002ZM32.0108 43.3354L33.5586 44.9137L33.3091 45.0018L32.9389 44.6214L32.0927 44.9203L32.0426 45.4492L31.7958 45.5358L32.0108 43.3354ZM33.1696 42.9891L33.937 43.5496L34.0491 42.6055L34.3056 42.4943L34.1548 43.7435L34.489 44.5102L34.2653 44.6073L33.9311 43.8411L32.9126 43.1007L33.1696 42.9891ZM34.5971 39.9268C34.6982 39.9049 34.8129 39.8802 34.8592 39.9108C34.885 39.9276 34.9066 39.9742 34.9199 40.0416C34.9571 40.2316 34.782 40.4549 34.5787 40.6688C34.5082 40.3973 34.4647 40.1588 34.4435 39.9566C34.4956 39.9492 34.5466 39.9378 34.5971 39.9268ZM35.3563 44.1004L34.4749 42.3924L34.6915 42.2804L35.5733 43.9888L35.3563 44.1004ZM38.1611 40.8114L38.2532 39.152L39.3187 40.9058L39.0864 40.9912L38.4385 39.883L38.3449 41.3089L37.3498 40.2841L37.5751 41.5494L37.3428 41.6348L37.0141 39.6091L38.1611 40.8114ZM39.6544 38.6239L41.2459 40.149L41.0042 40.2441L40.6234 39.8767L39.8035 40.2007L39.7765 40.7291L39.5369 40.8235L39.6544 38.6239ZM41.468 37.9725L41.5506 38.1746L41.1287 38.3481L41.7735 39.9225L41.5518 40.0134L40.907 38.4382L40.4875 38.6102L40.4044 38.4073L41.468 37.9725ZM43.4721 34.3685C43.7538 34.3716 43.7804 34.4911 43.789 34.531C43.8811 34.9502 43.0463 36.0036 41.5624 36.8352C41.6819 35.8485 42.0979 34.4801 43.4721 34.3685ZM44.3876 40.8361C44.625 41.2968 44.871 41.7731 44.9921 42.2898C45.0622 42.5899 45.0547 43.4533 44.9952 43.8376C44.6748 43.2335 44.0554 42.3388 43.4858 42.3059C43.4753 42.3055 43.4651 42.3051 43.4541 42.3051C43.3099 42.3051 43.1164 42.3615 42.9566 42.6083C42.89 42.7105 42.8301 42.8378 42.776 42.9628C42.7196 42.2416 42.51 41.5604 42.2887 40.9168C42.8579 40.686 43.4283 40.4012 43.9943 40.0228C44.1118 40.3021 44.2517 40.5728 44.3876 40.8361ZM42.8101 37.3946L43.0302 37.3002L43.7855 39.0674L43.5654 39.1614L43.2026 38.3129L42.3615 38.6725L42.7239 39.521L42.5037 39.615L41.7485 37.8483L41.9686 37.7539L42.2734 38.4664L43.1145 38.1068L42.8101 37.3946ZM1.76355 40.0491C1.64642 40.3378 1.49952 40.6218 1.35731 40.8976C1.11209 41.3731 0.858239 41.8652 0.728966 42.4159C0.679998 42.6259 0.568745 44.3174 0.91465 44.4424C0.976153 44.464 1.09524 44.4726 1.19435 44.2736C1.55122 43.5563 2.14745 42.8018 2.52744 42.7799C2.59482 42.776 2.69667 42.7897 2.80283 42.953C2.8941 43.094 2.97911 43.3068 3.04727 43.4772C3.15539 43.7482 3.20397 43.8709 3.34813 43.8442C3.48915 43.8176 3.48915 43.6581 3.48915 43.5304C3.48915 42.7125 3.72263 41.9369 3.97217 41.2106C4.65732 41.4679 5.34482 41.6568 6.01156 41.8401C6.93449 42.0939 7.80964 42.3341 8.67107 42.7395L8.46619 42.9468C8.29069 43.1356 8.20686 43.364 8.22958 43.5896C8.25191 43.807 8.37256 44.0037 8.56883 44.1439C11.796 46.4415 17.0931 47.8133 22.7392 47.8133C26.3009 47.8133 32.9459 47.2856 37.4384 43.7561C37.5383 43.6773 37.5966 43.5653 37.6072 43.4321C37.6264 43.1806 37.4713 42.9127 37.3737 42.8077L37.2033 42.6071C38.1024 42.1664 39.0187 41.9149 39.9853 41.6497C40.6583 41.4644 41.3403 41.2772 42.0247 41.0198C42.275 41.7484 42.5077 42.5252 42.5077 43.3397C42.5077 43.4674 42.5077 43.6264 42.6491 43.6538C42.7897 43.6809 42.8414 43.5575 42.9499 43.2864C43.0181 43.1156 43.1027 42.9033 43.1944 42.7622C43.3002 42.5989 43.4016 42.5852 43.4698 42.5895C43.8494 42.6106 44.4456 43.3655 44.8025 44.0828C44.9016 44.281 45.0199 44.2744 45.0822 44.2512C45.4281 44.1271 45.3168 42.4348 45.2679 42.2252C45.139 41.674 44.8851 41.182 44.6395 40.706C44.4969 40.4302 44.3504 40.1458 44.2329 39.8575C44.4997 39.6659 44.766 39.4521 45.0309 39.2127C45.8797 38.4429 45.376 37.4236 44.9713 36.6045L44.8894 36.4384C44.6822 36.0126 44.7206 35.5938 44.7547 35.224C44.7868 34.8765 44.817 34.5487 44.6023 34.3265C44.4084 34.1256 44.0543 34.0508 43.4525 34.0852V34.0856C42.1943 34.1859 41.419 35.217 41.26 36.997C41.1573 37.0491 41.0516 37.1004 40.9438 37.1498C39.3763 37.8698 37.3686 38.2804 36.0407 38.5518C35.1005 38.7438 34.6002 38.85 34.4028 38.9784C34.1877 39.1179 34.1305 39.4407 34.147 39.7991C34.129 39.8532 34.1419 39.9069 34.1513 39.946C34.1568 39.9688 34.1623 39.9919 34.1623 40.0111C34.1623 40.2014 34.205 40.3773 34.2457 40.547C34.2774 40.6805 34.3084 40.8083 34.3158 40.9332C32.2475 42.7007 27.719 43.8838 22.7392 43.8838C18.0548 43.8838 13.8365 42.877 11.595 41.2713C11.745 40.7855 12.0886 39.4904 11.5938 39.1688C11.396 39.0407 10.8965 38.9346 9.95675 38.7426C8.62837 38.4711 6.6211 38.061 5.05337 37.3406C4.94525 37.2908 4.83987 37.2395 4.73723 37.1878C4.57701 35.3909 3.80137 34.3595 2.54467 34.276C2.5388 34.2756 2.53331 34.2752 2.52744 34.2748H2.52509C1.93552 34.2443 1.58648 34.3187 1.39453 34.5173C1.17986 34.7398 1.21041 35.0677 1.24214 35.4148C1.27622 35.7846 1.31461 36.2034 1.10739 36.6292L1.0263 36.7945C0.621238 37.6144 0.11707 38.6337 0.966359 39.4031C1.22412 39.6373 1.48855 39.8512 1.76355 40.0491Z" fill="white"/>
<path fill-rule="evenodd" clip-rule="evenodd" d="M11.1907 43.0208L10.5682 43.6013L11.2083 43.8724L11.1907 43.0208Z" fill="white"/>
<path fill-rule="evenodd" clip-rule="evenodd" d="M5.24767 38.9895L4.64752 39.59L5.2841 39.8376L5.24767 38.9895Z" fill="white"/>
<path fill-rule="evenodd" clip-rule="evenodd" d="M36.2375 26.374L32.2233 26.0293C32.2135 26.1355 32.2006 26.2404 32.1869 26.3458L36.2018 26.6906C36.2144 26.5852 36.2277 26.4798 36.2375 26.374Z" fill="white"/>
<path fill-rule="evenodd" clip-rule="evenodd" d="M36.1091 22.8345L32.1318 23.542C32.1494 23.6465 32.1651 23.7515 32.1792 23.8573L36.1596 23.149C36.1447 23.0437 36.1267 22.9391 36.1091 22.8345Z" fill="white"/>
<path fill-rule="evenodd" clip-rule="evenodd" d="M31.3987 21.1642C31.4429 21.2605 31.4876 21.3569 31.5287 21.4552L35.1978 19.7371C35.1558 19.6395 35.1112 19.5431 35.0669 19.4468L31.3987 21.1642Z" fill="white"/>
<path fill-rule="evenodd" clip-rule="evenodd" d="M33.3784 16.6932C33.3126 16.6102 33.2476 16.526 33.1794 16.4441L30.0753 19.057C30.143 19.1389 30.2081 19.2231 30.2731 19.3073L33.3784 16.6932Z" fill="white"/>
<path fill-rule="evenodd" clip-rule="evenodd" d="M30.9538 14.3122C30.8691 14.2475 30.7837 14.1848 30.6976 14.1226L28.3373 17.4261C28.4235 17.4884 28.5077 17.5531 28.5916 17.6185L30.9538 14.3122Z" fill="white"/>
<path fill-rule="evenodd" clip-rule="evenodd" d="M26.5532 16.3993L28.0242 12.6119C27.9263 12.5703 27.8264 12.5343 27.7277 12.4951L26.259 16.2766C26.3578 16.3158 26.4561 16.3566 26.5532 16.3993Z" fill="white"/>
<path fill-rule="evenodd" clip-rule="evenodd" d="M9.31769 26.6882L13.2782 26.3478C13.2645 26.2428 13.2515 26.1374 13.2413 26.0312L9.28204 26.3717C9.29223 26.4774 9.30516 26.5828 9.31769 26.6882Z" fill="white"/>
<path fill-rule="evenodd" clip-rule="evenodd" d="M13.3337 23.5377L9.41009 22.8396C9.39246 22.9442 9.37444 23.0488 9.35956 23.1542L13.286 23.8526C13.3004 23.7473 13.3161 23.6423 13.3337 23.5377Z" fill="white"/>
<path fill-rule="evenodd" clip-rule="evenodd" d="M10.3169 19.7483L13.9401 21.4445C13.9816 21.3466 14.0263 21.2502 14.0709 21.1538L10.4481 19.458C10.4039 19.5544 10.3588 19.6504 10.3169 19.7483Z" fill="white"/>
<path fill-rule="evenodd" clip-rule="evenodd" d="M15.4008 19.0444L12.3283 16.4585C12.2606 16.5404 12.1959 16.6246 12.1301 16.708L15.2025 19.2939C15.2676 19.2101 15.333 19.1258 15.4008 19.0444Z" fill="white"/>
<path fill-rule="evenodd" clip-rule="evenodd" d="M16.7783 17.6931C16.8614 17.6265 16.9436 17.5599 17.029 17.4961L14.6387 14.2549C14.554 14.3187 14.4714 14.3861 14.3879 14.4519L16.7783 17.6931Z" fill="white"/>
<path fill-rule="evenodd" clip-rule="evenodd" d="M18.8134 16.4436L17.1751 12.7563C17.0783 12.8002 16.9804 12.8417 16.8848 12.888L18.5246 16.5787C18.6198 16.5317 18.7166 16.4875 18.8134 16.4436Z" fill="white"/>
<path fill-rule="evenodd" clip-rule="evenodd" d="M32.2662 25.1014L39.2755 24.7911C39.2736 24.685 39.2704 24.5788 39.2665 24.4727L32.2579 24.7829C32.2619 24.8887 32.2658 24.9948 32.2662 25.1014Z" fill="white"/>
<path fill-rule="evenodd" clip-rule="evenodd" d="M31.9329 22.635L38.6379 20.5165C38.6086 20.4142 38.5792 20.3124 38.5474 20.2109L31.8456 22.3283C31.8769 22.4297 31.9051 22.5324 31.9329 22.635Z" fill="white"/>
<path fill-rule="evenodd" clip-rule="evenodd" d="M30.9704 20.3405L36.9068 16.5535C36.852 16.4627 36.7928 16.3741 36.7364 16.2844L30.8051 20.0678C30.8619 20.1575 30.9168 20.2488 30.9704 20.3405Z" fill="white"/>
<path fill-rule="evenodd" clip-rule="evenodd" d="M34.2013 13.18C34.1245 13.1063 34.0485 13.0323 33.9706 12.9602L29.2184 18.1523C29.2963 18.2247 29.3739 18.2972 29.4491 18.3724L34.2013 13.18Z" fill="white"/>
<path fill-rule="evenodd" clip-rule="evenodd" d="M30.8591 10.6919C30.7666 10.6398 30.675 10.5858 30.5813 10.5356L27.2743 16.7505C27.3679 16.8014 27.4588 16.8555 27.5505 16.9095L30.8591 10.6919Z" fill="white"/>
<path fill-rule="evenodd" clip-rule="evenodd" d="M13.2066 24.7818L6.25282 24.4739C6.2489 24.58 6.24577 24.6862 6.2442 24.7924L13.1983 25.1003C13.1987 24.9937 13.2027 24.8876 13.2066 24.7818Z" fill="white"/>
<path fill-rule="evenodd" clip-rule="evenodd" d="M13.6213 22.3207L6.96956 20.219C6.93822 20.3205 6.90844 20.4227 6.87946 20.5246L13.5339 22.6274C13.5621 22.5248 13.5899 22.4221 13.6213 22.3207Z" fill="white"/>
<path fill-rule="evenodd" clip-rule="evenodd" d="M14.6674 20.0559L8.77524 16.2976C8.71883 16.3873 8.66007 16.4758 8.60522 16.5667L14.5017 20.3282C14.5553 20.2365 14.6106 20.1457 14.6674 20.0559Z" fill="white"/>
<path fill-rule="evenodd" clip-rule="evenodd" d="M16.1459 18.2481L11.3346 13.1643C11.2578 13.238 11.1795 13.3092 11.1039 13.3845L15.9187 18.4717C15.9932 18.3957 16.0692 18.3217 16.1459 18.2481Z" fill="white"/>
<path fill-rule="evenodd" clip-rule="evenodd" d="M14.0887 11.0277L17.6218 17.0893C17.7115 17.0322 17.8016 16.9761 17.8929 16.9217L14.3618 10.8635C14.2705 10.9176 14.1792 10.972 14.0887 11.0277Z" fill="white"/>
<path fill-rule="evenodd" clip-rule="evenodd" d="M11.4598 11.2334L11.222 11.0266L10.8448 11.461C10.7672 11.55 10.7304 11.6507 10.7343 11.7619C10.737 11.879 10.7789 11.9731 10.8604 12.0436C10.9619 12.1352 11.108 12.203 11.2992 12.2473C11.4884 12.29 11.7062 12.3033 11.9526 12.288L11.9706 12.147C11.8198 12.1446 11.6788 12.1266 11.5479 12.0929C11.4245 12.0553 11.3278 12.006 11.2584 11.9456C11.195 11.8908 11.1582 11.8207 11.1488 11.7357C11.139 11.6507 11.1609 11.5774 11.2142 11.5159L11.4598 11.2334Z" fill="white"/>
<path fill-rule="evenodd" clip-rule="evenodd" d="M13.2802 7.67389C13.3304 7.64419 13.3844 7.6267 13.4416 7.621C13.4977 7.61287 13.549 7.61856 13.596 7.63809L14.1648 7.88989C14.2561 7.8362 14.1726 7.74426 13.9141 7.6145C13.7836 7.54738 13.6955 7.50548 13.65 7.48839C13.527 7.42941 13.4017 7.39646 13.2744 7.39035C13.1482 7.38629 13.0432 7.40907 12.9586 7.4591C12.9108 7.49368 12.8752 7.52744 12.8509 7.56039L13.1533 7.78169C13.1901 7.73816 13.2324 7.70236 13.2802 7.67389Z" fill="white"/>
<path fill-rule="evenodd" clip-rule="evenodd" d="M14.8665 7.0614C14.9174 7.03359 14.9644 7.01047 15.0079 6.99167C15.0851 6.95837 15.1862 6.94309 15.3103 6.94662C15.4455 6.95406 15.5849 6.97913 15.7299 7.02262L15.9285 6.93643L15.4071 6.47536C15.328 6.39231 15.2422 6.33942 15.1493 6.31631C15.0553 6.29124 14.9652 6.29751 14.8783 6.33512C14.7838 6.38173 14.7161 6.42678 14.6749 6.47027L14.9809 6.68141C14.9825 6.65791 14.9958 6.63636 15.0216 6.61638C15.0561 6.59014 15.089 6.57016 15.1203 6.55645C15.1658 6.53686 15.2198 6.53921 15.2821 6.56389C15.3511 6.59092 15.4181 6.63675 15.4827 6.70022L15.7965 6.92899L15.7604 6.94466C15.4608 6.85417 15.2293 6.79541 15.0663 6.76877C14.8833 6.73626 14.7533 6.73704 14.6761 6.77034C14.6366 6.78483 14.6013 6.80285 14.5707 6.8244C14.5449 6.84438 14.5249 6.86435 14.5108 6.88472L14.7885 7.12956C14.8026 7.10919 14.8289 7.08647 14.8665 7.0614Z" fill="white"/>
<path fill-rule="evenodd" clip-rule="evenodd" d="M11.9319 10.0276L12.3742 10.4937C12.3577 10.6324 12.3322 10.7507 12.2982 10.8482C12.2641 10.9458 12.2194 11.021 12.1642 11.0731C12.1144 11.1205 12.0553 11.1514 11.9859 11.1663C11.9186 11.1832 11.852 11.1812 11.7854 11.1609C11.7783 11.1534 11.774 11.1467 11.7721 11.1413C11.7685 11.1299 11.7689 11.1225 11.7728 11.1189C11.8555 11.0077 11.9103 10.9015 11.937 10.8001C11.962 10.6927 11.9538 10.6191 11.9123 10.5791C11.8813 10.5431 11.8265 10.5102 11.7478 10.48C11.6812 10.4604 11.5989 10.4451 11.5065 10.4334C11.6455 10.2955 11.7877 10.1604 11.9319 10.0276ZM17.5506 7.62659C17.4769 7.70102 17.4068 7.75038 17.3402 7.77466C17.2909 7.79268 17.2462 7.79229 17.2059 7.77349C17.1635 7.75821 17.135 7.72961 17.1197 7.68731C17.0934 7.60778 17.0981 7.53296 17.1346 7.46402C17.1655 7.38841 17.2196 7.33631 17.296 7.3085C17.3575 7.28617 17.4299 7.27755 17.5134 7.28342C17.5933 7.28813 17.6728 7.31085 17.7519 7.35159C17.6912 7.46049 17.6238 7.55216 17.5506 7.62659ZM11.387 10.5544C11.4042 10.5572 11.4199 10.5611 11.4332 10.5666C11.4571 10.5764 11.4798 10.5928 11.5018 10.6156C11.5558 10.6692 11.568 10.7484 11.537 10.8533C11.5065 10.9548 11.4457 11.0492 11.3541 11.1358C11.5589 11.2674 11.7677 11.3426 11.9808 11.361C12.1885 11.3779 12.3507 11.3309 12.4666 11.2204C12.5199 11.1699 12.5614 11.1088 12.5912 11.0371C12.6288 10.9618 12.6511 10.8808 12.6589 10.7938L12.903 11.0508L13.3096 10.9638L12.1951 9.79016C12.3616 9.64326 12.5309 9.50027 12.7032 9.36042L13.5592 10.4483L13.9842 10.415L12.9802 9.13948C13.1666 8.99493 13.3559 8.85351 13.549 8.7168L13.8142 9.12499L13.6657 9.22175C13.6414 9.23742 13.6285 9.25857 13.6265 9.28482C13.6175 9.3095 13.6211 9.33378 13.6367 9.35807C13.681 9.42623 13.7911 9.47716 13.9662 9.51046C14.1413 9.54376 14.2643 9.53749 14.3344 9.49165C14.3611 9.47442 14.3795 9.45013 14.39 9.41801C14.3936 9.38471 14.3865 9.35455 14.3693 9.3283L13.842 8.5174C13.9728 8.42926 14.1041 8.34229 14.2373 8.25807L15.0235 9.46697L15.4278 9.43877L14.5389 8.0716C14.9447 7.82716 15.3608 7.59877 15.7885 7.39037L16.0099 7.83343L15.3047 8.1856C15.2648 8.20558 15.2389 8.23613 15.2272 8.27687C15.2131 8.31918 15.2154 8.35914 15.2342 8.39675C15.2789 8.48606 15.3608 8.55971 15.4806 8.61729C15.6052 8.67841 15.6992 8.69329 15.7627 8.66156C15.7838 8.65098 15.7956 8.6361 15.7979 8.61729C15.8085 8.59732 15.8085 8.57695 15.7979 8.55579L15.7364 8.43239C15.7247 8.40889 15.7227 8.38499 15.731 8.36031C15.7333 8.33563 15.7439 8.3184 15.7627 8.309L16.1505 8.11548L16.4322 8.67958L16.8372 8.69721L16.1106 7.24151C16.5587 7.03506 17.0174 6.8482 17.4871 6.68328L17.6795 7.21017C17.5553 7.13809 17.4393 7.08834 17.3312 7.06092C17.2231 7.0331 17.1385 7.03036 17.0766 7.05308C16.945 7.09813 16.8466 7.1804 16.7808 7.29949C16.717 7.41505 16.7068 7.53335 16.751 7.6544C16.7981 7.7825 16.9097 7.88984 17.0868 7.97641C17.2615 8.06338 17.4127 8.08375 17.5408 8.03674C17.5976 8.01598 17.6517 7.9768 17.7034 7.91882C17.7617 7.86398 17.8146 7.79425 17.862 7.71003L17.9768 8.02459L18.3842 8.10647L18.1272 7.4033C18.1605 7.31006 18.206 7.23211 18.2639 7.16865C18.3235 7.10244 18.3866 7.057 18.4535 7.03232C18.4904 7.019 18.5252 7.02292 18.5585 7.04446C18.5954 7.0617 18.6216 7.09147 18.6369 7.13339C18.6639 7.20743 18.6749 7.29439 18.6694 7.3939C18.6584 7.50162 18.6341 7.60818 18.5973 7.71395L18.9679 7.80914C19.0243 7.58154 19.0184 7.37431 18.9499 7.18667C18.9025 7.05582 18.8041 6.94379 18.6549 6.84977C18.5029 6.75458 18.3748 6.72559 18.2714 6.76359C18.2216 6.78161 18.1742 6.80864 18.1288 6.84468C18.0771 6.8862 18.0269 6.93674 17.9788 6.99628L17.8232 6.57046C18.1719 6.45647 18.5248 6.35148 18.8833 6.26138L18.8034 6.19165L18.8045 6.19126L18.7893 6.17911L18.5671 5.9856C15.1057 6.90892 12.0925 8.94126 9.93127 11.6768L10.2956 11.7731C10.638 11.3477 11.0039 10.9427 11.387 10.5544Z" fill="white"/>
<path fill-rule="evenodd" clip-rule="evenodd" d="M16.6827 5.90563C16.7379 5.88917 16.7943 5.88447 16.8515 5.89192C16.9079 5.89701 16.9565 5.91385 16.998 5.94245L17.4983 6.30677C17.5989 6.2766 17.537 6.17162 17.3134 5.9922C17.2005 5.89975 17.1238 5.8406 17.083 5.81435C16.9757 5.7313 16.8609 5.67254 16.7383 5.63807C16.6161 5.60634 16.5087 5.60399 16.4155 5.63219C16.3618 5.65374 16.3195 5.67724 16.2886 5.7031L16.5358 5.97849C16.5808 5.94558 16.6298 5.9213 16.6827 5.90563Z" fill="white"/>
<path fill-rule="evenodd" clip-rule="evenodd" d="M23.5773 7.67405C23.6447 7.63644 23.7203 7.62234 23.8037 7.63135L23.9996 7.65289L23.8687 7.40061L23.6924 7.38142C23.58 7.36927 23.4801 7.38886 23.3928 7.43979C23.3078 7.49385 23.2592 7.56397 23.247 7.64976C23.2298 7.80645 23.276 7.95022 23.3861 8.08106C23.5005 8.21778 23.6349 8.29456 23.7888 8.31141C23.8934 8.32316 23.9847 8.31846 24.0638 8.29809C24.1449 8.28046 24.2225 8.24794 24.2965 8.20054L24.1696 7.90948C24.0897 7.96393 23.9992 8.0082 23.8977 8.04189C23.8049 8.06892 23.7179 8.07793 23.6372 8.06892C23.582 8.06304 23.5389 8.03719 23.5068 7.99135C23.4727 7.94278 23.4586 7.8895 23.4648 7.83231C23.4692 7.7665 23.5068 7.714 23.5773 7.67405Z" fill="white"/>
<path fill-rule="evenodd" clip-rule="evenodd" d="M26.7288 6.97522C26.8008 6.92899 26.8761 6.91646 26.9548 6.93722L27.3168 7.03281L27.3975 6.72803L26.8412 6.58113C26.7268 6.55097 26.6206 6.56233 26.5223 6.61521C26.4185 6.66927 26.3527 6.74801 26.3253 6.85221C26.2877 6.98345 26.2916 7.14484 26.3359 7.33601C26.3813 7.52444 26.4651 7.72618 26.5877 7.94046L26.7221 7.89424C26.6579 7.75791 26.6116 7.62355 26.5842 7.49114C26.5638 7.36343 26.565 7.25531 26.5885 7.16639C26.6101 7.08491 26.6567 7.02144 26.7288 6.97522Z" fill="white"/>
<path fill-rule="evenodd" clip-rule="evenodd" d="M33.9061 10.4413C33.894 10.5188 33.8587 10.5894 33.8 10.6524C33.7483 10.7081 33.6997 10.7492 33.6546 10.7762C33.6096 10.8068 33.5704 10.8236 33.5371 10.8271C33.5077 10.7073 33.4975 10.5995 33.5062 10.504C33.5116 10.4115 33.5355 10.343 33.5775 10.2979C33.6209 10.2513 33.6703 10.2219 33.7251 10.2094C33.7784 10.1988 33.8207 10.2109 33.8525 10.2454C33.8987 10.2963 33.9167 10.3618 33.9061 10.4413ZM33.5857 9.93594C33.4592 9.96375 33.389 10.0542 33.3585 10.2435C33.3256 10.4272 33.3483 10.6356 33.427 10.8679C33.2727 10.9098 33.1285 10.9043 32.9953 10.8514C33.0216 10.7958 33.0349 10.7496 33.0349 10.7124C33.0392 10.6681 33.031 10.6352 33.0106 10.6148C32.9773 10.5811 32.9319 10.567 32.8743 10.5721C32.8167 10.5811 32.7646 10.6086 32.718 10.6548C32.6694 10.703 32.6549 10.7668 32.6749 10.8467C32.6949 10.9266 32.7407 10.9976 32.8128 11.0594L32.6984 11.6157L32.8927 11.6729L32.9099 11.1296C33.1473 11.1903 33.3616 11.2075 33.5532 11.1809C33.7467 11.1597 33.8991 11.0939 34.0111 10.9831C34.2168 10.768 34.3104 10.3696 34.0342 10.0582C33.9445 9.96532 33.8047 9.90029 33.5857 9.93594Z" fill="white"/>
<path fill-rule="evenodd" clip-rule="evenodd" d="M33.1079 12.5331C32.999 12.519 32.9054 12.4661 32.8271 12.3744C32.6864 12.2142 32.5822 12.0599 32.5137 11.911C32.4447 11.7661 32.4134 11.6305 32.4197 11.5044L32.2806 11.4934C32.2681 11.6807 32.2947 11.8671 32.3601 12.0528C32.4322 12.2502 32.5399 12.4328 32.6837 12.6005C32.7895 12.7243 32.9101 12.7991 33.0461 12.8245C33.1859 12.8504 33.3034 12.8222 33.3994 12.7403C33.4809 12.6702 33.5279 12.5574 33.54 12.4018C33.5522 12.2463 33.5232 12.1276 33.4535 12.0458C33.4155 12.0019 33.3661 11.9682 33.3046 11.9447C33.2415 11.9157 33.1695 11.8981 33.088 11.8918L33.077 12.2122C33.1428 12.2044 33.2012 12.2079 33.2521 12.2228C33.3124 12.2408 33.3544 12.2636 33.3782 12.2914C33.4021 12.3196 33.4155 12.3494 33.4186 12.3811C33.4256 12.4136 33.417 12.4398 33.3931 12.4602C33.3152 12.5268 33.22 12.5511 33.1079 12.5331Z" fill="white"/>
<path fill-rule="evenodd" clip-rule="evenodd" d="M23.2347 5.78708C23.4326 5.79257 23.6292 5.80197 23.8251 5.81451L23.7937 6.47263L23.2034 6.44481L23.2347 5.78708ZM29.9805 7.49115C30.1564 7.58007 30.3303 7.67252 30.5027 7.76771L30.1936 8.35415L29.671 8.07875L29.9805 7.49115ZM28.0425 7.68349C27.9148 7.69485 27.802 7.68192 27.7037 7.64549C27.6332 7.61611 27.5795 7.57224 27.5427 7.51347C27.509 7.45354 27.5019 7.39752 27.5211 7.34581C27.549 7.26355 27.6293 7.20674 27.7617 7.17501C27.8929 7.14563 28.0202 7.15386 28.1432 7.19969C28.2024 7.22202 28.2603 7.2659 28.3172 7.3321C28.3712 7.39713 28.4147 7.47508 28.448 7.56597C28.3128 7.62786 28.1777 7.66704 28.0425 7.68349ZM20.5118 7.24592C20.6869 7.36892 20.8612 7.42181 21.0336 7.40535C21.1566 7.39321 21.2565 7.33602 21.3336 7.23377C21.4135 7.13114 21.4468 7.0144 21.4343 6.88356C21.4292 6.82872 21.4163 6.77857 21.3959 6.73274C21.3759 6.69004 21.3481 6.64773 21.3125 6.60621C21.3916 6.65949 21.4637 6.69592 21.5291 6.7159C21.5949 6.74136 21.6592 6.75115 21.7218 6.74488C21.7943 6.73274 21.8456 6.71433 21.8746 6.69043L21.9279 7.23965L22.2997 7.40144L22.1441 5.79374C22.3561 5.78513 22.5688 5.78003 22.7823 5.78003C22.8152 5.78003 22.8473 5.78121 22.8798 5.78121L22.8493 6.42797L22.7314 6.42209C22.7024 6.42092 22.6796 6.43032 22.6628 6.45069C22.6409 6.46518 22.6295 6.48712 22.6283 6.51611C22.6252 6.57644 22.6875 6.67672 22.8152 6.81696C22.9425 6.95681 23.0361 7.0285 23.0968 7.03124C23.1176 7.03242 23.1352 7.02263 23.1493 7.00226C23.1689 6.97679 23.1795 6.94859 23.1811 6.91686L23.1885 6.75938L23.7789 6.78758L23.7585 7.22045L24.1013 7.47352L24.1788 5.84154C24.6763 5.88463 25.1676 5.95083 25.651 6.03858L25.6067 6.30261L25.1018 6.218C24.9772 6.19684 24.8648 6.21682 24.7641 6.27715C24.6658 6.34061 24.6074 6.42523 24.5898 6.53139C24.5639 6.68416 24.5804 6.84948 24.6383 7.02694C24.6908 7.20635 24.7821 7.39204 24.9126 7.58438L25.0422 7.52601C24.9576 7.41084 24.8973 7.29293 24.8616 7.17227C24.8295 7.04691 24.8228 6.92743 24.842 6.81344C24.8565 6.7253 24.9 6.65792 24.9717 6.61169C25.0391 6.55881 25.117 6.54 25.2048 6.55489L25.5546 6.61326L25.4179 7.42925L25.7282 7.7211L25.9992 6.10596C26.9222 6.29478 27.8165 6.56312 28.6744 6.90354L28.4919 7.39321C28.4468 7.25845 28.3822 7.14172 28.2983 7.04339C28.2098 6.9431 28.1189 6.87533 28.0253 6.84047C27.8811 6.78367 27.744 6.77857 27.6144 6.82558C27.4831 6.86907 27.395 6.95133 27.3503 7.07159C27.2967 7.21458 27.3186 7.38498 27.4154 7.58399C27.511 7.78495 27.6304 7.91226 27.773 7.96554C27.8518 7.99531 27.9356 8.00707 28.0249 8.0008C28.1131 7.99727 28.202 7.97338 28.2917 7.92833L28.1816 8.2233L28.4311 8.56882L29.0027 7.0383C29.2252 7.13231 29.445 7.23103 29.662 7.33484L29.3572 7.91344L29.2526 7.8582C29.2272 7.84489 29.2025 7.84371 29.1786 7.85507C29.1527 7.85899 29.1331 7.87387 29.1194 7.89934C29.0912 7.95301 29.1053 8.07014 29.1613 8.25112C29.2174 8.4321 29.2722 8.5367 29.3255 8.56451C29.3443 8.57469 29.3643 8.57313 29.3854 8.56059C29.414 8.5461 29.4356 8.52494 29.4504 8.49674L29.5237 8.35767L30.0467 8.63306L29.8445 9.01657L30.0479 9.39069L30.8113 7.94282C30.9998 8.05251 31.1862 8.16611 31.37 8.28324L30.6002 9.46237L30.7679 9.85411L31.6665 8.47715C32.0536 8.73609 32.4284 9.01109 32.7908 9.30176L32.4825 9.69585L31.862 9.21049C31.8267 9.18267 31.788 9.17249 31.746 9.17954C31.7018 9.18502 31.6665 9.20422 31.6407 9.23752C31.5792 9.31586 31.5482 9.42163 31.5474 9.55482C31.5459 9.69311 31.5729 9.78438 31.6289 9.82826C31.6473 9.84275 31.6657 9.84706 31.6838 9.84118C31.7061 9.84197 31.7249 9.83335 31.7394 9.81455L31.8244 9.70603C31.8404 9.68527 31.8616 9.67352 31.8875 9.67039C31.9106 9.66177 31.9305 9.66412 31.947 9.67705L32.2886 9.94421L31.9 10.4405L32.0579 10.8143L33.065 9.52662C33.2123 9.65041 33.358 9.77576 33.501 9.90465L33.7384 9.6555C30.8349 7.03438 26.9927 5.4353 22.7823 5.4353C22.2965 5.4353 21.8159 5.45646 21.3407 5.49798L21.5581 5.82822C21.6353 5.82234 21.7128 5.81921 21.79 5.81451L21.8351 6.27872C21.8025 6.3269 21.7642 6.3649 21.7195 6.39271C21.6744 6.42092 21.6259 6.43737 21.5738 6.44246C21.4719 6.45265 21.3928 6.455 21.3368 6.44951C21.2733 6.44795 21.2263 6.43815 21.1953 6.41974C21.2467 6.37508 21.2851 6.32141 21.3105 6.25835C21.336 6.19528 21.3458 6.13221 21.3399 6.06953C21.3278 5.94378 21.2424 5.82822 21.0845 5.72206C20.929 5.61589 20.7742 5.57006 20.6199 5.58495C20.5443 5.59239 20.4675 5.61824 20.3899 5.66251C20.3092 5.70208 20.2356 5.75653 20.1682 5.82665L20.3696 6.06443C20.4366 5.99471 20.5149 5.93281 20.605 5.87914C20.6877 5.83448 20.7656 5.80824 20.8389 5.80119C20.9043 5.79492 20.9607 5.80785 21.0089 5.84036C21.0598 5.87483 21.0876 5.91949 21.0931 5.97473C21.1009 6.05817 21.0872 6.13338 21.0516 6.20037C21.0336 6.25991 20.9858 6.29634 20.9078 6.30927C20.862 6.30026 20.8083 6.303 20.746 6.31671C20.6771 6.33669 20.6085 6.36568 20.5408 6.40407L20.7065 6.68495C20.8334 6.65949 20.9599 6.60112 21.0853 6.50945C21.1143 6.53335 21.1366 6.56155 21.153 6.59406C21.1687 6.61914 21.1785 6.65361 21.1828 6.69827C21.195 6.79463 21.1703 6.88278 21.1096 6.9623C21.0406 7.04025 20.9591 7.08374 20.8647 7.09314C20.7445 7.1045 20.6211 7.07042 20.4949 6.9905C20.3676 6.90511 20.2587 6.78758 20.1678 6.63794L20.0577 6.72765C20.1792 6.9482 20.3304 7.12095 20.5118 7.24592Z" fill="white"/>
<path fill-rule="evenodd" clip-rule="evenodd" d="M33.493 11.9161L33.6023 12.3067L34.7536 11.1691C34.8394 11.2651 34.9256 11.3606 35.009 11.459L35.1077 11.0445C34.9036 10.8114 34.6929 10.5846 34.4762 10.3633L34.233 10.6085C34.3286 10.7064 34.4214 10.8067 34.5146 10.9066L33.493 11.9161Z" fill="white"/>
<path fill-rule="evenodd" clip-rule="evenodd" d="M34.2012 12.6987H34.7012V12.1987H34.2012V12.6987Z" fill="white"/>
<path fill-rule="evenodd" clip-rule="evenodd" d="M34.6984 12.2073H35.1984V11.7073H34.6984V12.2073Z" fill="white"/>
<path fill-rule="evenodd" clip-rule="evenodd" d="M11.9592 51.8399C11.7594 51.9351 11.5687 51.9828 11.3873 51.9828C11.2557 51.9785 11.1425 51.9398 11.0469 51.8673C10.956 51.7901 10.9106 51.7035 10.9106 51.6083C10.9062 51.4587 11.0014 51.3181 11.1969 51.1864C11.3916 51.0591 11.6028 50.9957 11.83 50.9957C11.9389 50.9957 12.0591 51.0321 12.1908 51.1046C12.3177 51.1774 12.4356 51.2769 12.5449 51.4042C12.3631 51.586 12.168 51.731 11.9592 51.8399ZM5.01489 52.6774C4.95613 52.6182 4.92675 52.5458 4.92675 52.4592C4.92675 52.3734 4.95613 52.3005 5.01489 52.2418C5.07404 52.1826 5.14651 52.1529 5.23309 52.1529C5.31927 52.1529 5.39174 52.1826 5.45089 52.2418C5.50966 52.3005 5.53943 52.3734 5.53943 52.4592C5.53943 52.5458 5.50966 52.6182 5.45089 52.6774C5.39174 52.7362 5.31927 52.7659 5.23309 52.7659C5.14651 52.7659 5.07404 52.7362 5.01489 52.6774ZM2.21004 50.696C2.15559 50.8096 2.08312 50.8868 1.99224 50.9275C1.86962 50.8868 1.77208 50.8143 1.69961 50.7097C1.62244 50.6098 1.58365 50.5009 1.58365 50.383C1.58365 50.2874 1.62244 50.2016 1.69961 50.124C1.78579 50.0469 1.88333 50.0085 1.99224 50.0085C2.07842 50.0085 2.15128 50.0383 2.21004 50.097C2.2692 50.1558 2.29858 50.2286 2.29858 50.3148C2.29858 50.4605 2.2692 50.5871 2.21004 50.696ZM17.1196 52.6978L17.7323 53.0386V50.1789H18.3454L18.0386 49.634H15.0908H14.9545H13.4298H13.2935H10.019H9.88263H8.35799H8.22166H4.17069H4.03476H2.77532L3.11574 50.1789H3.25168V51.4383L2.57083 51.1316C2.6343 51.0681 2.68444 50.9867 2.72087 50.8868C2.75691 50.7869 2.77532 50.687 2.77532 50.5871C2.77532 50.3466 2.66172 50.106 2.4349 49.8655C2.20338 49.6203 1.97618 49.498 1.75406 49.498C1.53625 49.498 1.34979 49.5639 1.19583 49.6955C1.0458 49.8314 0.970975 49.9924 0.970975 50.1789C0.975676 50.3328 1.0458 50.4923 1.18212 50.6556C1.31845 50.8096 1.50883 50.9459 1.75406 51.0642C1.53155 51.2135 1.15705 51.407 0.630554 51.6424L1.1073 52.051C1.69256 51.7654 2.1125 51.5155 2.36674 51.302L2.91126 51.5743L1.3114 52.5614L1.75406 52.9359L3.25168 51.9147V52.6978L3.86435 53.0386V50.1789H7.51379V50.6556H6.79887C6.54463 50.6556 6.33583 50.7414 6.17248 50.9138C5.99972 51.0956 5.91393 51.3044 5.91393 51.5402C5.90923 51.8312 6.06592 52.1438 6.38362 52.48C6.70132 52.8067 6.99826 52.97 7.27522 52.97C7.28893 52.9747 7.32771 52.963 7.39118 52.9359L7.47971 52.9019C7.40254 53.1702 7.29128 53.3829 7.14595 53.542C7.00531 53.7053 6.85567 53.7872 6.69662 53.7872C6.61514 53.7872 6.55129 53.7598 6.50585 53.7053C6.4561 53.6599 6.42867 53.5964 6.42436 53.5145C6.42436 53.4331 6.4608 53.3606 6.53327 53.2967C6.61945 53.2243 6.71934 53.1718 6.83295 53.14L6.28804 52.7996C6.20656 52.818 6.13174 52.8545 6.06357 52.9089C5.99972 52.9587 5.96133 53.0131 5.94762 53.0723C5.7208 53.0723 5.5504 53.0386 5.43718 52.97C5.5551 52.9293 5.64598 52.8592 5.70944 52.7589C5.7776 52.6547 5.81169 52.5434 5.81169 52.4255C5.81169 52.2622 5.75723 52.1258 5.64833 52.0169C5.54844 51.9037 5.42112 51.8469 5.26717 51.8469C5.07639 51.8422 4.915 51.899 4.78376 52.0169C4.65175 52.1395 4.58633 52.2868 4.58633 52.4592C4.59064 52.6958 4.71991 52.8976 4.97415 53.0652C5.23309 53.2286 5.54609 53.3104 5.91393 53.3104C5.86379 53.4828 5.95232 53.6509 6.17914 53.8142C6.41065 53.9776 6.6739 54.0594 6.96888 54.0594C7.14164 54.0594 7.3093 53.9956 7.47266 53.8687C7.6317 53.7414 7.75863 53.567 7.85421 53.3445L8.12647 53.9231L8.50097 53.7531L7.99014 52.9019C8.08573 52.8752 8.1582 52.8247 8.20795 52.7522C8.2671 52.6703 8.29648 52.5842 8.29648 52.4933C8.29648 52.3664 8.23968 52.2304 8.12647 52.0851C8.01286 51.9488 7.89926 51.8806 7.78605 51.8806C7.66343 51.8806 7.55884 51.9127 7.47266 51.9762C7.38647 52.0396 7.34338 52.1211 7.34338 52.221C7.34338 52.3076 7.37746 52.4094 7.44563 52.5274C7.32301 52.5955 7.22077 52.6296 7.13929 52.6296C6.9395 52.6296 6.77145 52.5548 6.63551 52.4051C6.49449 52.2508 6.42436 52.0647 6.42436 51.8469C6.42436 51.6742 6.47882 51.5222 6.58772 51.3909C6.69231 51.2636 6.81924 51.1998 6.96888 51.1998H8.12647V50.1789H9.09994V52.6296L9.71262 53.0386V50.1789H12.5108V51.0975C12.3565 50.9071 12.1817 50.7575 11.9867 50.6486C11.7822 50.5397 11.5937 50.4852 11.4214 50.4852C11.1534 50.4805 10.929 50.5553 10.7472 50.7097C10.5611 50.8593 10.4683 51.0458 10.4683 51.2679C10.4683 51.5312 10.6066 51.7944 10.8835 52.0577C11.1605 52.3256 11.4304 52.4592 11.6936 52.4592C11.839 52.4592 11.982 52.4279 12.1226 52.364C12.2632 52.3052 12.3925 52.212 12.5108 52.0851V52.6296L13.1235 53.0386V50.1789H14.1718V52.6296L14.7845 53.0386V50.1789H17.1196V51.0642H15.7579C15.6808 51.0642 15.6173 51.0909 15.5675 51.1457C15.5131 51.1998 15.4857 51.2636 15.4857 51.3361C15.4857 51.5084 15.5558 51.6855 15.6968 51.8673C15.8418 52.0577 15.9757 52.1529 16.0983 52.1529C16.1391 52.1529 16.1689 52.1395 16.1869 52.1121C16.2186 52.0894 16.2347 52.0577 16.2347 52.0169V51.7784C16.2347 51.7337 16.2503 51.6945 16.2821 51.6628C16.3048 51.6268 16.3346 51.6083 16.3706 51.6083H17.1196V52.6978Z" fill="white"/>
<path fill-rule="evenodd" clip-rule="evenodd" d="M17.7529 53.4126C17.5578 53.2539 17.4034 53.1748 17.2898 53.1748C17.1946 53.1748 17.1061 53.1881 17.0242 53.2152C16.9565 53.2383 16.8859 53.281 16.8135 53.3444L17.0517 53.7189C17.1108 53.6735 17.1653 53.6418 17.215 53.6237C17.2785 53.5967 17.3376 53.583 17.3921 53.583C17.5464 53.5873 17.8551 53.8345 18.3181 54.3249L18.6856 54.7061L18.8897 54.5357C18.6174 54.2407 18.2386 53.8662 17.7529 53.4126Z" fill="white"/>
<path fill-rule="evenodd" clip-rule="evenodd" d="M25.3438 50.7237C25.2349 50.6963 25.144 50.6281 25.0715 50.5196C25.0033 50.4197 24.9693 50.2943 24.9693 50.1447C24.974 50.0405 24.9986 49.9516 25.0441 49.8795C25.0895 49.8066 25.144 49.7702 25.2074 49.7702C25.2529 49.7702 25.2846 49.7976 25.303 49.8517C25.3301 49.8975 25.3438 49.961 25.3438 50.0429V50.7237ZM30.2048 49.6343H27.829H27.6926H25.8883L26.2287 50.1788H26.9095V51.336H25.9564V50.3492C25.9564 50.1361 25.8522 49.9249 25.6434 49.7161C25.4299 49.5026 25.2165 49.3957 25.0033 49.3957C24.8263 49.3918 24.6743 49.4478 24.5474 49.5661C24.42 49.693 24.3566 49.8411 24.3566 50.0088C24.3566 50.0648 24.3625 50.12 24.3738 50.1733L24.0706 49.6343H20.1152L20.4216 50.1788H22.9068V50.6211C22.8292 50.6211 22.7383 50.6602 22.6341 50.737C22.5299 50.8185 22.4277 50.9278 22.3278 51.0637C22.2008 50.9098 22.0692 50.7919 21.9329 50.71C21.797 50.6281 21.6673 50.587 21.5451 50.587C21.3226 50.587 21.1294 50.6688 20.9661 50.8322C20.8074 50.9916 20.7279 51.182 20.7279 51.4041C20.7279 51.6404 20.8302 51.8903 21.0343 52.1528C21.2293 52.4258 21.513 52.6981 21.8855 52.9699L22.0555 52.7662C21.8193 52.566 21.6379 52.3713 21.511 52.1806C21.3837 51.9761 21.3202 51.7967 21.3202 51.6427C21.3202 51.4747 21.3657 51.3383 21.4565 51.2341C21.547 51.1209 21.6559 51.0637 21.7833 51.0637C21.8604 51.0637 21.9329 51.0845 22.0011 51.1248C22.0692 51.1613 22.1327 51.2208 22.1918 51.3023C22.0555 51.593 21.976 51.7743 21.9533 51.8464L22.4982 52.0854C22.5707 51.7806 22.6843 51.5271 22.8382 51.3223C22.9882 51.1272 23.1469 51.0296 23.315 51.0296C23.4105 51.0296 23.492 51.0575 23.5602 51.1111C23.6236 51.1613 23.6554 51.2247 23.6554 51.3023C23.6644 51.4476 23.5943 51.6149 23.4442 51.8061C23.2989 52.0015 23.0971 52.1849 22.8382 52.3576L23.349 52.834C23.5668 52.6029 23.7349 52.3757 23.8528 52.1528C23.9707 51.931 24.0299 51.7269 24.0299 51.5405C24.0299 51.3317 23.9821 51.1452 23.8869 50.9818C23.8007 50.8185 23.6781 50.71 23.519 50.6551V50.1788H24.3754C24.411 50.3378 24.4976 50.4832 24.6359 50.6148C24.8353 50.8005 25.0715 50.9164 25.3438 50.9615V51.336H25.1397C25.0758 51.336 25.0214 51.354 24.9759 51.3904C24.9309 51.4316 24.9058 51.4817 24.9011 51.5405C24.9058 51.6768 25.0147 51.8464 25.2282 52.0513C25.4413 52.255 25.616 52.3576 25.7523 52.3576C25.8111 52.3576 25.8613 52.3302 25.902 52.2758C25.9384 52.226 25.9564 52.1625 25.9564 52.0854V51.8805H26.9095V52.6981L27.5222 53.0381V50.1788H30.0004V50.6551H29.1154C28.8976 50.6551 28.7115 50.721 28.5572 50.853C28.4076 50.9893 28.3323 51.1503 28.3323 51.336C28.3323 51.6043 28.4076 51.8805 28.5572 52.1669C28.6978 52.4575 28.9066 52.7482 29.1836 53.0381L29.3877 52.9021C29.2106 52.7298 29.0747 52.5457 28.9791 52.3506C28.8886 52.1465 28.8432 51.9443 28.8432 51.7446C28.8432 51.5906 28.8976 51.4637 29.0065 51.3638C29.1064 51.2541 29.2333 51.2 29.3877 51.2H30.0004V52.6295L30.613 53.0381V50.1788H31.2261L30.9194 49.6343H30.2048Z" fill="white"/>
<path fill-rule="evenodd" clip-rule="evenodd" d="M30.055 49.0216C29.9143 48.8128 29.8168 48.6765 29.7623 48.6126C29.626 48.4223 29.465 48.2679 29.2789 48.1496C29.0929 48.0364 28.9158 47.98 28.7477 47.98C28.6482 47.9886 28.5664 48.0066 28.5025 48.034L28.7752 48.6126C28.866 48.5813 28.9589 48.5652 29.0541 48.5652C29.154 48.5652 29.2495 48.5856 29.34 48.6263C29.4309 48.6632 29.5034 48.7153 29.5578 48.7834L30.2046 49.6339C30.3864 49.6339 30.3366 49.4298 30.055 49.0216Z" fill="white"/>
<path fill-rule="evenodd" clip-rule="evenodd" d="M42.575 50.1789H43.5963V51.3361H42.575V50.1789ZM43.5963 52.6297L44.209 53.0382V50.1789H44.8216L44.5153 49.634H41.1726H41.0363H38.2248H38.0884H36.5634H36.4271H32.9958L33.3022 50.1789H35.6444V50.6553H33.7723L33.67 50.8598C33.9513 50.9413 34.1828 51.0686 34.3646 51.2409C34.5369 51.4223 34.6231 51.6131 34.6231 51.8129C34.6231 51.8991 34.5824 51.9762 34.5005 52.0444C34.4006 52.1216 34.2941 52.169 34.1805 52.1874C34.1487 52.1192 34.099 52.0624 34.0308 52.017C33.9627 51.9715 33.8992 51.9488 33.84 51.9488C33.7492 51.9488 33.6767 51.9809 33.6222 52.0444C33.5635 52.1122 33.5337 52.194 33.5337 52.2892C33.5337 52.4299 33.6042 52.5482 33.7449 52.6434C33.8855 52.748 34.0535 52.8001 34.2486 52.8001L34.6572 53.7191L34.9636 53.5487L34.419 52.766C34.6094 52.7343 34.7728 52.6571 34.9091 52.5345C35.036 52.4166 35.0995 52.2783 35.0995 52.1192C35.0995 51.9512 35.0497 51.7855 34.9498 51.6221C34.859 51.4588 34.7273 51.3181 34.555 51.2002H35.6444V52.6978L36.2571 53.0382V50.1789H37.3054V52.6297L37.918 53.0382V50.1789H40.2532V51.0639H38.8919C38.8147 51.0639 38.7513 51.0909 38.7011 51.1454C38.6467 51.2002 38.6196 51.2637 38.6196 51.3361C38.6196 51.5089 38.6898 51.6856 38.8304 51.8673C38.9757 52.0577 39.1097 52.1533 39.2319 52.1533C39.2731 52.1533 39.3024 52.1396 39.3209 52.1122C39.3526 52.0898 39.3683 52.0577 39.3683 52.017V51.7788C39.3683 51.7334 39.3843 51.6946 39.416 51.6628C39.4388 51.6268 39.4682 51.6084 39.5046 51.6084H40.2532V52.6978L40.8663 53.0382V50.1789H41.9623V51.3361H41.7583C41.7081 51.3361 41.6693 51.3542 41.6423 51.3906C41.6059 51.418 41.5878 51.4564 41.5878 51.5065C41.5878 51.6107 41.7034 51.7788 41.9349 52.0103C42.1668 52.2418 42.3345 52.3574 42.4391 52.3574C42.4751 52.3574 42.5045 52.3394 42.5272 52.3029C42.559 52.2579 42.575 52.2078 42.575 52.1533V51.881H43.5963V52.6297Z" fill="white"/>
<path fill-rule="evenodd" clip-rule="evenodd" d="M44.2294 53.4126C44.0343 53.2539 43.8799 53.1748 43.7663 53.1748C43.6711 53.1748 43.5826 53.1881 43.5007 53.2152C43.433 53.2383 43.3624 53.281 43.29 53.3444L43.5282 53.7189C43.5869 53.6735 43.6418 53.6418 43.6915 53.6237C43.755 53.5967 43.8141 53.583 43.8686 53.583C44.0229 53.5873 44.3312 53.8345 44.7946 54.3249L45.1621 54.7061L45.3662 54.5357C45.0939 54.2407 44.7151 53.8662 44.2294 53.4126Z" fill="white"/>
</svg>
